<?xml version="1.0" encoding="UTF-8" standalone="no"?>
<!-- Created with Inkscape (http://www.inkscape.org/) -->

<svg
   xmlns:dc="http://purl.org/dc/elements/1.1/"
   xmlns:cc="http://creativecommons.org/ns#"
   xmlns:rdf="http://www.w3.org/1999/02/22-rdf-syntax-ns#"
   xmlns:svg="http://www.w3.org/2000/svg"
   xmlns="http://www.w3.org/2000/svg"
   xmlns:sodipodi="http://sodipodi.sourceforge.net/DTD/sodipodi-0.dtd"
   xmlns:inkscape="http://www.inkscape.org/namespaces/inkscape"
   version="1.1"
   id="svg10"
   xml:space="preserve"
   width="90mm"
   height="50mm"
   viewBox="0 0 340.15747 188.97639"
   sodipodi:docname="back.svg"
   inkscape:version="0.92.2 2405546, 2018-03-11"><metadata
     id="metadata16"><rdf:RDF><cc:Work
         rdf:about=""><dc:format>image/svg+xml</dc:format><dc:type
           rdf:resource="http://purl.org/dc/dcmitype/StillImage" /><dc:title></dc:title></cc:Work></rdf:RDF></metadata><defs
     id="defs14" /><sodipodi:namedview
     pagecolor="#ffffff"
     bordercolor="#666666"
     borderopacity="1"
     objecttolerance="10"
     gridtolerance="10"
     guidetolerance="10"
     inkscape:pageopacity="0"
     inkscape:pageshadow="2"
     inkscape:window-width="1364"
     inkscape:window-height="746"
     id="namedview12"
     showgrid="true"
     units="mm"
     inkscape:zoom="2.8284272"
     inkscape:cx="220.83426"
     inkscape:cy="125.63611"
     inkscape:window-x="1024"
     inkscape:window-y="20"
     inkscape:window-maximized="1"
     inkscape:current-layer="g5295"
     showguides="true"
     inkscape:measure-start="300,180"
     inkscape:measure-end="340,85.0001"
     fit-margin-top="0"
     fit-margin-left="0"
     fit-margin-right="0"
     fit-margin-bottom="0"
     inkscape:guide-bbox="true"><inkscape:grid
       type="xygrid"
       id="grid59"
       originx="-170.00001"
       originy="-849.99993" /></sodipodi:namedview><g
     id="g18"
     inkscape:groupmode="layer"
     inkscape:label="koszulka_przod_kolor_krzywe"
     transform="matrix(1.3333333,0,0,-1.3333333,-170,1038.9764)"><g
       id="g20"><rect
   style="opacity:1;fill:#ffffff;fill-opacity:1;stroke:none;stroke-width:0.75;stroke-miterlimit:4;stroke-dasharray:none;stroke-opacity:1"
   id="rect4594"
   width="255"
   height="142.5"
   x="127.49999"
   y="-780.00006"
   transform="scale(1,-1)" />











<text
   xml:space="preserve"
   style="font-style:normal;font-variant:normal;font-weight:normal;font-stretch:normal;font-size:24.21118736px;line-height:125%;font-family:CasablancaAntique;-inkscape-font-specification:CasablancaAntique;letter-spacing:0px;word-spacing:0px;fill:#808080;fill-opacity:1;stroke:none;stroke-width:0.60527968px;stroke-linecap:butt;stroke-linejoin:miter;stroke-opacity:1"
   x="472.69708"
   y="-575.04614"
   id="text4505"
   transform="matrix(0.92165125,0.3880193,0.3880193,-0.92165125,0,0)"><tspan
     sodipodi:role="line"
     id="tspan4503"
     x="472.69708"
     y="-554.9967"
     style="fill:#808080;stroke-width:0.60527968px" /></text>







<g
   id="g5295"
   style="fill:#cccccc"><path
   inkscape:connector-curvature="0"
   id="path24"
   style="fill:#cccccc;fill-opacity:1;fill-rule:nonzero;stroke:none;stroke-width:0.08408172"
   d="m 243.96988,655.45121 c -0.21028,0.034 -0.13423,0.26205 -0.11119,0.36055 0.12884,0.18068 0.0787,0.5437 0.23451,0.723 0.0747,0.24887 0.34832,0.36686 0.56507,0.2618 0.15203,-0.0276 0.34867,-0.21884 0.43351,0.006 0.10771,0.14721 0.0877,0.38184 0.0735,0.57219 0.007,0.13459 0.0202,0.2779 0.009,0.4284 -0.0161,0.16738 0.0528,0.36459 0.0704,0.54529 0.0317,0.20647 0.17281,0.42664 0.12111,0.64434 -0.1104,0.18944 -0.27358,0.32136 -0.4031,0.48596 -0.12656,0.18018 -0.32109,0.28612 -0.4053,0.49616 -0.11424,0.10975 -0.19978,0.23694 -0.30747,0.35197 -0.14467,0.16789 -0.27642,0.35017 -0.40745,0.51661 -0.12681,0.20141 -0.29,0.38505 -0.41754,0.58397 -0.14544,0.17114 -0.28043,0.36555 -0.41846,0.56297 -0.15005,0.2387 -0.29697,0.46258 -0.45098,0.68786 -0.14971,0.24204 -0.30711,0.46187 -0.45921,0.70721 -0.0975,0.30887 -0.44483,0.13237 -0.58816,-0.0471 -0.18425,-0.126 -0.30255,-0.32087 -0.47803,-0.43388 -0.0909,-0.0601 -0.22202,-0.16581 -0.31195,-0.18668 -0.11759,-0.0408 -0.22404,-0.0952 -0.38882,-0.11849 -0.34315,-0.0975 -0.69548,0.0226 -1.01105,-0.21575 -0.23663,-0.15067 -0.33377,-0.31193 -0.48602,-0.51998 -0.16161,-0.20772 -0.40897,-0.3279 -0.68041,-0.3781 -0.21799,-0.0585 -0.43087,-0.0863 -0.64253,-0.12436 -0.40447,-0.0246 -0.75542,-0.28205 -1.15926,-0.31136 -0.17113,-0.009 -0.33868,0.01 -0.52232,0.0199 -0.19235,0.0253 -0.40633,0.0189 -0.57624,0.05 -0.225,0.0172 -0.45047,0.0812 -0.65751,0.16255 -0.22226,0.10886 -0.47304,0.13484 -0.67811,0.27585 -0.33395,0.15162 -0.69908,0.25871 -1.00429,0.44779 -0.15029,0.0928 -0.27902,0.19471 -0.43581,0.27759 -0.14371,0.11877 -0.30128,0.22312 -0.43204,0.36768 -0.15325,0.067 -0.24928,0.26208 -0.36606,0.37438 -0.0912,0.12445 -0.22461,0.21864 -0.32587,0.34386 -0.13752,0.13779 -0.2407,0.34597 -0.37425,0.49281 -0.16803,0.24501 -0.32964,0.47921 -0.47542,0.73925 -0.17704,0.32066 -0.36567,0.60262 -0.52648,0.93978 -0.1863,0.31815 -0.38278,0.67131 -0.49847,1.0149 -0.21902,0.40353 -0.45931,0.80659 -0.62412,1.25467 -0.20776,0.4182 -0.30942,0.82481 -0.47607,1.23998 -0.10904,0.35961 -0.27314,0.7089 -0.34424,1.06998 -0.12279,0.35775 -0.19314,0.73364 -0.29467,1.09258 -0.0292,0.2288 -0.10291,0.47403 -0.1267,0.71244 -0.004,0.16436 -0.0451,0.33349 -0.0152,0.50503 -0.009,0.3023 0.2965,0.40454 0.54165,0.32844 0.26289,-0.0582 0.50203,-0.19955 0.68528,-0.37328 0.15478,-0.10087 0.28082,-0.23775 0.43244,-0.33394 0.13738,-0.0968 0.25143,-0.22731 0.38205,-0.33171 0.2093,-0.15198 0.39779,-0.33811 0.62417,-0.47626 0.16717,-0.10496 0.34687,-0.25163 0.51244,-0.358 0.14781,-0.0785 0.26333,-0.18279 0.42405,-0.24878 0.17923,-0.1405 0.44979,-0.21762 0.64832,-0.32362 0.12235,-0.0704 0.24848,-0.11698 0.37099,-0.18629 0.14818,-0.0904 0.30158,-0.1542 0.44426,-0.25195 0.2501,-0.1039 0.48245,-0.24948 0.75167,-0.30582 0.27059,-0.10166 0.54022,-0.15637 0.82514,-0.26194 0.43239,-0.0814 0.86646,-0.18907 1.29661,-0.28549 0.24232,-0.0466 0.50355,-0.11844 0.7531,-0.22539 0.24462,-0.0571 0.48852,-0.2056 0.74631,-0.2153 0.18059,-0.0191 0.36425,-0.10328 0.52064,-0.16077 0.14,-0.0675 0.3184,-0.13071 0.45356,-0.21814 0.17797,-0.0901 0.3149,-0.19776 0.48838,-0.3008 0.17929,-0.13052 0.33378,-0.26389 0.50424,-0.41136 0.10662,-0.0898 0.26286,-0.1901 0.35582,-0.29667 0.12108,-0.1023 0.20372,-0.22495 0.3233,-0.31183 0.19754,-0.39725 0.32361,-0.81774 0.41112,-1.23029 0.0184,-0.19293 0.059,-0.41034 0.0562,-0.59999 0.0129,-0.16792 -0.009,-0.38715 -0.0402,-0.56713 -0.0652,-0.26592 -0.0769,-0.52422 -0.20714,-0.7718 -0.0959,-0.15401 -0.388,-0.38112 -0.0735,-0.40518 0.27746,-0.025 0.55069,0.1267 0.8131,0.18057 0.0644,0.0704 0.24215,0.0784 0.32217,0.17346 0.25426,0.10967 0.73548,0.31665 0.55818,0.66085 -0.1758,0.33042 -0.34982,0.682 -0.55217,0.9891 -0.14407,0.2769 -0.29754,0.57968 -0.40251,0.83982 -0.12643,0.2743 -0.27106,0.6563 -0.43688,0.92934 -0.18147,0.44353 -0.44834,0.82472 -0.55333,1.29122 -0.19207,0.3564 -0.33829,0.79733 -0.4623,1.17527 -0.0979,0.25847 -0.20857,0.62205 -0.31598,0.91318 -0.1144,0.27799 -0.21568,0.61524 -0.29661,0.86697 -0.10967,0.261 -0.2367,0.64334 -0.29398,0.84802 -0.12196,0.32424 -0.23681,0.65403 -0.30967,0.97433 -0.11453,0.39973 -0.22845,0.76841 -0.34895,1.17491 -0.0898,0.37558 -0.17477,0.72824 -0.29202,1.0958 -0.10209,0.33972 -0.16446,0.71479 -0.27319,1.0695 -0.0503,0.25571 -0.10425,0.4878 -0.17297,0.74433 -0.0306,0.18525 -0.0521,0.39865 -0.0615,0.58207 -0.006,0.17049 -0.03,0.3558 -0.081,0.52759 0.019,0.22567 -0.0687,0.3994 -0.14249,0.0251 -0.0392,-0.30691 -0.14574,-0.479 -0.25212,-0.79428 -0.0546,-0.1997 -0.19364,-0.38232 -0.25866,-0.57071 -0.0857,-0.38039 -0.40951,-0.57972 -0.46538,-0.98031 -0.12921,-0.26533 -0.23866,-0.54951 -0.43918,-0.78182 -0.14265,-0.23 -0.24437,-0.53011 -0.42763,-0.70351 -0.10517,-0.14369 -0.19228,-0.37279 -0.34538,-0.46615 -0.18513,-0.29745 -0.53888,-0.41217 -0.85841,-0.48858 -0.18305,-0.0129 -0.36543,-0.0734 -0.54653,-0.0224 -0.29855,0.0354 -0.62506,0.10998 -0.91976,0.25567 -0.22413,0.0938 -0.43268,0.19562 -0.62935,0.3241 -0.15628,0.0793 -0.29465,0.17173 -0.43091,0.26508 -0.11016,0.10834 -0.2574,0.18493 -0.34413,0.30881 -0.15023,0.10104 -0.22971,0.27886 -0.35767,0.38649 -0.22757,0.24346 -0.35701,0.55352 -0.51975,0.86205 -0.13994,0.28456 -0.35832,0.48383 -0.47038,0.78725 -0.11472,0.23362 -0.21209,0.52688 -0.39969,0.71236 -0.0223,0.28641 -0.3573,0.53554 -0.37045,0.87786 -0.1419,0.30728 -0.25194,0.62733 -0.22926,0.94651 -0.0424,0.31074 -0.10571,0.61591 -0.19662,0.9275 -0.13748,0.30347 -0.27118,-0.21421 -0.47691,-0.24343 -0.1584,-0.13087 -0.4096,-0.28329 -0.65208,-0.23565 -0.13569,0.0286 -0.28014,0.0552 -0.41996,0.10044 -0.21562,0.0532 -0.43996,0.11301 -0.58676,0.26861 -0.15024,0.11063 -0.31123,-0.12403 -0.47362,-0.1769 -0.24936,-0.0244 -0.47764,-0.025 -0.68485,-0.17967 -0.23145,-0.0596 -0.45873,-0.10546 -0.69367,-0.10777 -0.15907,0.008 -0.30671,0.007 -0.47336,-0.0261 -0.1562,0.0401 -0.36728,-0.0394 -0.52657,0.0513 -0.19655,0.0334 -0.39006,0.11302 -0.56734,0.17696 -0.26546,0.15408 -0.43552,0.40891 -0.52195,0.73534 -0.0531,0.26382 -0.0882,0.38443 -0.15684,0.62138 -0.0439,0.26588 -0.0983,0.52312 -0.14695,0.77663 0.004,0.1654 0.0171,0.33432 0.0383,0.51684 0.0345,0.22511 0.0497,0.42042 0.0835,0.63378 0.0563,0.22113 0.10349,0.45092 0.11919,0.68705 -0.0109,0.33398 0.10908,0.66101 0.23957,0.98252 0.0721,0.257 0.21361,0.60665 0.32683,0.90803 -0.045,0.2811 0.56024,0.88195 0.0947,0.97962 -0.19706,-0.0626 -0.39951,4e-5 -0.58602,-0.0343 -0.16521,0.0199 -0.32388,-1.8e-4 -0.48936,0.0559 -0.19655,0.0335 -0.37432,0.002 -0.57225,0.0701 -0.15536,0.0152 -0.30108,0.17513 -0.46316,0.16746 -0.16729,0.0129 -0.34043,0.068 -0.49698,0.0833 -0.16733,0.005 -0.32446,0.0149 -0.50231,0.0234 -0.19078,0.0164 -0.37582,0.0766 -0.56173,0.0907 -0.22727,0.054 -0.4674,0.0734 -0.68007,0.18735 -0.27005,0.0245 -0.51947,0.15042 -0.76938,0.23023 -0.14606,0.0583 -0.27048,0.18544 -0.41995,0.27396 -0.1723,0.0359 -0.30052,0.17707 -0.38759,0.32215 -0.0796,0.2057 -0.10018,0.40547 -0.0821,0.61382 -0.0228,0.14156 -0.0189,0.29992 -0.0461,0.44988 0.007,0.27084 0.0314,0.53643 0.0757,0.82912 0.14852,0.43273 0.34839,0.76385 0.6258,1.10196 0.10071,0.1283 0.1868,0.27077 0.31019,0.4 0.11339,0.1632 0.27437,0.29049 0.38577,0.48135 0.12241,0.16456 0.34074,0.29106 0.54281,0.39073 0.14938,0.0771 0.27547,0.23714 0.4365,0.3184 0.17808,0.1417 0.43085,0.2666 0.61723,0.365 0.34395,0.0894 0.62015,0.2681 0.93365,0.4028 0.17867,0.0894 0.45396,0.32439 0.25207,0.52377 -0.084,0.14743 -0.25867,0.18685 -0.36452,0.3191 -0.1585,0.12675 -0.36439,0.16798 -0.5355,-0.024 -0.21186,-0.12238 -0.42239,-0.0767 -0.65553,-0.0376 -0.218,0.11066 -0.51152,0.11463 -0.65966,0.33344 -0.15681,0.062 -0.23705,0.28299 -0.37243,0.37169 -0.13784,0.13939 -0.23266,0.32398 -0.18053,0.54052 0.1445,0.27714 0.16959,0.62124 -0.0867,0.82732 -0.16613,0.19309 -0.29719,0.4657 -0.47564,0.67428 -0.24215,0.16391 -0.28937,0.54881 -0.467,0.78093 -0.0983,0.17098 -0.17976,0.37042 -0.17401,0.57993 0.0273,0.185 -0.01,0.42222 0.11055,0.61354 0.0858,0.26093 0.24422,0.45268 0.40319,0.6558 0.1414,0.2074 0.31451,0.42353 0.5099,0.56637 0.30422,0.17545 0.65767,0.31357 0.9906,0.40733 0.33244,0.0915 0.64284,0.23027 0.97498,0.28712 0.24448,0.0286 0.46448,0.009 0.69773,0.0661 0.29272,0.0148 0.60078,0.0491 0.8907,0.091 0.15543,0.006 0.30786,-0.002 0.46128,-0.006 0.15499,-0.0245 0.32972,-0.0198 0.47386,-0.0421 0.20472,-0.0132 0.42598,-0.0672 0.63827,-0.0577 0.19271,-0.0497 0.43536,-0.0793 0.6081,0.0902 0.0545,0.23642 -0.20968,0.45126 -0.17142,0.68404 -0.0687,0.24659 -0.13714,0.46865 -0.13589,0.72397 -0.2426,0.23778 -0.15033,0.53928 -0.23907,0.80491 -0.1401,0.17511 -0.12658,0.37428 -0.15394,0.58591 -0.0403,0.25134 -0.0441,0.47601 -0.12661,0.72388 -0.0454,0.22394 -0.0892,0.42789 -0.0964,0.64686 -0.01,0.1507 0.0379,0.33391 0.0947,0.5014 -0.003,0.18255 0.0697,0.39209 0.11209,0.58279 0.16075,0.32068 0.21332,0.73409 0.54099,0.90233 0.13996,0.12021 0.25276,0.26789 0.42936,0.34788 0.24579,0.0832 0.39172,0.25293 0.60043,0.28877 0.12288,0.0841 0.32244,0.0823 0.491,0.10009 0.40121,0.0238 0.77119,-0.0948 1.14784,-0.23271 0.1134,-0.062 0.24452,-0.17038 0.40396,-0.21301 0.2951,-0.13558 0.62319,-0.2351 0.89226,-0.38839 0.14033,-0.10378 0.30135,-0.22739 0.43902,-0.34614 0.1296,-0.0858 0.29687,-0.14979 0.40931,-0.25107 0.12581,-0.0863 0.24731,-0.18025 0.37701,-0.23784 0.15898,-0.0736 0.27753,-0.252 0.45633,-0.19671 0.21938,0.14586 0.20992,0.47326 0.29752,0.71287 -0.0191,0.22574 0.0898,0.41731 0.20769,0.60206 0.1414,0.26589 0.12924,0.53939 0.0864,0.79933 8.1e-4,0.1954 -0.0577,0.39017 -0.21118,0.50162 -0.18813,0.12031 -0.38515,0.25978 -0.41455,0.51079 -0.0281,0.17228 -0.0523,0.35285 0.0306,0.52668 0.0714,0.17305 0.15241,0.34287 0.28373,0.49577 0.17526,0.19241 0.41768,0.29204 0.6557,0.31239 0.19659,0.073 0.44209,0.004 0.62294,0.1575 0.23489,0.0963 0.36023,0.25643 0.52043,0.44472 0.17727,0.24849 0.26125,0.57041 0.4518,0.79669 0.0267,0.15345 0.12255,0.23551 0.23778,0.36312 0.0851,0.15916 0.28889,0.25318 0.39495,0.39151 0.21229,0.0806 0.41319,0.28407 0.60538,0.32185 0.24748,0.0751 0.49442,0.17584 0.75177,0.18322 0.19976,0.0894 0.40005,-0.0546 0.59134,0.0185 0.1931,-0.0295 0.4405,-0.0441 0.61004,-0.18609 0.1374,-0.0403 0.26931,-0.10903 0.40549,-0.17677 0.17551,-0.0886 0.38845,-0.19563 0.50684,-0.34469 0.1556,-0.10051 0.26751,-0.24944 0.41153,-0.36234 0.18659,-0.26784 0.36893,-0.55207 0.50302,-0.87732 0.17953,-0.40337 0.41657,-0.74548 0.58766,-1.1588 0.042,-0.1997 0.14972,-0.36812 0.21853,-0.55546 0.0505,-0.21218 0.0822,-0.49753 0.15471,-0.73312 0.10835,-0.26558 0.12105,-0.55772 0.25708,-0.84364 0.16444,-0.32526 0.12679,-0.67684 0.26795,-1.00722 0.007,-0.20301 0.12349,-0.43701 0.13957,-0.66076 -0.009,-0.24926 0.20053,-0.34609 0.42257,-0.29184 0.30257,0.0558 0.5101,0.34165 0.7769,0.38593 0.32957,0.11516 0.56843,0.35805 0.89296,0.44791 0.21235,0.12207 0.41464,0.18157 0.65297,0.27228 0.23578,0.13491 0.52788,0.22748 0.76878,0.25378 0.24713,0.0665 0.47864,0.18689 0.73372,0.16178 0.24282,-0.0172 0.45375,-0.15426 0.70624,-0.17168 0.18364,-0.073 0.36798,-0.15618 0.52266,-0.26029 0.16617,-0.1207 0.33077,-0.31762 0.43838,-0.49865 0.0524,-0.22602 0.15021,-0.39756 0.23371,-0.67806 0.0172,-0.243 0.11642,-0.37976 0.15764,-0.57515 0.0447,-0.21849 0.0974,-0.46397 0.0903,-0.67147 0.0227,-0.16115 -0.0261,-0.32468 -0.027,-0.48432 -0.0296,-0.27255 -0.0325,-0.51544 -0.0584,-0.78397 -0.10057,-0.18521 -0.17155,-0.46105 -0.23634,-0.64151 -0.0293,-0.12501 -0.0766,-0.23465 -0.14213,-0.35386 -0.0421,-0.18633 -0.15475,-0.39695 -0.14855,-0.5757 -0.0635,-0.2064 -0.15168,-0.44301 -0.17541,-0.61266 -0.10117,-0.11964 -0.19287,-0.36383 -0.24797,-0.55561 -0.1167,-0.15354 0.14632,-0.40659 0.32796,-0.30915 0.20029,-0.0101 0.44562,-0.0554 0.57651,0.13901 0.0961,0.14244 0.15802,0.31959 0.32785,0.43778 0.18377,0.0552 0.34608,0.30783 0.5168,0.31204 0.17847,0.0655 0.35708,0.0865 0.53472,0.11567 0.0881,0.0759 0.30107,0.0625 0.44236,0.01 0.15744,-0.0446 0.28565,-0.16127 0.38367,-0.28923 0.12918,-0.20262 0.38444,-0.29859 0.4351,-0.57559 0.15056,-0.26694 0.47537,-0.29268 0.73875,-0.42055 0.25393,-0.10301 0.50777,-0.20213 0.73471,-0.34853 0.15484,-0.0546 0.27648,-0.18192 0.43133,-0.24572 0.1578,-0.0829 0.24501,-0.22574 0.3783,-0.34926 0.24041,-0.30366 0.39465,-0.73438 0.4596,-1.11474 0.0417,-0.27181 0.006,-0.53787 -0.0288,-0.805 -0.0359,-0.13242 -0.0651,-0.23206 -0.1361,-0.33529 -0.0886,-0.20696 -0.20648,-0.43048 -0.33571,-0.61782 -0.0714,-0.19181 -0.25485,-0.38345 -0.39834,-0.52086 -0.13936,-0.10997 -0.24886,-0.28329 -0.39909,-0.40036 -0.13456,-0.11051 -0.28959,-0.22463 -0.36331,-0.38387 -0.16472,-0.10997 -0.19224,-0.2392 -0.3065,-0.36066 -0.14377,-0.14608 -0.25993,-0.27301 -0.38878,-0.42916 -0.13421,-0.22792 -0.42421,-0.24164 -0.60559,-0.40932 -0.19016,-0.12734 -0.42401,-0.18552 -0.596,-0.28323 -0.19742,-0.0617 -0.57703,-0.1777 -0.4633,-0.47229 0.116,-0.1757 0.25592,-0.30991 0.40254,-0.4727 0.14044,-0.0688 0.24471,-0.2224 0.38548,-0.30106 0.12553,-0.1663 0.35372,-0.11903 0.51043,-0.24336 0.16389,-0.0946 0.29771,-0.256 0.48671,-0.28755 0.24608,-0.0818 0.22178,-0.45046 0.43949,-0.54701 0.11777,-0.15349 0.27519,-0.26082 0.38198,-0.44102 0.15073,-0.18851 0.29981,-0.37344 0.43024,-0.58682 0.1536,-0.16598 0.26353,-0.37448 0.4154,-0.54721 0.16209,-0.15837 0.25493,-0.39507 0.40897,-0.55081 0.14327,-0.19056 0.11119,-0.41043 0.11771,-0.60548 -0.0336,-0.20371 0.003,-0.44599 -0.11084,-0.60005 -0.0798,-0.20404 -0.24118,-0.33463 -0.36607,-0.49587 -0.1117,-0.12908 -0.28658,-0.23613 -0.39821,-0.36188 -0.17132,-0.11531 -0.36484,-0.2381 -0.53273,-0.35401 -0.25795,-0.0822 -0.50337,-0.16456 -0.78105,-0.19664 -0.27367,-0.0845 -0.57621,-0.17096 -0.78952,-0.24074 -0.24316,-0.0379 -0.4561,-0.11603 -0.71041,-0.12914 -0.19839,-0.0231 -0.42787,0.0208 -0.63402,-0.0691 -0.16406,-0.006 -0.31263,0.002 -0.47767,-0.0324 -0.17987,0.0276 -0.34369,0.0189 -0.53293,0.006 -0.18619,-0.0168 -0.35144,0.0367 -0.52991,0.004 -0.18457,-0.0425 -0.41812,-0.01 -0.61234,-0.0988 -0.10845,-0.36105 0.15132,-0.87823 0.41218,-1.09948 0.17135,-0.13705 0.44792,-0.0911 0.54735,-0.33082 0.15156,-0.21627 0.35513,-0.411 0.39464,-0.70555 0.006,-0.15545 0.006,-0.33269 0.0187,-0.51091 0.009,-0.24223 -0.16883,-0.37432 -0.31934,-0.51543 -0.24194,-0.0533 -0.32422,-0.29039 -0.26813,-0.49557 -0.0165,-0.13349 0.005,-0.31524 -0.006,-0.47066 -0.0286,-0.15818 0.0454,-0.31653 0.0178,-0.47969 0.004,-0.17485 -0.002,-0.35519 -0.0345,-0.51128 -0.0235,-0.28113 -0.13172,-0.5929 -0.26375,-0.87864 -0.14149,-0.19962 -0.28474,-0.40717 -0.43185,-0.56134 -0.19221,-0.18424 -0.43204,-0.32985 -0.72043,-0.39568 -0.19391,-0.0378 -0.37128,-0.10499 -0.56985,-0.0507 -0.27099,0.0164 -0.51003,0.12455 -0.77174,0.19429 -0.17041,0.052 -0.35742,0.0695 -0.52308,0.11085 -0.19643,0.0195 -0.3498,0.17559 -0.54882,0.22509 -0.19336,0.1453 -0.44798,0.2669 -0.68502,0.34236 -0.11252,0.0732 -0.26229,0.12267 -0.36102,0.23365 -0.24621,0.092 -0.49928,0.17178 -0.70128,0.33759 -0.14212,0.10056 -0.26509,0.2537 -0.42324,0.34677 -0.15069,0.19674 -0.3544,0.019 -0.48815,-0.0993 -0.21879,-0.19652 -0.25718,-0.43535 -0.13442,-0.71438 -0.008,-0.20624 0.0701,-0.4228 0.0892,-0.63243 0.0364,-0.23423 0.085,-0.46918 0.13484,-0.6977 0.0589,-0.26203 0.10184,-0.53725 0.14725,-0.80606 0.0814,-0.27191 0.11806,-0.54437 0.19844,-0.81918 0.0345,-0.21819 0.0978,-0.42782 0.11788,-0.6406 0.10629,-0.31195 0.17006,-0.63579 0.25241,-0.94324 0.0516,-0.32789 0.20443,-0.65736 0.28265,-0.9897 0.10471,-0.34256 0.20657,-0.69699 0.32501,-1.04451 0.17392,-0.42143 0.31607,-0.8512 0.44296,-1.2814 0.14247,-0.31241 0.27457,-0.68941 0.40273,-1.02355 0.0553,-0.2768 0.22906,-0.57528 0.29856,-0.79298 0.0685,-0.14822 0.13166,-0.22892 0.15308,-0.36568 0.23028,-0.38704 0.39902,-0.89184 0.59621,-1.32984 0.16304,-0.40392 0.38638,-0.78985 0.57014,-1.16372 0.10632,-0.28449 0.34004,-0.58165 0.45419,-0.89852 0.1941,-0.26614 0.31995,-0.61438 0.52944,-0.86645 0.11875,-0.29039 0.54331,-0.20461 0.75557,-0.0655 0.45805,0.21221 0.0783,0.64203 -0.0677,0.91837 -0.19044,0.23238 -0.27872,0.53268 -0.35278,0.8051 -0.0652,0.25981 -0.15295,0.55963 -0.19317,0.80425 -0.0174,0.18515 -0.0466,0.31825 -0.0492,0.50457 -0.008,0.13792 -0.006,0.28462 0.005,0.43099 0.0189,0.23075 0.008,0.44976 0.0527,0.695 0.0164,0.17976 0.0211,0.3315 0.0622,0.50059 0.006,0.17839 0.0706,0.40778 0.0752,0.59574 0.0272,0.15049 0.0542,0.29691 0.0563,0.45138 0.0499,0.19024 0.0625,0.37274 0.0706,0.53222 0.0586,0.2595 0.0804,0.49564 0.14475,0.75655 0.0227,0.27716 0.0871,0.55907 0.14587,0.81653 0.0823,0.2609 0.0939,0.49889 0.16981,0.75142 0.12583,0.27147 0.1121,0.55717 0.20716,0.82736 0.0399,0.28127 0.10104,0.57176 0.21222,0.86481 0.16218,0.49412 0.35533,1.01307 0.58954,1.47586 0.1884,0.2999 0.33152,0.64818 0.52692,0.9442 0.1263,0.18755 0.28667,0.41189 0.45896,0.56388 0.12562,0.16472 0.34156,0.29341 0.49453,0.47332 0.14488,0.0319 0.23774,0.21909 0.38628,0.27105 0.25685,0.15008 0.43794,0.32258 0.71711,0.4508 0.30454,0.14606 0.59674,0.24597 0.91257,0.28476 0.19912,0.0619 0.37955,0.0946 0.59332,0.0837 0.21102,8.1e-4 0.42502,0.0585 0.62411,0.0809 0.23003,0.0131 0.44769,0.13778 0.68948,0.063 0.20396,-0.0435 0.20321,-0.28156 0.18106,-0.43839 -0.0257,-0.23213 -0.0344,-0.46706 -0.0925,-0.70391 0.0274,-0.15164 -0.0121,-0.31153 0.008,-0.47597 0.002,-0.14978 0.006,-0.32411 0.0182,-0.45454 3.5e-4,-0.1937 0.0327,-0.38499 0.0207,-0.56968 0.0254,-0.17031 -0.002,-0.31191 0.0147,-0.46671 0.0178,-0.2483 0.0358,-0.47423 0.0506,-0.71381 -0.002,-0.1791 0.0231,-0.31817 0.0298,-0.49571 6.9e-4,-0.20461 0.0391,-0.43819 0.0231,-0.63452 0.034,-0.2281 0.0343,-0.44811 0.0862,-0.68841 -0.0292,-0.12204 0.0479,-0.30621 0.022,-0.42448 0.0336,-0.20402 0.0587,-0.42576 0.0578,-0.61109 0.0389,-0.20495 0.078,-0.43831 0.0423,-0.63542 0.0583,-0.23845 0.0312,-0.50297 0.0575,-0.73237 0.003,-0.21496 0.008,-0.42893 0.009,-0.64278 0.0186,-0.15329 0.002,-0.33385 0.006,-0.49032 -0.009,-0.21858 -0.0279,-0.44328 -0.0257,-0.67863 -0.008,-0.18416 -0.0351,-0.35078 -0.0245,-0.55487 -0.055,-0.16028 -0.0442,-0.31966 -0.0731,-0.49652 -0.0269,-0.28326 -0.0798,-0.58918 -0.17916,-0.87048 -0.0212,-0.28407 -0.14502,-0.58061 -0.1797,-0.87073 -0.0965,-0.34987 -0.16081,-0.68631 -0.35597,-0.99226 -0.13111,-0.3029 -0.32272,-0.50654 -0.47984,-0.7858 -0.14792,-0.22011 -0.34341,-0.41079 -0.50811,-0.61551 -0.11795,-0.0967 -0.2462,-0.26185 -0.37548,-0.36261 -0.24542,-0.20774 -0.47747,-0.46331 -0.77356,-0.61578 -0.20643,-0.15039 -0.50411,-0.30169 -0.76927,-0.38368 -0.2355,-0.0788 -0.46536,-0.11008 -0.70162,-0.16173 -0.21081,0.0274 -0.47413,-0.006 -0.70185,0.0783 -0.2301,0.0589 -0.41521,0.1684 -0.56318,0.34311 -0.12892,0.0972 -0.41901,0.48819 -0.10772,0.56042 0.20927,-0.0145 0.27084,-0.2091 0.38629,-0.33766 0.0995,-0.14657 0.26204,-0.24994 0.45954,-0.30191 0.23712,-0.0654 0.46383,-0.0428 0.67419,0.0179 0.33132,0.0553 0.61295,0.28345 0.89798,0.41728 0.14831,0.10062 0.35195,0.23581 0.53569,0.32422 0.18549,0.15944 0.41748,0.27798 0.58877,0.47203 0.20425,0.17946 0.34034,0.33789 0.51579,0.55005 0.1833,0.21293 0.30763,0.43486 0.47632,0.65804 0.2449,0.46949 0.40245,0.97308 0.56573,1.45874 0.013,0.27414 0.13493,0.56496 0.17629,0.85114 0.0424,0.23524 0.0849,0.43058 0.10335,0.64571 0.0262,0.15963 0.0589,0.36198 0.0728,0.53141 0.0246,0.21234 0.0198,0.43981 0.0397,0.65138 0.006,0.16768 0.022,0.38203 -5.1e-4,0.53219 -0.003,0.23156 0.029,0.46187 -0.004,0.69436 0.0182,0.17515 -0.055,0.34535 -0.0162,0.51418 -0.0469,0.12393 -0.005,0.32429 -0.0345,0.44419 -0.005,0.2263 -0.0432,0.41877 -0.0529,0.65654 -0.0337,0.20001 -0.0358,0.41081 -0.0708,0.59137 -0.0173,0.19086 -0.009,0.33281 -0.0571,0.52753 0.0316,0.13379 -0.0337,0.2733 -0.01,0.41428 -0.0308,0.14989 -0.0618,0.31856 -0.0349,0.47139 -0.0593,0.15749 -0.005,0.30146 -0.0609,0.45119 0.008,0.15284 -0.0152,0.27833 -0.0115,0.43352 -0.0274,0.27491 -0.0367,0.56394 -0.0664,0.85296 -0.0115,0.17014 -0.0357,0.36839 -0.0336,0.5147 -0.034,0.22094 -0.0278,0.43662 -0.0341,0.65137 -5.4e-4,0.33221 4e-4,0.61095 0.0538,0.93105 -0.007,0.2164 -0.0511,0.43036 -0.28368,0.50202 -0.21967,0.0383 -0.40199,-0.011 -0.61491,0.002 -0.28804,-0.065 -0.5448,-0.13145 -0.82243,-0.19983 -0.28423,-0.0961 -0.5518,-0.26296 -0.81411,-0.3966 -0.23877,-0.11934 -0.48132,-0.28213 -0.71099,-0.43828 -0.15272,-0.15193 -0.33955,-0.21282 -0.50287,-0.36314 -0.18998,-0.0888 -0.26305,-0.26647 -0.41344,-0.39356 -0.14688,-0.21473 -0.31584,-0.46697 -0.45913,-0.66832 -0.22049,-0.38796 -0.38029,-0.77527 -0.54365,-1.17685 -0.11161,-0.27753 -0.24635,-0.62618 -0.33129,-0.95772 -0.0767,-0.23609 -0.10242,-0.43476 -0.17238,-0.69265 -0.068,-0.25671 -0.0882,-0.52712 -0.18958,-0.79569 -0.0605,-0.27107 -0.12637,-0.53608 -0.18937,-0.81139 -0.0291,-0.25599 -0.12104,-0.53202 -0.1426,-0.79307 -0.0343,-0.2268 -0.0824,-0.47552 -0.12875,-0.69464 -0.0274,-0.1779 7e-5,-0.3135 -0.0637,-0.4761 0.002,-0.17776 -0.0583,-0.36601 -0.0642,-0.53565 -0.0368,-0.17725 -0.065,-0.38652 -0.0794,-0.56047 -0.0246,-0.19391 -0.043,-0.36587 -0.0747,-0.55712 0.007,-0.22605 -0.072,-0.44869 -0.0336,-0.66418 0.0181,-0.157 0.0187,-0.30604 0.0436,-0.46664 0.006,-0.31053 0.12164,-0.6173 0.22172,-0.92194 0.14706,-0.33476 0.32385,-0.66939 0.53155,-0.94012 0.16478,-0.19256 0.16589,-0.44186 0.18837,-0.67579 -0.002,-0.21573 -0.0531,-0.46893 -0.26317,-0.56413 -0.20641,-0.0939 -0.47197,-0.33664 -0.0566,-0.21448 0.21614,0.0901 0.35159,0.25097 0.51865,0.37727 0.15132,0.10689 0.28834,0.269 0.40005,0.40151 0.26872,0.19728 0.32847,0.56917 0.0885,0.8495 -0.25258,0.30027 -0.33617,0.74504 -0.49734,1.11518 -0.0513,0.26922 -0.1858,0.59213 -0.21253,0.88057 -0.0153,0.18705 -0.0813,0.40228 -0.0919,0.58743 -0.0332,0.16675 -0.0224,0.35771 -0.035,0.52053 -0.0362,0.16937 0.0538,0.53516 0.27157,0.36064 0.0117,-0.13084 0.006,-0.27452 0.006,-0.41625 0.006,-0.23564 0.10147,-0.46945 0.12427,-0.72604 0.10168,-0.30605 0.11789,-0.62456 0.24928,-0.9349 0.0461,-0.22116 0.19822,-0.56298 0.32063,-0.82857 0.10959,-0.0968 0.1886,-0.48083 0.41423,-0.3167 0.28602,0.19738 0.31845,0.72314 0.50501,1.03761 0.0849,0.28408 0.21586,0.59692 -0.006,0.87627 -0.20183,0.27638 -0.31832,0.62902 -0.41643,0.9519 -0.10777,0.32951 -0.1945,0.66438 -0.26665,0.99071 -0.0504,0.23212 -0.11893,0.47805 -0.1241,0.70432 -0.0324,0.13068 -0.0333,0.44889 0.17332,0.42648 0.22195,-0.0955 0.16164,-0.4099 0.21402,-0.5963 0.0606,-0.21678 0.0573,-0.43455 0.12782,-0.65569 0.0834,-0.36721 0.22958,-0.74832 0.39709,-1.10146 0.0471,-0.2432 0.35389,-0.23125 0.38596,-0.0229 0.0818,0.26435 0.10459,0.55227 0.20396,0.8157 0.0148,0.22796 0.0975,0.48517 0.1141,0.71667 0.0856,0.24375 0.10959,0.48731 0.15542,0.74573 0.0583,0.24332 -0.0128,0.50125 -0.14794,0.73489 -0.18571,0.25142 -0.35355,0.56638 -0.40436,0.88601 -0.085,0.24071 -0.12746,0.50831 -0.167,0.75542 -0.0575,0.22382 -0.0697,0.4214 -0.11053,0.63841 -0.0115,0.17721 -0.0607,0.38954 0.10238,0.50527 0.26957,-0.0173 0.2016,-0.37984 0.2641,-0.57158 0.0366,-0.24901 0.083,-0.46189 0.12723,-0.70337 0.0881,-0.30362 0.15625,-0.7175 0.41835,-0.93357 0.27447,0.0533 0.20724,0.34661 0.25034,0.53198 0.0907,0.27376 0.0945,0.54931 0.24113,0.80782 0.17633,0.008 0.0252,-0.26959 0.0729,-0.39309 -0.0431,-0.30998 -0.06,-0.61679 -0.13452,-0.94184 -0.0124,-0.18876 -0.0766,-0.40035 -0.0617,-0.57124 -0.011,-0.21089 -0.12127,-0.40345 -0.11519,-0.60507 -0.0504,-0.2586 -0.0775,-0.48451 -0.14144,-0.73064 -0.0631,-0.27243 -0.11305,-0.55574 -0.15734,-0.80355 -0.0784,-0.29631 -0.0966,-0.57985 -0.19606,-0.87433 -0.0995,-0.34768 -0.14302,-0.69635 -0.28465,-1.03212 -0.0772,-0.48864 0.38347,-0.10906 0.54213,-0.006 0.14802,0.16891 0.29815,0.29229 0.47399,0.45363 0.15165,0.10352 0.26847,0.29584 0.45162,0.38153 0.18325,0.13766 0.33215,0.34264 0.48085,0.46509 0.25112,0.17061 0.27969,-0.16488 0.13907,-0.30956 -0.0954,-0.14918 -0.28178,-0.25339 -0.39509,-0.41156 -0.1115,-0.0951 -0.28762,-0.24297 -0.40609,-0.37048 -0.11617,-0.11844 -0.27825,-0.24723 -0.41817,-0.35175 -0.22395,-0.23323 -0.47225,-0.46859 -0.75773,-0.64298 -0.50485,-0.0392 -0.56,-0.57177 -0.75123,-0.94556 -0.17166,-0.31751 -0.33411,-0.64525 -0.5595,-0.92333 -0.14123,-0.10465 -0.2151,-0.32292 -0.35821,-0.43591 -0.16386,-0.12284 -0.26041,-0.39299 -0.4717,-0.4751 -0.19194,-0.1688 -0.45912,-0.20205 -0.68017,-0.28549 -0.29717,-0.0342 -0.41,-0.35187 -0.196,-0.56895 0.18052,-0.34557 0.36906,-0.68775 0.53727,-1.04172 0.16753,-0.22779 0.28007,-0.51111 0.46575,-0.71019 0.11203,-0.22012 0.26924,-0.38803 0.41352,-0.57499 0.1167,-0.17822 0.2644,-0.29282 0.37325,-0.46577 0.12699,-0.11796 0.20418,-0.26326 0.33577,-0.3583 0.1278,-0.15713 0.26394,-0.27049 0.41846,-0.39046 0.13192,-0.0738 0.23117,-0.20629 0.36794,-0.2798 0.12987,-0.11108 0.27447,-0.19235 0.38322,-0.32692 0.12261,-0.0788 0.2216,-0.20393 0.32834,-0.32284 0.10772,-0.0587 0.28617,-0.25485 0.38298,-0.0683 0.0901,0.14915 -0.0138,0.38756 0.009,0.55521 -0.0116,0.22919 -0.023,0.40331 0.10082,0.63079 0.11314,0.16553 0.34009,0.10538 0.49782,0.0432 0.14466,-0.1305 0.26459,-0.25599 0.36583,-0.40586 0.14318,-0.17848 0.20512,-0.74648 0.49239,-0.63475 0.1553,0.14838 0.0947,0.41081 0.11981,0.58996 0.0204,0.18997 -0.0314,0.41045 -0.0196,0.62717 -0.01,0.18829 -0.0101,0.38127 0.0173,0.59379 -0.0102,0.15144 0.0343,0.34843 0.0559,0.51143 0.007,0.34335 0.46016,0.49233 0.71123,0.37597 0.24006,-0.0133 0.46277,-0.14619 0.66468,-0.24657 0.18495,-0.0956 0.33839,-0.18923 0.50011,-0.28299 0.12573,-0.11812 0.38568,-0.0383 0.40478,-0.24442 -0.0423,-0.23154 -0.35542,-0.17161 -0.52833,-0.0834 -0.23788,0.0723 -0.40953,0.23885 -0.63497,0.33744 -0.18155,0.075 -0.3094,0.21787 -0.51119,0.23911 -0.24445,0.009 -0.36259,-0.32799 -0.34408,-0.5479 -0.0583,-0.15783 -0.0237,-0.38482 0.21091,-0.33709 0.15298,-0.0753 0.4271,0.0684 0.50486,-0.12562 -0.0439,-0.24118 -0.36663,-0.21267 -0.54132,-0.18971 -0.21081,0.0877 -0.22551,-0.0296 -0.21015,-0.21354 -0.003,-0.1716 0.014,-0.35007 0.022,-0.50858 -0.006,-0.19814 0.0193,-0.3985 -0.0524,-0.58401 0.024,-0.29816 -0.31824,-0.52062 -0.58565,-0.38907 -0.19373,0.0877 -0.33892,0.22862 -0.43003,0.42727 -0.0978,0.16439 -0.1407,0.53659 -0.37235,0.56696 -0.20727,-0.1974 -0.008,-0.50217 -0.002,-0.72087 0.0358,-0.21277 0.15071,-0.47153 -0.0221,-0.62903 -0.0546,-0.13677 -0.2753,-0.025 -0.39607,0.0257 -0.17673,0.12118 -0.34276,0.22171 -0.50802,0.34599 -0.16469,0.12124 -0.26692,0.26495 -0.43975,0.38249 -0.17322,0.30058 -0.51065,0.3698 -0.72047,0.62786 -0.13613,0.0543 -0.25382,0.23818 -0.3679,0.31522 -0.16669,0.15571 -0.32062,0.24344 -0.42629,0.46734 -0.15191,0.0935 -0.26935,0.24369 -0.36594,0.4029 -0.20988,0.11581 -0.30786,0.35117 -0.43668,0.57089 -0.13412,0.13677 -0.25182,0.31811 -0.38131,0.45108 -0.17494,0.25952 -0.30033,0.5898 -0.49052,0.83577 -0.17585,0.4167 -0.38423,0.8197 -0.60489,1.19397 -0.18879,0.51706 -0.52242,0.92692 -0.72697,1.42877 -0.18413,0.25456 -0.3363,0.53726 -0.50466,0.80173 -0.0453,0.29031 -0.2457,0.59611 -0.40628,0.89161 -0.2362,0.39592 -0.35763,0.87548 -0.59952,1.25973 -0.0431,0.19031 -0.12914,0.31299 -0.15611,0.45628 -0.10845,0.17813 -0.15193,0.33196 -0.23093,0.509 -0.063,0.21443 -0.17792,0.5106 -0.26453,0.74709 -0.0966,0.30574 -0.22884,0.64318 -0.37444,0.88941 -0.0982,0.32029 -0.17224,0.63341 -0.29077,0.96057 -0.15497,0.41972 -0.33683,0.83462 -0.43061,1.26478 -0.0678,0.35565 -0.25082,0.68873 -0.34252,1.03358 -0.0587,0.26222 -0.14893,0.53676 -0.19083,0.80129 -0.12418,0.34403 -0.19297,0.68181 -0.26343,1.02528 -0.0772,0.36441 -0.194,0.71977 -0.25954,1.07525 -0.0466,0.25517 -0.0721,0.5131 -0.15056,0.76478 0.0174,0.24003 -0.1303,0.52857 -0.16333,0.75871 0.005,0.37783 -0.15539,0.41463 -0.20933,0.0298 0.009,-0.1844 0.0454,-0.42313 0.0654,-0.5897 0.0101,-0.2374 0.0678,-0.48535 0.0885,-0.70716 0.0232,-0.1727 0.076,-0.33226 0.0827,-0.50224 0.0546,-0.24641 0.10613,-0.49056 0.15455,-0.7371 0.0528,-0.26141 0.11071,-0.52185 0.17658,-0.78413 0.0843,-0.35011 0.16235,-0.71421 0.28204,-1.06689 0.0873,-0.30791 0.16031,-0.61608 0.24825,-0.92144 0.0705,-0.28864 0.17262,-0.54312 0.25038,-0.83261 0.12681,-0.3607 0.19066,-0.73724 0.36054,-1.10435 0.0445,-0.28632 0.19946,-0.57425 0.29784,-0.87137 0.0978,-0.25818 0.21268,-0.62643 0.32729,-0.83334 0.0538,-0.27595 0.22108,-0.58296 0.29101,-0.84892 0.0935,-0.22433 0.12757,-0.38855 0.21152,-0.54918 0.14284,-0.2588 0.12982,-0.43361 0.29183,-0.69317 0.15249,-0.33247 0.25645,-0.67362 0.44383,-1.00307 0.18228,-0.36371 0.37793,-0.69553 0.54367,-1.07222 0.19023,-0.3383 0.35447,-0.69037 0.55513,-1.01284 0.17722,-0.27892 0.3336,-0.5894 0.5262,-0.85289 0.1706,-0.34263 0.37348,-0.66455 0.57943,-0.96849 0.14127,-0.28291 0.33748,-0.46725 0.47127,-0.74774 0.16139,-0.19534 0.28693,-0.43615 0.43782,-0.64385 0.1618,-0.2148 0.28694,-0.46041 0.46286,-0.64828 0.0989,-0.17712 0.2391,-0.32337 0.36507,-0.46492 0.13293,-0.18389 0.2707,-0.35861 0.39537,-0.56659 0.1112,-0.11857 0.20127,-0.27698 0.32595,-0.37812 0.0926,-0.15135 0.21408,-0.27406 0.33721,-0.39292 0.12185,-0.13116 0.27806,-0.22971 0.38425,-0.3753 0.12996,-0.0625 0.23883,-0.20588 0.35479,-0.28324 0.13589,-0.1381 0.2889,-0.21729 0.42078,-0.35023 0.1776,-0.10095 0.3556,-0.335 0.59393,-0.23001 0.13136,-0.0359 0.39322,-0.0198 0.3663,-0.21217 -0.0215,-0.28411 -0.50306,-0.28552 -0.71593,-0.34808 -0.25558,-0.0218 -0.51202,0.0931 -0.64244,0.29361 -0.12952,0.0952 -0.22999,0.2492 -0.34348,0.38424 -0.16378,0.29169 -0.42436,-0.04 -0.40907,-0.27201 -0.009,-0.15816 -0.0201,-0.37974 -0.0453,-0.54821 -0.007,-0.19871 0.006,-0.40141 5e-5,-0.58843 0.002,-0.2233 -0.0136,-0.41905 -0.0697,-0.6198 -0.10181,-0.10337 -0.32556,-0.14678 -0.44912,-0.0208 -0.13416,0.1113 -0.28156,0.35394 -0.49657,0.17968 -0.13321,-0.22532 -0.1813,-0.48687 -0.23179,-0.71733 0.0179,-0.0881 -0.11262,-0.21163 -0.21308,-0.23539 z m -6.22616,6.33275 c 0.18186,0.0818 0.41136,0.14105 0.55253,0.26362 0.31782,0.12031 0.47005,0.39102 0.69352,0.61519 0.14083,0.20399 0.48837,0.0481 0.54092,0.29725 -0.17513,0.0834 -0.39734,-0.0261 -0.59479,0.0229 -0.17667,-0.0391 -0.31481,0.0274 -0.4923,0.0343 -0.32698,0.0266 -0.66117,0.11793 -0.97082,0.18646 -0.18912,0.0522 -0.40971,0.11223 -0.57718,0.0353 -0.25206,-0.14281 -0.46713,-0.30071 -0.71188,-0.44895 -0.17759,-0.15393 -0.39615,-0.28226 -0.61631,-0.38992 -0.18995,-0.0897 -0.43525,-0.19026 -0.60345,-0.0395 -0.0134,0.29763 0.3148,0.33918 0.51173,0.49269 0.18031,0.0821 0.3245,0.184 0.49673,0.29389 0.17185,0.11054 0.38466,0.31522 0.16664,0.50887 -0.11349,0.10048 -0.25593,0.14744 -0.38016,0.21737 -0.22012,0.13604 -0.44333,0.30153 -0.70577,0.37533 -0.31395,-0.0506 -0.60235,-0.25271 -0.86628,-0.41138 -0.2946,-0.17219 -0.63059,-0.32214 -0.95782,-0.33627 -0.14412,0.0132 -0.42836,0.002 -0.39636,0.17954 0.14719,0.27014 0.55673,0.1624 0.77822,0.39217 0.2527,0.12959 0.50568,0.2269 0.70641,0.41712 0.21147,0.0987 0.0156,0.42174 -0.14017,0.50725 -0.17257,0.14575 -0.36252,0.30916 -0.52195,0.46446 -0.13405,0.10678 -0.35664,0.18769 -0.50096,0.0243 -0.21804,-0.11614 -0.4112,-0.22942 -0.65386,-0.30313 -0.23327,0.006 -0.52926,-0.0565 -0.76627,0.0644 -0.16411,4.6e-4 -0.29576,0.13028 -0.43222,0.17939 -0.20745,0.062 -0.2148,0.40102 0.0637,0.34219 0.21921,-0.0923 0.4049,-0.28461 0.66186,-0.27365 0.27347,0.0322 0.51411,0.23999 0.76394,0.38029 0.21238,0.17032 -0.0264,0.51564 -0.17424,0.63904 -0.0869,0.153 -0.21748,0.24089 -0.3382,0.37252 -0.12546,0.12289 -0.23659,0.25819 -0.35582,0.38299 -0.11193,0.0837 -0.20114,0.21965 -0.33687,0.28722 -0.15527,0.18515 -0.34625,0.27725 -0.53672,0.42589 -0.10059,0.0698 -0.36145,0.22449 -0.21967,0.37286 0.27071,0.10523 0.53182,-0.1349 0.74021,-0.25672 0.11475,-0.0904 0.23213,-0.1984 0.35102,-0.27599 0.31871,-0.14662 0.17522,0.35504 0.0722,0.49477 -0.12137,0.18408 -0.13734,0.37843 -0.27213,0.64847 -0.0777,0.15328 -0.11272,0.54727 0.15704,0.44025 0.21079,-0.0723 0.17266,-0.28219 0.27404,-0.45874 0.15428,-0.42076 0.33056,-0.82157 0.54484,-1.22135 0.20948,-0.34159 0.39276,-0.7213 0.50921,-1.11738 0.0926,-0.25214 0.25741,-0.40591 0.42644,-0.58881 0.12675,-0.0981 0.2289,-0.23471 0.34685,-0.32289 0.20896,-0.31581 0.36352,0.15567 0.23857,0.27998 -0.15541,0.37539 -0.25774,0.68729 -0.37562,1.06316 -0.0128,0.29686 -0.15903,0.58588 -0.18178,0.88283 -0.0326,0.24359 -0.20944,0.50373 -0.2627,0.71613 -0.059,0.2182 0.26074,0.30684 0.35737,0.11633 0.1566,-0.27546 0.19468,-0.61405 0.27612,-0.92579 0.0773,-0.27953 0.11602,-0.54906 0.19138,-0.83381 0.10232,-0.36857 0.27008,-0.75507 0.33748,-1.13013 0.12291,-0.22265 0.0132,-0.41069 0.0951,-0.63311 0.0323,-0.17392 0.2164,-0.28449 0.3435,-0.41135 0.257,-0.18721 0.46872,-0.34294 0.71276,-0.52564 0.13407,-0.095 0.29494,-0.18091 0.45145,-0.26818 0.15928,-0.11185 0.34728,-0.17566 0.52272,-0.2725 0.30357,-0.10481 0.61434,-0.18856 0.9184,-0.27932 0.2065,-0.0274 0.43658,-0.0763 0.64992,-0.12267 0.33033,-0.10224 0.67385,-0.11079 1.02221,-0.10526 0.35499,0.11848 0.29327,0.0857 0.18083,0.33733 0.0758,0.2689 0.22024,0.53673 0.258,0.76537 0.0579,0.20189 0.0918,0.40576 0.091,0.60569 0.0125,0.21557 -0.0517,0.44268 -0.0948,0.66528 -0.10592,0.42944 -0.31951,0.86728 -0.56264,1.20684 -0.10112,0.16515 -0.24897,0.25616 -0.38029,0.39795 -0.12273,0.0908 -0.26138,0.16793 -0.37094,0.30034 -0.12134,0.0871 -0.24733,0.17274 -0.36308,0.27582 -0.11955,0.0622 -0.22387,0.15947 -0.36937,0.20194 -0.23319,0.14668 -0.53169,0.20411 -0.77756,0.30057 -0.38519,0.0997 -0.75206,0.23541 -1.15372,0.31426 -0.32362,0.0866 -0.626,0.17163 -0.95494,0.24196 -0.42263,0.0651 -0.81646,0.20401 -1.23898,0.28231 -0.27496,0.11659 -0.55448,0.22772 -0.81907,0.36364 -0.20347,0.0811 -0.37603,0.1913 -0.57591,0.28102 -0.24076,0.13676 -0.46416,0.27214 -0.73188,0.36542 -0.2279,0.0893 -0.43938,0.17602 -0.63556,0.30765 -0.14412,0.0883 -0.29118,0.18456 -0.43292,0.27423 -0.16662,0.13157 -0.34704,0.21382 -0.51684,0.34046 -0.1452,0.09 -0.27613,0.21729 -0.42197,0.30733 -0.15192,0.13884 -0.31518,0.26608 -0.46533,0.40603 -0.11897,0.0871 -0.23076,0.18757 -0.34881,0.27508 -0.0909,0.0889 -0.2909,0.22529 -0.39823,0.1231 -0.16588,-0.0563 -0.11475,-0.25139 -0.12537,-0.39627 0.0709,-0.23462 0.0736,-0.46943 0.14885,-0.70066 0.0591,-0.31621 0.13432,-0.5889 0.22175,-0.88992 0.10358,-0.40604 0.25156,-0.80136 0.37874,-1.19146 0.14341,-0.35518 0.22594,-0.78123 0.45565,-1.08438 0.0731,-0.31415 0.32563,-0.65824 0.4493,-0.98963 0.17581,-0.32692 0.34834,-0.63418 0.51356,-0.96839 0.20329,-0.34912 0.40078,-0.70223 0.59685,-1.04692 0.14549,-0.20788 0.28051,-0.40329 0.41894,-0.61586 0.14507,-0.20687 0.29459,-0.42054 0.43166,-0.63614 0.13883,-0.15357 0.24024,-0.36249 0.3952,-0.50533 0.11307,-0.13379 0.22906,-0.25708 0.36428,-0.3716 0.19474,-0.17134 0.4258,-0.31819 0.6114,-0.46458 0.20457,-0.19466 0.49768,-0.3008 0.77934,-0.4071 0.24484,-0.11177 0.50411,-0.2036 0.74871,-0.29704 0.33352,-0.13429 0.69664,-0.22407 1.049,-0.22397 0.15999,-0.0395 0.3364,-0.0135 0.48832,-0.04 0.23155,0.0604 0.36786,0.0818 0.55943,0.17029 0.28569,0.0994 0.56592,0.14561 0.85542,0.19947 0.0694,0.0493 0.15084,0.0471 0.20992,0.0558 z m 0.58819,1.90226 c -0.34931,0.0374 -0.30052,0.54557 -0.43557,0.77882 -0.10547,0.3166 -0.14961,0.62871 -0.23635,0.93211 -0.0395,0.34086 -0.19513,0.65235 -0.29469,0.98639 -0.0584,0.15321 0.15377,0.24326 0.28787,0.14055 0.19842,-0.11917 0.1999,-0.42116 0.26617,-0.63273 0.0815,-0.32521 0.12148,-0.67797 0.21231,-1.01569 0.0535,-0.32424 0.21029,-0.64841 0.27111,-0.98244 -0.009,-0.0592 -0.002,-0.17914 -0.0708,-0.20689 z m -2.05741,1.11168 c -0.2618,0.0708 -0.19585,0.60495 -0.3274,0.84817 -0.0362,0.29369 -0.16385,0.59033 -0.18868,0.88741 -0.10459,0.2054 -0.0334,0.4221 -0.13791,0.63755 -0.008,0.29744 -0.11877,0.5961 -0.23993,0.89321 -0.0873,0.42725 0.50762,0.22465 0.43915,-0.13407 0.0684,-0.25235 0.11164,-0.51743 0.12794,-0.7558 0.0332,-0.23518 0.0973,-0.47898 0.13176,-0.73349 0.0344,-0.23115 0.0834,-0.4317 0.12749,-0.65089 0.0517,-0.2269 0.10513,-0.45604 0.0878,-0.68082 0.005,-0.0868 0.0521,-0.23825 -0.0198,-0.31121 z m -2.72749,9.33953 c 0.22276,0.12014 0.4294,0.26765 0.60988,0.43988 0.14809,0.14859 0.31801,0.32637 0.38994,0.56793 0.13112,0.31996 0.34508,0.59641 0.50202,0.87459 0.10019,0.26735 0.2431,0.50431 0.34173,0.76104 0.0426,0.36259 0.29944,0.67171 0.44661,0.9902 0.15033,0.32421 0.31761,0.67188 0.33837,1.02019 0.18815,0.34296 0.34617,0.70743 0.44337,1.0911 0.0232,0.1727 0.0702,0.3546 0.15952,0.487 0.12546,0.24458 0.22235,0.46062 0.27459,0.72748 0.0648,0.24394 -0.20528,0.37154 -0.37086,0.47891 -0.12745,0.0807 -0.26296,0.1327 -0.37885,0.21081 -0.14908,0.17023 -0.26506,0.38159 -0.40694,0.5585 -0.11249,0.1757 -0.22689,0.32213 -0.39453,0.44287 -0.1115,0.13195 -0.26292,0.24181 -0.35421,0.39688 -0.13954,0.1426 -0.29864,0.30221 -0.42521,0.47846 -0.13967,0.15642 -0.28209,0.33311 -0.41156,0.5095 -0.13456,0.15218 -0.26254,0.29854 -0.392,0.46718 -0.13513,0.0781 -0.22757,0.20205 -0.33245,0.31401 -0.12058,0.0932 -0.24712,0.19929 -0.34728,0.3239 -0.11668,0.2605 -0.41409,0.2173 -0.58571,0.0121 -0.15406,-0.13938 -0.39167,-0.23267 -0.51975,-0.41771 -0.0988,-0.18773 -0.26697,-0.37896 -0.4586,-0.47742 -0.16639,-0.14239 -0.41148,-0.23743 -0.49729,-0.48624 -0.0892,-0.15741 -0.25515,-0.27528 -0.36525,-0.40574 -0.16987,-0.12722 -0.37638,-0.25363 -0.5272,-0.3745 -0.20212,-0.11496 -0.41789,-0.29067 -0.57021,-0.44352 -0.13468,-0.16182 -0.23922,-0.39262 -0.46103,-0.45819 -0.14232,-0.1783 -0.34658,-0.25178 -0.4972,-0.42061 -0.17039,-0.12944 -0.41569,-0.48291 -0.33066,-0.74078 0.0157,-0.22717 0.088,-0.45516 0.10796,-0.6872 0.0379,-0.21894 0.10279,-0.46353 0.11129,-0.68165 0.0772,-0.20657 0.0408,-0.42108 0.0673,-0.64088 0.0715,-0.16155 0.127,-0.51598 0.23432,-0.69778 0.14862,-0.38756 0.37237,-0.72205 0.57456,-1.05922 0.13071,-0.29383 0.30621,-0.56134 0.46357,-0.85827 0.21367,-0.20261 0.27001,-0.57191 0.47457,-0.79442 0.13531,-0.16581 0.3022,-0.34032 0.41356,-0.54651 0.13798,-0.0738 0.20858,-0.2304 0.34355,-0.31398 0.10911,-0.0984 0.25622,-0.15158 0.3745,-0.21582 0.1171,-0.0893 0.22954,-0.17879 0.3731,-0.23028 0.11916,-0.11122 0.25888,-0.11197 0.40637,-0.20598 0.24643,-0.0765 0.4886,-0.12427 0.72867,-0.10119 0.17991,0.007 0.26389,0.0512 0.44738,0.10531 z m 8.88987,5.38115 c 0.11387,0.1096 0.29322,0.12959 0.37168,0.20649 0.1767,0.11011 0.27087,0.22597 0.40195,0.34283 0.12444,0.16251 0.19718,0.42549 0.24433,0.59888 0.0605,0.2703 0.13894,0.55953 0.14501,0.82117 0.0674,0.18949 -0.0693,0.37278 -0.033,0.5709 -0.008,0.2239 -0.19041,0.39633 -0.40654,0.25726 -0.17665,-0.0403 -0.45718,0.0302 -0.52067,0.24296 -0.15471,0.26411 -0.42916,0.44972 -0.46815,0.78936 -0.0296,0.21835 -0.0945,0.47264 0.0487,0.67079 0.10029,0.3815 0.32114,0.63312 0.68474,0.77408 0.14176,0.3515 -0.15317,0.7345 -0.28693,1.0523 -0.1603,0.15237 -0.40579,0.11572 -0.59778,0.17064 -0.20682,2.6e-4 -0.44543,0.0684 -0.67233,0.12995 -0.18152,0.0714 -0.39462,-0.02 -0.58167,8e-4 -0.30078,0.0323 -0.59468,0.0743 -0.87553,0.20479 -0.25707,0.0307 -0.50635,0.0726 -0.74141,0.11545 -0.17547,0.0563 -0.3787,0.0666 -0.54378,-0.0144 -0.15442,-0.2428 -0.0616,-0.51234 -0.11272,-0.76158 -0.064,-0.35767 -0.0898,-0.7171 -0.1604,-1.0843 -0.006,-0.19782 -0.0998,-0.38018 -0.10959,-0.57353 -0.0207,-0.15625 -0.0322,-0.35604 -0.0768,-0.52514 0.0344,-0.26501 -0.0495,-0.55644 -0.11798,-0.81017 -0.0432,-0.13766 -0.14766,-0.3323 -0.15767,-0.49296 -0.0354,-0.18842 -0.22718,-0.53472 -0.0385,-0.71537 0.10075,-0.13366 0.27815,-0.14017 0.36895,-0.28977 0.11636,-0.1884 0.38525,-0.19563 0.50236,-0.3765 0.12529,-0.0571 0.25797,-0.18003 0.41321,-0.19166 0.13589,-0.19652 0.39377,-0.24796 0.57286,-0.38467 0.25939,-0.11669 0.462,-0.29586 0.74542,-0.37141 0.19075,-0.13389 0.42104,-0.16557 0.62856,-0.25892 0.18342,-0.0582 0.35815,-0.083 0.54354,-0.0958 0.17526,-0.0211 0.3484,-0.0589 0.52742,-0.10082 0.10046,0.0432 0.22355,0.0107 0.30265,0.0981 z m -5.80646,-0.86116 c -0.007,-0.0128 0.0275,-0.0395 0,0 z m 6.99119,5.26392 c 1.4e-4,0.52536 -0.38848,-0.13605 0,0 z m -6.25477,-1.74663 c 0.0583,0.2356 0.0725,0.49487 0.18685,0.72267 0.063,0.1875 0.007,0.38649 0.0674,0.58065 0.12013,0.29544 0.16286,0.61887 0.29067,0.91963 -7.4e-4,0.22127 0.0264,0.41455 0.0416,0.62656 0.0512,0.23823 0.0565,0.45493 0.0427,0.68002 0.0382,0.16651 0.0773,0.38077 0.0287,0.57085 0.0283,0.23078 -0.13261,0.45879 -0.38614,0.46108 -0.18077,0.0347 -0.3606,0.14295 -0.54894,0.18051 -0.30013,0.11029 -0.60497,0.15977 -0.89564,0.2619 -0.25497,0.0901 -0.5035,0.14365 -0.76282,0.20096 -0.14765,0.11456 -0.34538,0.0891 -0.51631,0.0776 -0.23881,-0.0608 -0.37058,-0.28684 -0.53719,-0.40751 -0.11519,-0.13942 -0.25504,-0.28135 -0.3834,-0.40985 -0.11284,-0.09 -0.27532,-0.2449 -0.36017,-0.38116 -0.1779,-0.0819 -0.295,-0.41422 -0.0853,-0.55936 0.11741,-0.16014 0.27317,-0.33897 0.43022,-0.47319 0.15713,-0.0846 0.25714,-0.2199 0.37237,-0.33606 0.0881,-0.24406 0.29757,-0.32584 0.43519,-0.5249 0.18229,-0.0893 0.23302,-0.34446 0.3807,-0.47085 0.13263,-0.12306 0.25951,-0.27272 0.37559,-0.40456 0.0934,-0.1243 0.21521,-0.31922 0.37566,-0.33039 0.12064,-0.11562 0.24078,-0.18839 0.34418,-0.31308 0.10581,-0.13608 0.20839,-0.29177 0.38245,-0.36995 0.15542,-0.10843 0.29319,-0.24612 0.39105,-0.41939 0.11166,-0.0835 0.2781,-0.0341 0.3307,0.11765 z m 10.52758,4.81351 c 0.20484,0.0721 0.39139,0.18177 0.50846,0.30741 0.14505,0.13024 0.32481,0.19341 0.43412,0.33748 0.1652,0.12402 0.29549,0.29191 0.33465,0.54604 -0.0127,0.20456 0.0498,0.38194 -0.0144,0.5744 -0.0638,0.23725 -0.2102,0.45103 -0.35756,0.61143 -0.12952,0.13357 -0.26825,0.24449 -0.36016,0.41707 -0.11709,0.17913 -0.24751,0.34164 -0.37522,0.51878 -0.15053,0.0841 -0.20519,0.27999 -0.33929,0.36319 -0.1245,0.16782 -0.26692,0.26933 -0.35994,0.46317 -0.0911,0.1402 -0.21981,0.24957 -0.38465,0.32706 -0.18096,0.0428 -0.32902,0.15332 -0.46878,0.26446 -0.15993,0.14111 -0.31325,0.31394 -0.52201,0.40778 -0.12674,0.12592 -0.22189,0.22306 -0.35407,0.34741 -0.13571,0.0701 -0.21735,0.19815 -0.35036,0.27617 -0.12776,0.20777 -0.36924,0.0245 -0.5374,-0.0424 -0.15422,-0.0654 -0.29844,-0.10719 -0.44426,-0.14851 -0.30082,-0.11065 -0.52911,-0.12549 -0.78892,-0.30149 -0.26639,-0.0403 -0.43735,-0.30856 -0.64397,-0.33179 -0.21785,-0.12333 -0.43846,-0.28646 -0.70273,-0.37668 -0.14848,-0.13982 -0.31491,-0.12287 -0.42871,-0.22505 -0.26709,-0.0783 -0.71163,-0.17867 -0.85577,-0.42727 -0.009,-0.29364 0.23693,-0.52636 0.3472,-0.77789 0.12193,-0.20911 0.18835,-0.44737 0.28029,-0.62852 0.13613,-0.48258 0.48186,-0.87374 0.59285,-1.37011 0.11666,-0.35751 0.36587,-0.59824 0.54162,-0.90557 0.14934,-0.27962 0.12914,-0.70296 0.43164,-0.8603 0.18192,-0.0282 0.36367,0.11391 0.55315,0.0804 0.2203,0.0225 0.44435,-0.0142 0.65229,0.019 0.194,5.4e-4 0.3839,0.0422 0.58658,-0.004 0.17387,0.0519 0.33254,-0.0111 0.5077,0.0427 0.20699,0.0483 0.42735,-0.0146 0.64965,0.0212 0.21343,0.02 0.45288,0.0855 0.62955,0.13564 0.23873,0.0645 0.50575,0.16152 0.76271,0.21815 0.18976,0.0335 0.31997,0.13383 0.47588,0.12086 z m -5.6085,-0.47395 c 0.18481,0.25598 -0.11658,0.54429 -0.25287,0.74708 -0.23705,0.32717 -0.42652,0.70172 -0.58369,1.09453 -0.17125,0.42757 -0.31415,0.79965 -0.51104,1.21387 -0.11098,0.36564 -0.28465,0.70979 -0.49366,1.00743 -0.0972,0.20492 -0.3849,0.20999 -0.56089,0.0828 -0.16116,-0.0497 -0.25159,-0.13027 -0.3856,-0.16234 -0.28339,-0.0845 -0.59874,-0.15909 -0.64725,-0.50522 -0.0517,-0.16253 -0.0202,-0.30071 -0.051,-0.46548 -0.0452,-0.27775 -0.0262,-0.51929 -0.0733,-0.78998 -0.0337,-0.25012 -0.081,-0.4899 -0.0831,-0.73872 -0.0203,-0.13119 -0.0295,-0.32566 -0.0667,-0.43613 -0.0307,-0.14802 -0.0511,-0.3889 0.0572,-0.48131 0.10538,-0.20051 0.32823,-0.0628 0.48718,-0.14412 0.22565,-0.0398 0.4482,-0.16382 0.67332,-0.12386 0.16813,-0.0633 0.34071,-0.11173 0.50859,-0.1779 0.19263,8.1e-4 0.4185,-0.0689 0.60887,-0.002 0.23509,-0.0362 0.46159,-0.068 0.692,-0.14458 0.1582,-0.0271 0.31241,-0.048 0.44921,-0.0429 0.0688,-0.009 0.18377,0.008 0.23291,0.0683 z m -15.05364,-5.62807 c 0.25828,0.0503 0.3043,0.47661 0.12646,0.61732 -0.13606,0.15803 -0.36799,-0.0131 -0.48549,-0.12339 -0.14816,-0.16181 -0.0316,-0.44384 0.14462,-0.49326 0.0701,-0.007 0.16378,-0.027 0.21439,-6.5e-4 z m -1.7357,-0.26184 c 0.27742,0.13999 0.31804,0.52026 0.50054,0.73923 0.10552,0.12682 0.20535,0.2928 0.36991,0.33855 0.12331,0.0466 0.27333,0.14643 0.41173,0.17334 0.16329,0.0353 0.33614,-0.0452 0.49348,-0.093 0.1587,-0.024 0.3468,-0.12448 0.50003,-0.0763 0.14038,0.155 0.0371,0.38767 0.0876,0.55643 -0.0227,0.19499 -0.0247,0.36063 -0.0793,0.55996 0.01,0.16922 -0.0463,0.33683 -0.0388,0.53215 0.036,0.24535 -0.0171,0.50524 -0.0493,0.77567 -8.1e-4,0.18286 0.012,0.40385 -0.0466,0.59226 -0.003,0.17573 -0.0194,0.33973 -0.0502,0.51557 -0.0479,0.19478 -0.007,0.38658 -0.053,0.58882 0.0119,0.15618 0.004,0.33849 0.002,0.52366 -0.006,0.20189 -0.0206,0.41363 -0.0941,0.61862 -0.2198,0.0853 -0.44566,0.0479 -0.65657,0.009 -0.15902,8.1e-4 -0.33293,0.0146 -0.50903,-0.0312 -0.17839,0.0227 -0.35364,0.03 -0.51943,-0.0131 -0.17904,-0.009 -0.38129,-0.0465 -0.58373,-0.0304 -0.24037,-0.0233 -0.42096,-0.0793 -0.65761,-0.0768 -0.20896,-0.0599 -0.41896,-3.5e-4 -0.63186,-0.0516 -0.28066,-0.0681 -0.40865,-0.35658 -0.53274,-0.59595 -0.15084,-0.31721 -0.24459,-0.73117 -0.42662,-1.0919 -0.13503,-0.18046 -0.13979,-0.49073 -0.24147,-0.71316 -0.0292,-0.20975 -0.0966,-0.39592 -0.14384,-0.58513 -0.0391,-0.24811 -0.0491,-0.51964 -0.16365,-0.76416 -0.0114,-0.19901 -0.0283,-0.42455 -0.0704,-0.63944 -0.0155,-0.16971 -0.0669,-0.34991 -0.006,-0.51238 -0.0133,-0.19444 0.012,-0.39509 0.089,-0.57466 -0.0205,-0.25532 0.1156,-0.54616 0.26879,-0.76885 0.0939,-0.15615 0.22687,-0.30361 0.4277,-0.35736 0.20472,-0.0952 0.43693,-0.0551 0.64263,-0.0366 0.20259,0.004 0.41252,0.0952 0.62033,0.0926 0.21456,-0.0119 0.30626,0.11049 0.4929,0.14367 0.17032,0.17357 0.45388,0.13406 0.64827,0.25226 z m 3.00366,1.78028 c 0.16063,0.0536 0.25283,0.219 0.42536,0.27206 0.13317,0.17905 0.28811,0.31381 0.44184,0.49037 0.1306,0.0375 0.29436,0.18882 0.38246,0.28682 0.26358,0.16097 0.5,0.37408 0.68691,0.61988 0.1044,0.0931 0.26088,0.19119 0.35341,0.33372 0.13576,0.12459 0.33597,0.24731 0.46778,0.36763 0.0881,0.1522 0.23918,0.26072 0.35909,0.38892 0.10201,0.0682 0.22255,0.18498 0.32187,0.27236 0.17381,0.11284 0.31254,0.24207 0.4569,0.39872 0.24462,0.20594 0.0186,0.47038 -0.13388,0.64383 -0.10977,0.12848 -0.20707,0.27244 -0.3301,0.38777 -0.0993,0.15381 -0.26049,0.23281 -0.35326,0.40504 -0.15362,0.13276 -0.22075,0.33548 -0.40188,0.44233 -0.22661,0.0567 -0.45524,-0.0782 -0.67944,-0.0967 -0.20502,-0.0361 -0.42634,-0.0598 -0.62874,-0.11075 -0.27002,-0.0324 -0.52872,-0.1035 -0.80909,-0.18664 -0.22102,8.1e-4 -0.45732,-0.0811 -0.68319,-0.11837 -0.18774,-0.0391 -0.47371,-0.15461 -0.39506,-0.37196 -0.0261,-0.19381 0.0451,-0.40118 0.0414,-0.57409 -0.007,-0.30071 0.0308,-0.6185 0.0247,-0.91868 0.0433,-0.16241 0.009,-0.36238 0.0269,-0.53534 0.0525,-0.21946 -0.006,-0.40043 0.0605,-0.61277 -0.0163,-0.13303 0.0231,-0.28001 0.026,-0.41882 0.0259,-0.18763 0.0375,-0.36509 0.0742,-0.56172 0.0478,-0.19803 0.0622,-0.41002 0.0972,-0.61337 -0.0174,-0.066 0.0922,-0.23166 0.16802,-0.1901 z m 9.57666,4.90699 c 0.0674,0.20296 0.0768,0.37345 0.0862,0.58402 0.0364,0.17433 0.0132,0.36912 0.0806,0.54254 0.0116,0.18738 0.0289,0.33503 0.0596,0.51436 0.009,0.22663 0.006,0.45691 0.0281,0.69604 -0.096,0.5444 -0.59524,-0.0582 -0.87342,-0.0433 -0.20238,-0.098 -0.40878,-0.1903 -0.62205,-0.25926 -0.21286,-0.12263 -0.53847,-0.17783 -0.6842,-0.38358 -0.18004,-0.14533 -0.29305,-0.37463 -0.44774,-0.51602 -0.11451,-0.12412 -0.215,-0.2291 -0.28041,-0.41136 -0.009,-0.243 0.25526,-0.16621 0.41509,-0.23185 0.21675,-0.11438 0.42546,-0.17932 0.65125,-0.26709 0.22077,-0.0148 0.43646,-0.0717 0.64294,-0.17369 0.23686,-0.007 0.4536,-0.17076 0.69109,-0.21436 0.0997,0.0323 0.24057,0.0136 0.25291,0.16375 z m -4.99964,-0.74784 c 0.11979,0.054 0.2739,0.13668 0.39428,0.21372 0.13459,0.14684 0.31004,0.26664 0.41672,0.41956 0.11866,0.14829 0.32617,0.20037 0.38529,0.3995 -0.044,0.2808 -0.3491,0.22224 -0.53589,0.31464 -0.20564,0.083 -0.36341,0.23264 -0.59136,0.25856 -0.20129,0.0549 -0.41397,-0.0474 -0.61146,-0.0696 -0.18583,0.0284 -0.38255,-0.10871 -0.57146,-0.14929 -0.18187,-0.14706 0.004,-0.37515 0.12597,-0.49472 0.11652,-0.16151 0.26898,-0.3097 0.38208,-0.46242 0.1463,-0.10874 0.19535,-0.30906 0.36278,-0.39602 0.0618,-0.0656 0.17408,-0.0529 0.24305,-0.0339 z m 1.87527,1.69011 c 0.27652,0.16773 0.0677,0.59505 -0.17777,0.40977 -0.22739,-0.0362 -0.55725,-0.0737 -0.74161,-0.24873 -0.0242,-0.21253 0.25163,-0.19486 0.40214,-0.24835 0.18186,-0.0571 0.34028,-0.0559 0.51639,0.087 z m 6.40385,3.4123 c 0.17976,0.0282 0.35745,0.22597 0.5222,0.24419 0.14835,0.0878 0.33355,0.11939 0.48677,0.24907 0.20607,0.10556 0.44789,0.14224 0.63116,0.32062 0.23812,0.17679 0.5676,0.36933 0.896,0.42205 0.21252,0.0666 0.37622,0.0738 0.54129,0.21424 0.13745,0.16628 -0.0977,0.3623 -0.23595,0.42276 -0.15363,0.06 -0.25122,0.12868 -0.38898,0.22898 -0.10368,0.10067 -0.21606,0.19486 -0.36371,0.26954 -0.17457,0.0619 -0.38477,0.12838 -0.5261,0.25674 -0.10866,0.0736 -0.24225,0.13529 -0.35657,0.21224 -0.14873,0.0425 -0.23182,0.14088 -0.3777,0.20308 -0.18907,0.0783 -0.30399,0.21238 -0.4878,0.29858 -0.14824,0.10326 -0.30804,0.15677 -0.44063,0.26024 -0.15736,0.0891 -0.32657,0.16549 -0.49568,0.24538 -0.35501,-0.0294 -0.37007,-0.37285 -0.53575,-0.58802 -0.0579,-0.18652 -0.14453,-0.34056 -0.29625,-0.53562 -0.0516,-0.11326 -0.19377,-0.22015 -0.29541,-0.33602 -0.0448,-0.25586 -0.40591,-0.41969 -0.31404,-0.71918 0.12572,-0.29238 0.34959,-0.51634 0.49843,-0.79296 0.16914,-0.26551 0.33965,-0.51805 0.49955,-0.77506 0.0821,-0.16029 0.25066,-0.39551 0.46552,-0.27365 0.17978,0.0436 0.39657,0.0915 0.57374,0.17272 z m -3.79374,-1.49702 c 0.22529,0.14896 0.45223,0.24984 0.6832,0.37168 0.21354,0.12336 0.15231,0.3973 0.22257,0.59793 0.0384,0.17619 0.0216,0.38041 0.0666,0.53336 0.0475,0.27728 -0.19686,0.48839 -0.36884,0.18964 -0.0929,-0.20266 -0.26825,-0.33452 -0.37235,-0.56226 -0.17281,-0.16683 -0.32393,-0.37906 -0.39114,-0.63761 -0.0678,-0.19277 -0.23899,-0.30086 -0.1486,-0.52901 0.0913,-0.0671 0.22246,-0.0173 0.3086,0.0364 z m -1.73183,-0.70529 c 0.32989,0.0349 0.33909,0.43468 0.58538,0.57259 0.20106,0.14954 0.25219,0.43614 0.428,0.54254 0.10293,0.17197 0.17871,0.38634 0.28614,0.53922 0.18982,0.21283 0.32324,0.51461 0.50047,0.75132 0.10278,0.22391 0.24664,0.37825 0.36902,0.59226 0.16362,0.23848 0.30972,0.48819 0.51934,0.72579 0.14777,0.19331 -0.027,0.45617 -0.15634,0.60344 -0.13059,0.26715 -0.24398,0.56289 -0.43857,0.77929 -0.13078,0.26989 -0.3384,0.44907 -0.46802,0.71881 -0.13522,0.1893 -0.32787,0.37943 -0.41827,0.6093 -0.14813,0.35283 -0.36056,0.68214 -0.58395,0.96295 -0.11653,0.21898 -0.30219,0.36568 -0.41815,0.58518 -0.10577,0.15472 -0.26479,0.25234 -0.43165,0.33035 -0.24699,0.0671 -0.47023,0.14768 -0.70799,0.23762 -0.25704,0.0528 -0.53027,0.17261 -0.78609,0.2656 -0.11148,0.055 -0.28353,0.0979 -0.42797,0.16257 -0.20628,0.0429 -0.43568,0.12666 -0.64369,0.0526 -0.18396,-0.002 -0.3634,-0.0832 -0.553,-0.0941 -0.19966,-0.0506 -0.43748,-0.10867 -0.58808,-0.17246 -0.23972,-0.078 -0.46911,-0.13589 -0.71551,-0.19221 -0.2064,-0.16071 -0.51163,-0.27888 -0.72841,-0.44525 -0.1192,-0.207 -0.24749,-0.37468 -0.39766,-0.52594 -0.17211,-0.11492 -0.19795,-0.29754 -0.34016,-0.44645 -0.21031,-0.12672 -0.28244,-0.43036 -0.45587,-0.61176 -0.15569,-0.14892 -0.21082,-0.28974 -0.32258,-0.45941 -0.13022,-0.1427 -0.29452,-0.25691 -0.39238,-0.46133 -0.12554,-0.18677 -0.24304,-0.35384 -0.36177,-0.52534 -0.10395,-0.16203 -0.28943,-0.27767 -0.33001,-0.49856 -0.0522,-0.18015 -0.0388,-0.36238 -0.01,-0.53973 0.16703,-0.22763 0.29093,-0.51758 0.47753,-0.73551 0.12268,-0.20344 0.3309,-0.31968 0.42946,-0.55787 0.17996,-0.17194 0.27701,-0.42439 0.42839,-0.61473 0.15261,-0.24291 0.33378,-0.4407 0.44749,-0.73028 0.22354,-0.22629 0.30971,-0.61022 0.51775,-0.83691 0.12035,-0.15962 0.23764,-0.34187 0.3815,-0.46696 0.19973,-0.12227 0.42431,-0.0936 0.64182,-0.19551 0.2206,-0.0534 0.4101,-0.18771 0.64659,-0.2196 0.33433,-0.0933 0.64809,-0.26633 0.98401,-0.35653 0.18288,-0.0976 0.37811,-0.1405 0.56444,-0.0474 0.20278,0.0924 0.45567,0.10452 0.69123,0.17906 0.21406,0.0831 0.44835,0.11584 0.67734,0.14661 0.23204,0.12186 0.5452,0.15335 0.75289,0.29062 0.11743,-0.002 0.24192,0.0518 0.34713,0.0862 z m -1.48284,2.00787 c -0.23122,-0.0671 -0.46371,-0.1454 -0.70246,-0.19631 -0.19146,0.0114 -0.40759,0.0582 -0.59436,0.0769 -0.19452,0.0371 -0.40305,-0.0347 -0.6058,-0.0237 -0.19164,0.0609 -0.36129,0.16929 -0.54515,0.2437 -0.11979,0.16058 -0.23146,0.32777 -0.40841,0.42077 -0.16967,0.10245 -0.2949,0.27205 -0.42346,0.43005 -0.14569,0.14493 -0.18553,0.31133 -0.23722,0.48983 -0.0595,0.29965 -0.0609,0.63295 0.0354,0.94939 0.0249,0.28872 0.19281,0.54508 0.2864,0.81621 0.12128,0.21317 0.22435,0.48709 0.38252,0.65313 0.1508,0.1803 0.38158,0.33207 0.61427,0.37116 0.20673,0.0225 0.43932,0.14897 0.64325,0.10235 0.26896,-0.0353 0.527,-0.0643 0.77988,-0.13321 0.24843,-0.0469 0.48873,-0.13416 0.72625,-0.22593 0.12676,-0.12762 0.32457,-0.21577 0.48405,-0.31439 0.17908,-0.29163 0.39979,-0.56544 0.51945,-0.87999 -0.0153,-0.27438 0.21417,-0.49206 0.13637,-0.74476 -0.0253,-0.18881 -0.0687,-0.28545 -0.10916,-0.47209 -0.02,-0.17848 -0.0498,-0.37915 -0.15483,-0.53776 -0.0955,-0.15856 -0.25775,-0.3291 -0.30192,-0.49594 -0.0505,-0.0908 -0.10694,-0.2606 -0.22143,-0.35771 -0.0558,-0.12423 -0.21319,-0.10989 -0.3037,-0.17164 z m -0.3799,2.40233 c 0.20102,0.082 0.3945,0.31223 0.33695,0.55055 -0.0726,0.21573 -0.1735,0.45765 -0.39857,0.5261 -0.14996,0.16923 -0.41786,0.17906 -0.57705,0.009 -0.23428,-0.13068 -0.26524,-0.47448 -0.23477,-0.7161 -0.0496,-0.27957 0.28038,-0.38162 0.50388,-0.42501 0.12104,0.0571 0.26503,-0.031 0.36957,0.055 z m 5.4336,-2.86225 c 0.21062,0.0939 0.74627,0.19544 0.44152,0.55547 -0.17107,0.18953 -0.2281,0.52724 -0.43589,0.67631 -0.10971,0.31052 -0.43618,0.21843 -0.37413,-0.10575 -0.002,-0.13437 -0.0456,-0.28442 -0.0537,-0.41105 -0.0241,-0.21259 -0.0487,-0.40748 -0.0105,-0.62769 -0.0144,-0.20853 0.31961,-0.14379 0.43267,-0.0873 z m 5.99295,2.6192 c 0.23591,0.17857 0.52727,0.22112 0.77154,0.37658 0.22447,0.14897 0.5627,0.24968 0.79407,0.43227 0.17934,0.10817 0.32159,0.29861 0.41916,0.50179 0.12641,0.0696 0.22773,0.27514 0.36123,0.39056 0.13537,0.1322 0.24323,0.27126 0.38773,0.37917 0.1606,0.13994 0.2902,0.26723 0.43201,0.43313 0.15218,0.2041 0.31241,0.40165 0.44259,0.63244 0.0687,0.2111 0.26304,0.36309 0.23859,0.58369 0.13574,0.27172 0.0322,0.57197 -0.0208,0.81878 -0.16824,0.29226 -0.27413,0.66569 -0.52227,0.88837 -0.15214,0.14368 -0.32291,0.2151 -0.48714,0.32586 -0.10321,0.0546 -0.26395,0.12161 -0.36153,0.20953 -0.24034,0.0681 -0.42557,0.24743 -0.67901,0.26542 -0.3108,-0.0575 -0.23417,-0.39115 -0.47061,-0.55484 -0.27863,-0.18892 -0.59165,-0.27579 -0.92137,-0.21292 -0.14325,-0.005 -0.30414,0.0316 -0.45433,0.0734 -0.34611,0.0374 -0.68292,0.24244 -0.80509,0.58939 -0.13158,0.15235 -0.36191,0.22469 -0.56496,0.19585 -0.16754,0.0178 -0.34216,0.0534 -0.50839,0.0173 -0.31429,0.0626 -0.45473,-0.34855 -0.55118,-0.59944 -0.1036,-0.20509 -0.13182,-0.32096 -0.24423,-0.48234 -0.0675,-0.24656 -0.23899,-0.4075 -0.36523,-0.60277 -0.1302,-0.17744 -0.2395,-0.29791 -0.32686,-0.52791 -0.0864,-0.13509 -0.19156,-0.21959 -0.25794,-0.36157 -0.20715,-0.17171 -0.24822,-0.48045 -0.43132,-0.68371 -0.0374,-0.1861 -0.26223,-0.38518 -0.30716,-0.66029 -0.0592,-0.23017 0.21194,-0.31061 0.35477,-0.38978 0.11179,-0.0464 0.2268,-0.15541 0.36573,-0.17636 0.12002,-0.0717 0.25338,-0.16676 0.40993,-0.21699 0.10182,-0.12745 0.26237,-0.14152 0.38218,-0.24926 0.13741,-0.0547 0.24114,-0.15046 0.38157,-0.21139 0.12354,-0.0581 0.25242,-0.15601 0.37436,-0.1867 0.1282,-0.11917 0.30515,-0.17614 0.44609,-0.28074 0.15579,-0.0848 0.32356,-0.20061 0.47492,-0.26981 0.13047,-0.10252 0.25931,-0.14525 0.39666,-0.24636 0.18763,-0.0571 0.27621,-0.23869 0.45409,-0.28458 0.12907,-0.0266 0.27255,0.0179 0.39223,0.0842 z m -13.70526,-5.27988 c 0.17125,0.0199 0.48223,0.23515 0.17419,0.37265 -0.20774,0.0693 -0.43913,0.0831 -0.64463,0.19544 -0.35784,0.0228 -0.0414,-0.42651 0.0983,-0.5256 0.10205,-0.096 0.25677,-0.11213 0.37213,-0.0424 z m -1.20737,-0.28526 c 0.28454,0.0453 0.25474,0.3802 0.0554,0.50755 -0.16097,0.14965 -0.24369,0.39598 -0.39678,0.54892 -0.11748,0.21958 -0.40082,0.28421 -0.62134,0.41515 -0.33278,0.0651 -0.58093,0.29141 -0.92606,0.33496 -0.18839,0.0793 -0.34768,0.15796 -0.54012,0.23914 -0.26131,0.0349 -0.2918,-0.30567 -0.23698,-0.49177 0.0636,-0.22311 0.0291,-0.44424 0.11419,-0.68432 0.007,-0.15853 0.0328,-0.30561 0.0246,-0.46392 -0.0109,-0.1357 -0.0385,-0.29454 -0.0332,-0.41449 -0.032,-0.2366 0.18524,-0.48472 0.41197,-0.41145 0.29215,0.0179 0.58272,0.0608 0.87023,0.20218 0.20946,0.009 0.46191,-0.006 0.68183,0.0971 0.19013,0.0621 0.34716,0.12864 0.55614,0.11468 l 0.0228,-0.01 z m -3.07561,-0.52687 c 0.13483,0.12245 0.0629,0.36858 0.0711,0.53697 0.008,0.1762 0.0133,0.32993 0.0141,0.49311 0.0294,0.19988 -0.12153,0.44705 -0.10252,0.65147 -0.0748,0.24318 -0.0383,0.45392 -0.0746,0.69943 -0.013,0.24075 -0.13876,0.47081 -0.32152,0.60771 -0.14714,0.055 -0.28858,0.12509 -0.42142,0.17818 -0.12938,0.0518 -0.25875,0.0967 -0.3799,0.18966 -0.12238,0.0765 -0.26191,0.12958 -0.39796,0.0456 -0.13641,-0.26089 -0.27699,-0.36642 -0.38515,-0.6621 -0.0736,-0.13941 -0.24686,-0.28037 -0.31265,-0.45523 -0.15527,-0.20933 -0.16365,-0.4213 -0.29824,-0.60952 -0.0951,-0.15513 -0.22081,-0.43115 -0.30776,-0.58781 -0.16188,-0.24351 -0.20393,-0.44156 -0.3577,-0.70692 -0.10026,-0.20542 -0.38422,-0.63824 0.003,-0.71571 0.20318,0.0294 0.3946,-0.0163 0.5918,0.0681 0.18881,-0.003 0.37266,0.0136 0.55414,0.0355 0.21263,0.0521 0.42109,0.0352 0.61576,0.0824 0.20887,-0.0245 0.38732,-0.0354 0.59116,0.009 0.22343,0.005 0.42886,0.006 0.64606,0.0713 0.0679,-0.0541 0.22136,0.008 0.27215,0.0697 z m -4.24766,-0.28337 c 0.27046,0.25928 0.29655,0.72104 0.55225,0.95596 0.0688,0.20322 0.17638,0.39283 0.26649,0.53695 0.20565,0.42904 0.44197,0.83352 0.62904,1.24837 0.11977,0.2878 0.26891,0.54874 0.45205,0.79262 0.16633,0.12633 0.40455,0.45605 0.15792,0.6373 -0.14087,0.16201 -0.36078,0.20948 -0.54543,0.31958 -0.24396,0.13676 -0.43397,0.32654 -0.70995,0.40566 -0.15877,0.0893 -0.30592,0.19509 -0.4779,0.27594 -0.13969,0.0855 -0.29511,0.15162 -0.41335,0.27929 -0.15248,0.0997 -0.39202,0.14067 -0.52507,0.27643 -0.15847,0.0791 -0.27346,0.21092 -0.42024,0.28524 -0.11551,0.0771 -0.25437,0.1862 -0.37251,0.23556 -0.18253,0.13909 -0.45042,0.0466 -0.59233,-0.0954 -0.34389,-0.20747 -0.66856,-0.39864 -1.06044,-0.54198 -0.21953,-0.19647 -0.53776,-0.20573 -0.77231,-0.39187 -0.10897,-0.0957 -0.25986,-0.20556 -0.40463,-0.27732 -0.21654,-0.12207 -0.39083,-0.30985 -0.61423,-0.44387 -0.0931,-0.11151 -0.19494,-0.21818 -0.27722,-0.31659 -0.12245,-0.13992 -0.26289,-0.30063 -0.38001,-0.45258 -0.12495,-0.21441 -0.37109,-0.42635 -0.43396,-0.65881 -0.18052,-0.16364 -0.17506,-0.42538 -0.23193,-0.63572 -0.0305,-0.32795 0.003,-0.67304 0.0578,-1.01693 0.028,-0.23893 0.18435,-0.42955 0.37721,-0.53191 0.1309,-0.0984 0.27019,-0.17955 0.4023,-0.27929 0.27228,-0.1295 0.56549,-0.20202 0.8501,-0.27459 0.15398,0.009 0.31126,-0.01 0.45236,-0.0469 0.18485,-0.0733 0.37086,-0.0598 0.5491,-0.10812 0.24868,0.006 0.51839,-0.0522 0.76991,-0.0546 0.1421,-0.0311 0.31567,-0.0132 0.47374,-0.0832 0.15769,-0.0183 0.3031,-0.0234 0.46138,-0.0505 0.23723,-0.0124 0.43725,-0.0422 0.67213,0.0101 0.23068,0.0311 0.42988,0.0167 0.64838,-0.0596 0.153,-0.0553 0.32004,-0.008 0.45933,0.0611 z m 6.23134,2.87641 c 0.0913,0.21659 -0.18703,0.36709 -0.27241,0.61586 -0.15701,0.20943 -0.21693,0.53835 -0.45289,0.67355 -0.21182,0.16636 -0.29298,0.46929 -0.45708,0.68284 -0.0998,0.12399 -0.28574,0.49942 -0.41811,0.21023 -0.0101,-0.15787 0.009,-0.34515 -0.006,-0.50144 -0.0534,-0.16037 -0.0253,-0.326 -0.0501,-0.4786 0.0139,-0.19301 -0.006,-0.36157 0.0542,-0.55457 0.13132,-0.2747 0.50482,-0.26707 0.72206,-0.43507 0.24177,-0.0496 0.46677,-0.13209 0.67711,-0.25483 0.0614,-0.0215 0.18284,-0.0416 0.20315,0.0421 z m 10.02736,4.36625 c 0.30433,0.18442 0.30364,0.6357 0.50071,0.90396 0.18914,0.19327 0.10881,0.49411 -0.0975,0.58972 -0.18328,0.0993 -0.30109,0.17256 -0.49757,0.24986 -0.23552,0.0159 -0.27081,-0.2972 -0.22494,-0.45534 -8e-4,-0.15471 0.0239,-0.32493 0.004,-0.45815 3.8e-4,-0.17444 -0.01,-0.3223 0.0429,-0.49901 -0.0789,-0.17901 0.0157,-0.60025 0.27267,-0.33104 z m -0.81693,0.22379 c 0.0622,0.16698 0.0137,0.36175 0.0439,0.50848 -0.0228,0.16825 0.0123,0.31701 -0.006,0.49541 -0.0465,0.18678 -0.0603,0.37586 -0.0591,0.56603 -0.008,0.19792 -0.1721,0.37403 -0.36917,0.45107 -0.21915,0.0863 -0.472,0.1883 -0.6985,0.2786 -0.16308,0.0521 -0.40306,0.23015 -0.51928,0.0355 0.095,-0.34242 0.33331,-0.65693 0.50568,-0.97564 0.15421,-0.21551 0.29257,-0.45559 0.44681,-0.66434 0.20075,-0.22795 0.31846,-0.51449 0.48636,-0.76519 0.0704,-0.0228 0.13137,-0.0759 0.16894,0.0703 z m 1.88,1.65351 c 0.14577,0.22174 0.27603,0.38817 0.40231,0.65444 0.16059,0.16376 0.29645,0.37175 0.40567,0.5702 0.12228,0.19972 0.24041,0.40492 0.39754,0.61073 0.21316,0.19125 0.2577,0.60096 0.45466,0.77474 0.15947,0.21539 0.16712,0.44275 0.29177,0.71875 0.0906,0.21633 -0.14666,0.32525 -0.30524,0.26132 -0.18901,0.002 -0.38859,-0.0335 -0.57435,-0.0437 -0.1609,-0.0775 -0.35989,-0.0126 -0.54147,-0.0851 -0.16354,0.0136 -0.35089,-0.002 -0.53034,-0.002 -0.19313,-0.0329 -0.42534,-0.0732 -0.60151,-0.0798 -0.21209,-0.0667 -0.41498,-0.0707 -0.63446,-0.10217 -0.17462,-0.006 -0.41104,-0.0629 -0.44737,-0.26286 -0.0466,-0.14259 0.0236,-0.30152 8e-4,-0.45393 0.0299,-0.22111 0.037,-0.41309 0.0757,-0.6249 -0.006,-0.27063 0.0369,-0.56004 0.0471,-0.84328 0.0239,-0.13035 -0.0295,-0.34913 0.0811,-0.43058 -0.0243,-0.13031 0.17977,-0.25209 0.29988,-0.32808 0.25037,-0.0909 0.50215,-0.22264 0.73189,-0.33082 0.14362,-0.10988 0.2902,-0.12196 0.44598,-0.003 z m -13.31212,-5.33998 c 0.16836,0.11648 0.10519,0.37142 0.12901,0.5443 0.0144,0.16282 0.0203,0.35063 0.0161,0.48967 0.006,0.20931 -0.0808,0.39077 -0.0468,0.60815 0.0757,0.21221 -0.12591,0.43277 -0.29055,0.16705 -0.0601,-0.16855 -0.14511,-0.22677 -0.20643,-0.38405 -0.15819,-0.15495 -0.24623,-0.40307 -0.40992,-0.56532 -0.12254,-0.15746 -0.20088,-0.46481 0.0201,-0.61482 0.14105,-0.1081 0.35389,-0.1372 0.50606,-0.22777 0.1156,-0.0283 0.16696,-0.1275 0.2824,-0.0173 z m -1.514,0.76807 c 0.22505,0.14607 0.26591,0.39422 0.41712,0.56077 0.138,0.20462 0.30931,0.45711 0.46095,0.61072 0.14251,0.29729 0.42525,0.52973 0.43337,0.88447 -0.076,0.31366 -0.30314,0.50669 -0.44122,0.78502 -0.14369,0.25415 -0.31578,0.50527 -0.45527,0.75373 -0.12927,0.17083 -0.20927,0.37663 -0.40488,0.49279 -0.30447,0.0122 -0.39566,-0.29276 -0.68516,-0.34232 -0.29396,-0.061 -0.51444,-0.26289 -0.80894,-0.36402 -0.15238,-0.11371 -0.30634,-0.11294 -0.42036,-0.22216 -0.29682,-0.10496 -0.55563,-0.26991 -0.77306,-0.45018 -0.21032,-0.1156 -0.39895,-0.21532 -0.58353,-0.36004 -0.1445,-0.1097 -0.42023,-0.23007 -0.18376,-0.45477 0.13289,-0.0518 0.23581,-0.16229 0.36358,-0.20511 0.18295,-0.15277 0.40232,-0.25393 0.61005,-0.37072 0.1408,-0.0821 0.29465,-0.14709 0.40728,-0.26901 0.1658,-0.0848 0.33426,-0.20238 0.48755,-0.27441 0.10958,-0.0868 0.27216,-0.12161 0.37299,-0.23672 0.18425,-0.0881 0.33282,-0.22517 0.51314,-0.3224 0.21103,-0.0797 0.40942,-0.24782 0.65068,-0.23603 z m 20.58907,8.68026 c 0.16375,0.21044 -0.16392,0.52827 -0.37694,0.34772 -0.1875,-0.16658 0.0507,-0.53251 0.28758,-0.40102 l 0.079,0.0367 z m -7.83861,-3.20212 c -0.002,0.21188 -0.0103,0.43855 -0.0208,0.63096 -0.013,0.20655 -0.0454,0.39659 -0.0742,0.60206 -0.002,0.19572 -0.0583,0.42335 -0.0524,0.63043 0.009,0.41414 -0.38412,0.22182 -0.6044,0.1465 -0.19858,-0.0312 -0.38416,-0.0545 -0.57533,-0.09 -0.25919,-0.0431 -0.52029,-0.0659 -0.76575,-0.12637 -0.28149,0.0497 -0.79636,-0.1874 -0.4116,-0.52143 0.16107,-0.19018 0.2519,-0.4748 0.4619,-0.63235 0.23597,-0.0831 0.47412,-0.18419 0.72194,-0.23021 0.10116,-0.0589 0.24612,-0.12409 0.36888,-0.16609 0.24976,-0.13689 0.51146,-0.22021 0.77525,-0.32692 0.0391,0.0478 0.14795,0.0195 0.17599,0.0838 z m 4.18612,3.16858 c 0.31701,0.0833 0.34366,0.44402 0.4985,0.69166 0.0578,0.0931 0.10441,0.24886 0.13552,0.3739 0.0916,0.2345 0.1241,0.50592 0.26404,0.70095 0.0773,0.18289 0.11153,0.35375 0.15496,0.50889 0.0374,0.18114 0.0782,0.36363 0.15686,0.54252 0.0207,0.0945 0.0437,0.24725 0.0616,0.38438 0.047,0.2725 0.0976,0.56467 0.14432,0.86158 0.0134,0.1756 0.0131,0.38358 -0.0528,0.56649 -0.12336,0.36719 -0.19441,0.71642 -0.29279,1.07622 -0.0922,0.27484 -0.24489,0.49702 -0.50747,0.62311 -0.12583,0.12127 -0.35059,0.0769 -0.47709,0.19188 -0.16911,0.0461 -0.33191,0.0876 -0.49172,0.0431 -0.20275,-1.4e-4 -0.40928,-0.10462 -0.57527,-0.11496 -0.26741,-0.0641 -0.50325,-0.18692 -0.73632,-0.28014 -0.19455,-0.13794 -0.39659,-0.20147 -0.61058,-0.25618 -0.2134,-0.0458 -0.35361,-0.23337 -0.57038,-0.28645 -0.17364,-0.097 -0.40471,-0.19823 -0.61384,-0.33295 -0.21482,-0.2365 -0.71645,-0.20038 -0.74733,-0.60182 -0.006,-0.20367 -0.006,-0.37702 0.0569,-0.58044 0.002,-0.21984 0.0223,-0.43891 0.0665,-0.64554 0.0122,-0.23437 0.0221,-0.47138 0.0779,-0.72159 0.0229,-0.20345 0.019,-0.41107 0.0483,-0.60328 0.027,-0.17043 0.0337,-0.35332 0.0233,-0.52121 -0.0225,-0.18016 0.0112,-0.35408 0.0278,-0.54493 0.0257,-0.21941 0.002,-0.41233 0.0746,-0.62078 0.007,-0.23035 -0.0156,-0.41169 0.0451,-0.63779 0.0844,-0.23989 0.36508,-0.15273 0.57161,-0.16914 0.22829,0.009 0.41013,0.0304 0.62606,0.0669 0.21601,0.0752 0.4883,0.0159 0.72552,0.0826 0.21522,0.0854 0.43446,0.0379 0.65742,0.062 0.18321,-0.005 0.39336,0.0568 0.58946,0.076 0.20653,-0.007 0.45346,0.0612 0.64831,0.0506 z m -15.18328,-5.87442 c 0.0559,0.2092 0.0221,0.45871 0.0746,0.65823 0.006,0.15755 0.0329,0.32141 0.0507,0.50029 0.007,0.1747 -0.0147,0.34881 0.0196,0.49934 0.072,0.19315 0.0106,0.51152 -0.26565,0.41592 -0.20069,-0.13116 -0.37791,-0.26715 -0.58395,-0.306 -0.0785,-0.0684 -0.23703,-0.0734 -0.32173,-0.19316 -0.22052,-0.13801 0.13589,-0.49197 0.2135,-0.67206 0.16365,-0.2889 0.32601,-0.59258 0.51895,-0.83741 0.0842,-0.11809 0.16943,-0.23229 0.29398,-0.0651 z m 0.74271,0.7913 c 0.1214,0.13658 0.242,0.25971 0.35907,0.40915 0.25904,0.17955 0.35738,0.52324 0.50728,0.81232 0.22854,0.15033 0.31397,0.36801 0.47426,0.55957 0.25035,0.12825 0.14273,0.54899 -0.13941,0.35713 -0.18407,-0.10885 -0.43016,-0.14039 -0.62027,-0.21973 -0.15116,-0.11397 -0.31796,-0.0818 -0.49047,-0.19431 -0.20818,-0.0633 -0.20807,-0.26075 -0.20039,-0.43998 -0.0257,-0.23102 -0.0199,-0.49092 -0.0399,-0.74661 0.0278,-0.18401 -0.095,-0.36712 0.0296,-0.5588 0.03,-0.0215 0.11454,-0.0206 0.11974,0.021 z m 7.04071,3.10137 c 0.0309,0.21789 -0.13785,0.44264 -0.3627,0.37223 -0.19691,0.0115 -0.42755,-0.18971 -0.14311,-0.31431 0.15776,-0.0616 0.36139,-0.22281 0.50581,-0.0579 z m 3.00654,1.50023 c 0.0708,0.17301 0.002,0.32921 0.006,0.49356 -0.0231,0.25228 -0.0738,0.48321 -0.0446,0.74918 -0.0276,0.18861 -0.0763,0.38702 -0.0443,0.56477 0.0142,0.15843 0.008,0.30028 -0.006,0.45493 -0.0151,0.21252 -0.005,0.38011 -0.0678,0.58902 0.005,0.14962 -0.003,0.32155 -0.006,0.49163 0.003,0.19665 -0.0667,0.43264 -0.10798,0.63129 -0.0154,0.19732 -0.0481,0.35181 -0.0333,0.54872 -0.0144,0.46677 -0.47494,0.27325 -0.64201,0.0326 -0.14704,-0.1578 -0.30092,-0.28314 -0.44808,-0.43806 -0.19698,-0.16961 -0.43774,-0.28164 -0.63196,-0.45609 -0.15039,-0.027 -0.22735,-0.22252 -0.34062,-0.27595 -0.1116,-0.15746 -0.24962,-0.31958 -0.39091,-0.43362 -0.0994,-0.1437 -0.29884,-0.2516 -0.38973,-0.37682 -0.22758,-0.14178 -0.32524,-0.39739 -0.51975,-0.56595 -0.13143,-0.12618 -0.26834,-0.24982 -0.39274,-0.39269 -0.1672,-0.14456 -0.35776,-0.37258 -0.17648,-0.59667 0.11784,-0.11789 0.2362,-0.25873 0.36894,-0.35647 0.11494,-0.15259 0.25238,-0.2957 0.36547,-0.45336 0.16489,-0.14798 0.29961,-0.33677 0.42045,-0.54252 0.089,-0.14709 0.23869,-0.28431 0.43439,-0.24544 0.23527,0.0118 0.44627,0.11404 0.66515,0.12246 0.17137,8.1e-4 0.38454,0.0626 0.55309,0.0602 0.17692,0.0324 0.36642,0.0717 0.54064,0.0879 0.26721,0.0568 0.50239,0.16948 0.7504,0.18976 0.057,0.0213 0.13296,0.0407 0.13755,0.11771 z m -3.65092,-0.63079 c 0.0747,0.19933 -0.1351,0.37 -0.26175,0.48135 -0.11162,0.2859 -0.31309,0.44831 -0.44688,0.70845 -0.12667,0.16983 -0.36977,0.36716 -0.56144,0.13075 -0.13151,-0.14205 -0.33591,-0.27544 -0.37728,-0.41512 -0.0996,-0.0672 -0.20647,-0.18913 -0.29201,-0.29754 -0.11753,-0.15681 -0.3022,-0.27337 -0.37856,-0.4712 0.0311,-0.2108 0.22667,-0.23026 0.39009,-0.29338 0.16677,-0.002 0.29002,-0.10059 0.45211,-0.141 0.20862,-0.0708 0.42735,0.0353 0.62313,0.0466 0.29123,0.12173 0.58477,0.10862 0.85261,0.25102 z m -12.86961,-5.12559 c 0.15912,0.10964 0.34781,0.19127 0.50087,0.31029 0.13817,0.15006 0.34547,0.23734 0.50486,0.3608 0.29551,0.14622 0.53277,0.31486 0.81324,0.47386 0.22193,0.12293 0.47808,0.19775 0.70475,0.3255 0.17498,0.12436 0.4582,0.19816 0.67485,0.35399 0.29665,0.10714 0.62742,0.36527 0.32357,0.68999 -0.17024,0.42516 -0.40336,0.77632 -0.60847,1.1661 -0.21917,0.2285 -0.26664,0.59696 -0.38358,0.84914 -0.0807,0.22478 -0.11263,0.46831 -0.17162,0.67439 -0.0887,0.21279 -0.20769,0.35876 -0.24272,0.61979 0.002,0.17406 -0.0518,0.26503 -0.12945,0.37529 -0.11003,0.19708 -0.37311,0.0667 -0.54414,0.16329 -0.1613,-0.002 -0.37004,0.0256 -0.50891,0.0423 -0.20707,-0.044 -0.42275,0.0815 -0.62151,0.0238 -0.25525,0.018 -0.47922,0.0132 -0.72568,0.009 -0.21855,-0.0182 -0.47371,-0.0294 -0.67765,-0.0954 -0.23725,-7e-5 -0.4364,-0.0283 -0.65607,-0.0413 -0.25964,-0.0759 -0.52258,-0.17833 -0.77056,-0.20906 -0.31632,-0.15593 -0.69451,-0.20222 -1.00688,-0.37793 -0.17309,-0.0899 -0.33026,-0.21172 -0.42318,-0.3795 -0.13452,-0.1546 -0.32008,-0.37741 -0.37803,-0.57323 -0.067,-0.16004 -0.0945,-0.35371 -0.067,-0.53171 0.0494,-0.34882 0.25392,-0.58234 0.37291,-0.91467 0.12498,-0.25529 0.33083,-0.41767 0.45442,-0.65859 0.0868,-0.16981 0.19307,-0.32569 0.3773,-0.37566 0.20978,0.006 0.34642,0.13367 0.54935,0.10362 0.20484,-0.0142 0.38478,0.0833 0.56652,-0.0387 0.15744,-0.0624 0.24233,-0.0982 0.3654,-0.20006 0.12246,-0.0846 0.22785,-0.21271 0.3639,-0.27694 0.13898,-0.18452 0.24908,-0.43001 0.24446,-0.64326 0.0274,-0.22939 -0.0914,-0.45757 0.0728,-0.67136 0.10339,-0.17341 0.24873,-0.3122 0.404,-0.43823 0.19403,-0.10178 0.42491,-0.24478 0.62207,-0.11544 z m 10.3149,4.53968 c -0.0207,0.25747 -0.37651,0.25877 -0.46311,0.0378 0.0404,-0.26772 0.30486,-0.13577 0.46311,-0.0378 z m -1.73348,-0.53449 c 0.17891,0.0938 0.27876,0.24345 0.41879,0.34593 0.141,0.15696 0.45003,0.39116 0.24961,0.61322 -0.10676,0.12256 -0.31275,0.0811 -0.4627,0.15945 -0.13476,0.0256 -0.29767,0.08 -0.42673,0.11649 -0.24275,0.0806 -0.54522,0.0566 -0.78709,0.19602 -0.23614,0.0631 -0.49104,0.0998 -0.71941,0.14797 -0.28432,-0.0552 -0.27325,-0.23294 -0.27179,-0.43445 -0.017,-0.22028 -0.11646,-0.46166 -0.11646,-0.69266 -0.0315,-0.26229 0.0154,-0.49528 -0.0454,-0.75536 0.008,-0.47232 0.43671,-0.21209 0.68533,-0.13131 0.29935,0.14984 0.59683,0.2236 0.90375,0.26319 0.17748,0.0686 0.39986,0.0761 0.57218,0.17145 z m -3.981,-1.60657 c 0.21635,0.0963 0.48155,0.23093 0.70537,0.34328 0.15582,0.14197 0.39592,0.17193 0.55642,0.32979 0.0914,0.15105 0.0628,0.33252 0.0884,0.49192 0.0361,0.17517 0.0141,0.36165 0.0463,0.53304 -0.0584,0.15322 -0.0156,0.29779 -0.003,0.46569 -0.0166,0.2061 0.0521,0.38832 0.0991,0.60341 0.0548,0.20336 0.0975,0.56235 -0.16027,0.62524 -0.14381,0.0581 -0.29737,0.0562 -0.43376,0.078 -0.29466,0.0338 -0.56949,0.0942 -0.8527,0.15381 -0.17922,-0.0175 -0.41681,0.0405 -0.57452,0.0636 -0.16639,0.0119 -0.32985,0.0174 -0.49083,0.0748 -0.16682,0.0138 -0.36885,-0.0261 -0.53748,0.024 -0.17391,0.0618 -0.50207,-0.0161 -0.38417,-0.25485 0.0437,-0.32844 0.18178,-0.63478 0.30817,-0.9589 0.21141,-0.26597 0.15304,-0.59451 0.35608,-0.84476 0.14275,-0.2332 0.30526,-0.46411 0.43432,-0.68949 0.0613,-0.32712 0.15825,-0.66468 0.36217,-0.93306 0.11792,-0.13282 0.30701,-0.20611 0.48091,-0.10543 z m 5.45019,3.02192 c 0.15541,0.13205 0.27276,0.24101 0.39502,0.41108 0.0965,0.16433 0.21868,0.30163 0.34439,0.43728 0.12634,0.13655 0.27701,0.31112 0.43224,0.4293 0.13521,0.10789 0.24365,0.35739 0.0241,0.4972 -0.0814,0.23229 -0.25824,0.35527 -0.38974,0.50837 -0.12928,0.0903 -0.21426,0.23986 -0.35108,0.32011 -0.14478,0.20352 -0.31509,0.38873 -0.44486,0.59208 -0.10314,0.13413 -0.22417,0.23104 -0.36688,0.32276 -0.13125,0.10184 -0.26566,0.20283 -0.34431,0.35498 -0.1231,0.12892 -0.18793,0.29228 -0.35815,0.38092 -0.20778,0.0847 -0.38097,0.19458 -0.47694,0.39219 -0.0676,0.17717 -0.21648,0.28381 -0.38746,0.34477 -0.17336,0.0411 -0.20238,0.23764 -0.36485,0.28327 -0.26434,-0.0653 -0.19672,-0.30979 -0.28071,-0.47844 0.0204,-0.12222 -0.10749,-0.34321 -0.11193,-0.50365 -0.003,-0.21652 -0.11108,-0.40811 -0.13263,-0.60503 -0.0558,-0.11187 -0.0164,-0.31332 -0.0771,-0.4473 -0.0228,-0.18627 -0.0345,-0.38268 -0.12339,-0.57716 -0.0624,-0.1218 -0.0503,-0.35971 -0.0923,-0.47903 0.0286,-0.18327 -0.0805,-0.35746 -0.088,-0.5377 -0.0337,-0.1368 -0.0546,-0.32379 -0.0685,-0.49494 -0.0218,-0.17596 -0.0878,-0.41866 0.0723,-0.5195 0.21252,-0.15785 0.49535,-0.1228 0.73546,-0.22917 0.32774,-0.0751 0.66725,-0.10789 0.98198,-0.18852 0.30493,-0.0861 0.59422,-0.21874 0.9083,-0.27827 0.17581,-0.10772 0.40842,-0.0772 0.56519,0.0641 z m -12.08378,-3.82297 c 0.0989,0.2762 -0.48997,0.32649 -0.35175,0.0262 0.0378,-0.15907 0.2948,-0.16519 0.35175,-0.0262 z m 13.91019,5.85363 c 0.25587,0.1262 0.45051,0.34429 0.5873,0.59255 0.10445,0.1142 0.26776,0.24247 0.37108,0.39252 0.11267,0.0734 0.24157,0.26674 0.38639,0.30198 0.0954,0.15854 0.2753,0.26097 0.37598,0.41209 0.13939,0.15907 0.29864,0.29286 0.41531,0.44743 0.15151,0.15823 0.32095,0.31439 0.46095,0.49303 0.15314,0.10019 0.27565,0.25864 0.41229,0.32931 0.13685,0.11357 0.26895,0.19414 0.37784,0.33834 0.18711,0.13893 0.39578,0.15446 0.55778,0.35127 0.15636,0.244 0.2318,0.51423 0.14901,0.77269 0.004,0.19662 -0.0893,0.4313 -0.10248,0.63359 -0.0481,0.27513 -0.15173,0.55402 -0.19324,0.81954 -0.12486,0.21464 -0.10364,0.5468 -0.25311,0.7073 -0.0407,0.27015 -0.21596,0.5641 -0.21626,0.81768 -0.0816,0.24117 -0.12882,0.50886 -0.2478,0.68901 -0.10606,0.20551 -0.21922,0.30392 -0.24061,0.49271 -0.0567,0.36097 -0.3367,0.59592 -0.45053,0.94221 -0.13944,0.24489 -0.30142,0.48989 -0.47504,0.68912 -0.12485,0.15015 -0.20887,0.33181 -0.38432,0.41943 -0.18589,0.14013 -0.41118,0.25877 -0.65,0.31896 -0.16123,0.0757 -0.36107,0.0992 -0.544,0.10205 -0.20862,0.0123 -0.42859,-0.009 -0.6416,-0.10621 -0.18043,-0.0133 -0.42861,-0.10094 -0.55448,-0.23301 -0.19177,-0.13345 -0.38582,-0.25153 -0.49805,-0.44132 -0.19139,-0.20392 -0.35855,-0.47883 -0.50821,-0.70759 -0.054,-0.25502 -0.22183,-0.48787 -0.4223,-0.65677 -0.11761,-0.24117 -0.12877,-0.33318 0.0933,-0.69804 0.20123,-0.2698 0.24315,-0.62748 0.30513,-0.94595 -0.0442,-0.18364 -0.0993,-0.28276 -0.24939,-0.42931 -0.14226,-0.13686 -0.26899,-0.326 -0.46657,-0.38564 -0.20932,-0.0886 -0.42607,-0.019 -0.62661,-0.11408 -0.24619,0.0119 -0.2404,-0.35491 -0.32744,-0.52739 -0.0326,-0.11667 -0.0912,-0.2497 -0.12862,-0.34956 -0.13307,-0.10803 -0.0869,-0.3352 -0.16577,-0.4867 -0.0103,-0.24885 -0.0935,-0.50261 -0.17324,-0.74047 -0.0982,-0.19779 0.0339,-0.38696 0.19285,-0.51316 0.14566,-0.11156 0.29511,-0.21861 0.45135,-0.33748 0.11783,-0.0819 0.23953,-0.16355 0.32204,-0.28672 0.12825,-0.0558 0.19413,-0.20793 0.32281,-0.27919 0.12858,-0.11053 0.22747,-0.23712 0.35737,-0.35522 0.10069,-0.1462 0.24427,-0.23827 0.34703,-0.37921 0.14729,-0.11369 0.27225,-0.2867 0.38656,-0.4306 0.12691,-0.10303 0.22152,-0.23746 0.34629,-0.34667 0.12827,-0.19296 0.30076,-0.34276 0.42281,-0.53797 0.0935,-0.18086 0.25851,-0.29742 0.3786,-0.4336 0.11354,-0.12325 0.19048,-0.28583 0.36027,-0.35647 0.058,0.0156 0.0935,-0.0443 0.13931,0.0152 z m -5.72641,-1.23162 c 0.19806,0.11789 0.14395,0.42235 0.21349,0.6169 0.0458,0.16042 0.0889,0.4042 0.0756,0.55433 -0.006,0.19145 0.1175,0.41083 0.12746,0.60887 -0.0199,0.21233 0.0836,0.43962 0.11104,0.66392 0.0537,0.21685 -0.0114,0.43857 0.0992,0.6448 0.0721,0.22667 0.0907,0.45508 0.11041,0.68144 0.0153,0.18503 0.1031,0.41124 0.21878,0.57399 0.0161,0.2306 0.20195,0.54116 -0.0432,0.728 -0.12822,0.0972 -0.28323,0.14205 -0.36842,0.25298 -0.11794,0.17093 -0.35899,0.20346 -0.47616,0.35976 -0.12042,0.11424 -0.25504,0.16915 -0.4016,0.24465 -0.15354,0.0768 -0.2719,0.21833 -0.45969,0.26827 -0.13694,0.0382 -0.23428,0.20434 -0.39888,0.25337 -0.19361,0.14154 -0.46512,0.15587 -0.6503,0.30881 -0.29729,0.0459 -0.56611,0.28915 -0.88472,0.25867 -0.20866,0.0824 -0.47312,-0.002 -0.67601,-0.10678 -0.26073,-0.10272 -0.51765,-0.23142 -0.68926,-0.44592 -0.15163,-0.031 -0.23864,-0.24578 -0.30339,-0.39922 -0.10894,-0.28215 -0.27041,-0.53505 -0.26888,-0.84768 -0.0364,-0.15893 -0.11385,-0.38896 -0.0453,-0.57638 0.12325,-0.29378 0.12707,-0.62113 0.16854,-0.91588 0.0644,-0.29074 0.0726,-0.62266 0.18585,-0.90703 0.0767,-0.29525 0.16409,-0.59881 0.21196,-0.89614 0.082,-0.34363 0.18246,-0.69581 0.29213,-1.02414 0.0719,-0.17714 0.16442,-0.48353 0.42378,-0.47588 0.20824,-0.0374 0.47695,-0.023 0.69075,-0.0866 0.18945,-0.0224 0.397,-0.022 0.59443,-0.0769 0.29911,-0.0758 0.65755,-0.0417 0.94053,-0.13144 0.17669,-0.0312 0.38045,1.8e-4 0.5554,-0.0741 0.19315,-0.0103 0.37145,-0.10198 0.57125,-0.055 0.0177,-0.0398 0.0507,-0.0332 0.0751,3.5e-4 z m 2.72284,9.20299 c 0.14128,0.11473 -0.003,0.35142 -0.14075,0.39444 -0.18732,0.009 -0.29269,-0.0994 -0.27863,-0.26913 0.075,-0.14769 0.23547,-0.31997 0.41941,-0.1253 z m 15.5105,-43.70567 c -0.17734,-2.5e-4 -0.38513,-0.15243 -0.58935,-0.0838 -0.1546,-0.0154 -0.31078,0.22266 -0.12523,0.2808 0.14835,0.10808 0.37623,0.0864 0.54665,0.15816 0.17502,0.13034 0.40146,0.26881 0.61425,0.3601 0.15859,0.12693 0.32634,0.23293 0.47547,0.35198 0.16565,0.15847 0.36702,0.29885 0.51567,0.4773 0.14445,0.22829 0.37513,0.0232 0.25213,-0.15012 -0.13317,-0.16193 -0.27154,-0.34879 -0.43172,-0.50855 -0.15589,-0.15109 -0.36617,-0.33378 -0.54631,-0.48836 -0.25019,-0.14814 -0.4217,-0.31365 -0.71115,-0.39736 z m 1.15004,5.14217 c -0.32874,-0.0394 -0.24549,0.33425 -0.0469,0.45663 0.15625,0.14179 0.29454,0.2552 0.40505,0.42781 0.19035,0.0617 0.29747,0.30669 0.48133,0.39979 0.10536,0.13915 0.28085,0.23869 0.43589,0.34953 0.24204,0.12003 0.45238,0.3483 0.71766,0.41226 0.26393,-0.0386 0.0151,-0.34214 -0.10085,-0.4476 -0.15647,-0.14643 -0.32596,-0.29232 -0.50163,-0.42785 -0.18228,-0.0733 -0.34452,-0.23633 -0.51676,-0.35549 -0.20289,-0.12071 -0.31705,-0.30418 -0.48906,-0.45076 -0.13275,-0.12156 -0.23265,-0.28213 -0.38444,-0.36428 z m 0.44761,3.24535 c -0.29144,-0.0604 -0.19149,0.21551 -0.0696,0.35518 0.13065,0.21713 0.27046,0.37261 0.4576,0.53158 0.15701,0.15775 0.3708,0.30435 0.48474,0.46709 0.0663,0.11995 0.30525,0.15347 0.25914,-0.0545 -0.0425,-0.25176 -0.27743,-0.43795 -0.42396,-0.64532 -0.14608,-0.12603 -0.26446,-0.24856 -0.40968,-0.36672 -0.0814,-0.10728 -0.16557,-0.21868 -0.29813,-0.28734 z" /><text
   transform="matrix(0.92165125,0.3880193,0.3880193,-0.92165125,0,0)"
   id="text42"
   y="-556.47797"
   x="508.46124"
   style="font-style:normal;font-variant:normal;font-weight:normal;font-stretch:normal;font-size:13.60870934px;line-height:125%;font-family:CasablancaAntique;-inkscape-font-specification:CasablancaAntique;text-align:start;letter-spacing:7.41000032px;word-spacing:0px;text-anchor:start;fill:#cccccc;fill-opacity:1;stroke:none;stroke-width:0.34021774px;stroke-linecap:butt;stroke-linejoin:miter;stroke-opacity:1"
   xml:space="preserve"><tspan
     id="tspan25"
     style="font-style:normal;font-variant:normal;font-weight:normal;font-stretch:normal;font-family:CasablancaAntique;-inkscape-font-specification:CasablancaAntique;text-align:start;letter-spacing:8.23500019px;text-anchor:start;fill:#cccccc;stroke-width:0.34021774px"
     y="-556.47797"
     x="508.46124"
     sodipodi:role="line">XIV RAJD</tspan></text>

<text
   transform="matrix(0.92165125,0.3880193,0.3880193,-0.92165125,0,0)"
   id="text31"
   y="-540.00299"
   x="508.62451"
   style="font-style:normal;font-variant:normal;font-weight:normal;font-stretch:normal;font-size:13.60870934px;line-height:125%;font-family:CasablancaAntique;-inkscape-font-specification:CasablancaAntique;letter-spacing:4.44880581px;word-spacing:0px;fill:#cccccc;fill-opacity:1;stroke:none;stroke-width:0.34021774px;stroke-linecap:butt;stroke-linejoin:miter;stroke-opacity:1"
   xml:space="preserve"><tspan
     style="letter-spacing:4.44880581px;fill:#cccccc;stroke-width:0.34021774px"
     y="-540.00299"
     x="508.62451"
     id="tspan29"
     sodipodi:role="line">COLLEGIUM</tspan></text>

<text
   transform="matrix(0.92165125,0.3880193,0.3880193,-0.92165125,0,0)"
   id="text53"
   y="-523.78699"
   x="508.66595"
   style="font-style:normal;font-variant:normal;font-weight:normal;font-stretch:normal;font-size:13.60870934px;line-height:125%;font-family:CasablancaAntique;-inkscape-font-specification:CasablancaAntique;letter-spacing:6.36754274px;word-spacing:0px;fill:#cccccc;fill-opacity:1;stroke:none;stroke-width:0.34021774px;stroke-linecap:butt;stroke-linejoin:miter;stroke-opacity:1"
   xml:space="preserve"><tspan
     style="letter-spacing:6.36754274px;fill:#cccccc;stroke-width:0.34021774px"
     y="-523.78699"
     x="508.66595"
     id="tspan51"
     sodipodi:role="line">PHYSICUM</tspan></text>

<text
   transform="matrix(0.92165125,0.3880193,0.3880193,-0.92165125,0,0)"
   id="text57"
   y="-512.1438"
   x="508.77118"
   style="font-style:normal;font-variant:normal;font-weight:normal;font-stretch:normal;font-size:8.80029869px;line-height:125%;font-family:CasablancaAntique;-inkscape-font-specification:CasablancaAntique;letter-spacing:0.73238844px;word-spacing:0px;fill:#cccccc;fill-opacity:1;stroke:none;stroke-width:0.34021774px;stroke-linecap:butt;stroke-linejoin:miter;stroke-opacity:1"
   xml:space="preserve"><tspan
     style="font-size:8.80029869px;letter-spacing:0.73238844px;fill:#cccccc;stroke-width:0.34021774px"
     y="-512.1438"
     x="508.77118"
     id="tspan55"
     sodipodi:role="line">Uniwersytetu Jagielloskiego</tspan></text>

<rect
   transform="matrix(0.92165125,0.3880193,0.3880193,-0.92165125,0,0)"
   y="-571.78143"
   x="466.64429"
   height="1.7011025"
   width="157.37271"
   id="rect61"
   style="opacity:1;fill:#cccccc;fill-opacity:1;fill-rule:nonzero;stroke:none;stroke-width:1.05614257;stroke-linecap:square;stroke-miterlimit:4;stroke-dasharray:none" /><rect
   style="opacity:1;fill:#cccccc;fill-opacity:1;fill-rule:nonzero;stroke:none;stroke-width:1.05614281;stroke-linecap:square;stroke-miterlimit:4;stroke-dasharray:none"
   id="rect63"
   width="157.37273"
   height="1.7011025"
   x="466.64429"
   y="-507.14005"
   transform="matrix(0.92165125,0.3880193,0.3880193,-0.92165125,0,0)" /><text
   transform="matrix(0.92165125,0.3880193,0.3880193,-0.92165125,0,0)"
   id="text4509"
   y="-573.53296"
   x="466.64429"
   style="font-style:normal;font-variant:normal;font-weight:normal;font-stretch:normal;font-size:8.87743568px;line-height:125%;font-family:CasablancaAntique;-inkscape-font-specification:CasablancaAntique;letter-spacing:2.60250006px;word-spacing:0px;fill:#cccccc;fill-opacity:1;stroke:none;stroke-width:0.60527968px;stroke-linecap:butt;stroke-linejoin:miter;stroke-opacity:1;"
   xml:space="preserve"><tspan
     style="font-size:8.87743568px;letter-spacing:2.60250006px;fill:#cccccc;stroke-width:0.60527968px;"
     y="-573.53296"
     x="466.64429"
     id="tspan4507"
     sodipodi:role="line">Karkonosze, 10-12 maja 2019</tspan></text>

<text
   transform="matrix(0.92165125,0.3880193,0.3880193,-0.92165125,0,0)"
   id="text4513"
   y="-496.3598"
   x="466.64429"
   style="font-style:normal;font-variant:normal;font-weight:normal;font-stretch:normal;font-size:24.21118736px;line-height:125%;font-family:CasablancaAntique;-inkscape-font-specification:CasablancaAntique;letter-spacing:3.31087995px;word-spacing:0px;fill:#cccccc;fill-opacity:1;stroke:none;stroke-width:0.60527968px;stroke-linecap:butt;stroke-linejoin:miter;stroke-opacity:1"
   xml:space="preserve"><tspan
     style="font-size:8.87743568px;letter-spacing:3.31087995px;fill:#cccccc;stroke-width:0.60527968px"
     y="-496.3598"
     x="466.64429"
     id="tspan4511"
     sodipodi:role="line">http://rajd.if.uj.edu.pl/</tspan></text>

</g>


</g></g></svg>