<?xml version="1.0" encoding="UTF-8" standalone="no"?>
<!-- Created with Inkscape (http://www.inkscape.org/) -->

<svg
   xmlns:dc="http://purl.org/dc/elements/1.1/"
   xmlns:cc="http://creativecommons.org/ns#"
   xmlns:rdf="http://www.w3.org/1999/02/22-rdf-syntax-ns#"
   xmlns:svg="http://www.w3.org/2000/svg"
   xmlns="http://www.w3.org/2000/svg"
   xmlns:sodipodi="http://sodipodi.sourceforge.net/DTD/sodipodi-0.dtd"
   xmlns:inkscape="http://www.inkscape.org/namespaces/inkscape"
   version="1.1"
   id="svg10"
   xml:space="preserve"
   width="90mm"
   height="50mm"
   viewBox="0 0 340.15747 188.97639"
   sodipodi:docname="front.svg"
   inkscape:version="0.92.2 2405546, 2018-03-11"><metadata
     id="metadata16"><rdf:RDF><cc:Work
         rdf:about=""><dc:format>image/svg+xml</dc:format><dc:type
           rdf:resource="http://purl.org/dc/dcmitype/StillImage" /><dc:title></dc:title></cc:Work></rdf:RDF></metadata><defs
     id="defs14" /><sodipodi:namedview
     pagecolor="#ffffff"
     bordercolor="#666666"
     borderopacity="1"
     objecttolerance="10"
     gridtolerance="10"
     guidetolerance="10"
     inkscape:pageopacity="0"
     inkscape:pageshadow="2"
     inkscape:window-width="1278"
     inkscape:window-height="678"
     id="namedview12"
     showgrid="true"
     units="mm"
     inkscape:zoom="1"
     inkscape:cx="181.81427"
     inkscape:cy="44.20944"
     inkscape:window-x="0"
     inkscape:window-y="20"
     inkscape:window-maximized="1"
     inkscape:current-layer="g20"
     showguides="false"
     inkscape:measure-start="97,30.0001"
     inkscape:measure-end="97,21.0001"
     fit-margin-top="0"
     fit-margin-left="0"
     fit-margin-right="0"
     fit-margin-bottom="0"><inkscape:grid
       type="xygrid"
       id="grid59"
       originx="-170.00001"
       originy="-849.99993" /></sodipodi:namedview><g
     id="g18"
     inkscape:groupmode="layer"
     inkscape:label="koszulka_przod_kolor_krzywe"
     transform="matrix(1.3333333,0,0,-1.3333333,-170,1038.9764)"><g
       id="g20"><text
   xml:space="preserve"
   style="font-style:normal;font-variant:normal;font-weight:normal;font-stretch:normal;font-size:24.21118736px;line-height:125%;font-family:CasablancaAntique;-inkscape-font-specification:CasablancaAntique;letter-spacing:0px;word-spacing:0px;fill:#808080;fill-opacity:1;stroke:none;stroke-width:0.60527968px;stroke-linecap:butt;stroke-linejoin:miter;stroke-opacity:1"
   x="472.69708"
   y="-575.04614"
   id="text4505"
   transform="matrix(0.92165125,0.3880193,0.3880193,-0.92165125,0,0)"><tspan
     sodipodi:role="line"
     id="tspan4503"
     x="472.69708"
     y="-554.9967"
     style="fill:#808080;stroke-width:0.60527968px" /></text>

<rect
   style="opacity:1;fill:#ffffff;fill-opacity:1;stroke:none;stroke-width:0.75;stroke-miterlimit:4;stroke-dasharray:none;stroke-opacity:1"
   id="rect5259"
   width="255"
   height="142.5"
   x="127.49999"
   y="-780.00006"
   transform="scale(1,-1)" /><path
   inkscape:connector-curvature="0"
   style="fill:#cccccc;fill-opacity:1;fill-rule:nonzero;stroke:none;stroke-width:1.73988807"
   d="m 173.85897,647.55358 c -0.38738,0.24467 -0.0475,0.63206 0.0816,0.80877 0.4078,0.25146 0.61168,1.01947 1.07385,1.24374 0.35339,0.42819 0.99907,0.43498 1.33889,0.0475 0.27864,-0.18351 0.50973,-0.72723 0.86994,-0.35343 0.33303,0.2039 0.48934,0.68646 0.62526,1.07384 0.12232,0.26508 0.27186,0.53693 0.37382,0.84278 0.10875,0.34661 0.40777,0.68642 0.59808,1.02625 0.23109,0.3874 0.70004,0.70682 0.7748,1.18258 -0.0613,0.46895 -0.27186,0.86314 -0.3942,1.29811 -0.0952,0.46896 -0.3942,0.84277 -0.38739,1.32531 -0.13589,0.31264 -0.1971,0.63887 -0.31943,0.95829 -0.14267,0.45537 -0.25147,0.92432 -0.37382,1.36609 -0.0816,0.50974 -0.25825,1.01268 -0.33982,1.50882 -0.14945,0.46215 -0.25146,0.96508 -0.3602,1.46804 -0.10196,0.60487 -0.2039,1.16897 -0.32624,1.74667 -0.0952,0.60488 -0.22428,1.17578 -0.31942,1.78747 0.0681,0.70002 -0.7748,0.63885 -1.20978,0.40098 -0.46895,-0.0952 -0.86314,-0.3874 -1.3117,-0.46215 -0.23107,-0.0407 -0.5777,-0.14268 -0.77479,-0.10876 -0.26507,0.0139 -0.52335,0 -0.86996,0.0884 -0.76118,0.0952 -1.36608,0.62528 -2.18845,0.4146 -0.59809,-0.10196 -0.92431,-0.33984 -1.40007,-0.62528 -0.49613,-0.27866 -1.08743,-0.30584 -1.67191,-0.18351 -0.48255,0.068 -0.92432,0.19031 -1.37968,0.29227 -0.82236,0.29223 -1.73989,0.0748 -2.56225,0.35341 -0.34661,0.12231 -0.66606,0.29905 -1.01947,0.47575 -0.367,0.21069 -0.79517,0.3738 -1.10782,0.57769 -0.42817,0.22428 -0.82916,0.54372 -1.16898,0.87674 -0.35342,0.40099 -0.82915,0.66606 -1.11463,1.11462 -0.53691,0.5777 -1.17578,1.10102 -1.62434,1.73309 -0.21749,0.30584 -0.38738,0.61847 -0.63206,0.91072 -0.18351,0.36021 -0.41458,0.70003 -0.55052,1.09424 -0.25146,0.25825 -0.27864,0.72722 -0.41458,1.05344 -0.0748,0.31944 -0.26506,0.61847 -0.36021,0.9515 -0.15624,0.38741 -0.19029,0.89033 -0.33302,1.29132 -0.1291,0.63208 -0.25147,1.23016 -0.32624,1.86903 -0.0816,0.78159 -0.21749,1.50201 -0.25825,2.304 -0.10196,0.78837 -0.1971,1.65831 -0.14267,2.43992 -0.0952,0.97868 -0.23788,1.98454 -0.19031,3.01081 -0.0613,1.00586 0.0748,1.89621 0.0952,2.8613 0.0816,0.80878 0.0475,1.63795 0.21068,2.41274 0.0543,0.81557 0.2243,1.62434 0.32623,2.41952 0.1291,0.48256 0.19031,1.02628 0.34663,1.52241 0.1291,0.33303 0.19031,0.70005 0.38739,1.01947 0.23788,0.60488 0.93111,0.55052 1.35249,0.1971 0.47576,-0.33302 0.82917,-0.81558 1.05345,-1.31852 0.21749,-0.32622 0.3534,-0.70683 0.5777,-1.01947 0.19031,-0.31263 0.30584,-0.66604 0.48253,-0.97868 0.28547,-0.48255 0.50295,-1.00586 0.84278,-1.46803 0.24468,-0.35341 0.47575,-0.79518 0.71363,-1.14181 0.23107,-0.27864 0.3738,-0.58449 0.63884,-0.84955 0.23788,-0.42817 0.70683,-0.80876 1.0127,-1.18936 0.18348,-0.23788 0.40097,-0.43498 0.58448,-0.67966 0.21748,-0.29903 0.46895,-0.5573 0.67284,-0.86994 0.4078,-0.41458 0.74762,-0.89713 1.23696,-1.23695 0.44856,-0.42817 0.9447,-0.76121 1.42046,-1.20977 0.78838,-0.52332 1.56317,-1.10102 2.33796,-1.65153 0.44177,-0.29905 0.89714,-0.65925 1.30492,-1.08064 0.44177,-0.31942 0.80198,-0.81557 1.30491,-1.05344 0.33983,-0.18351 0.63888,-0.50975 0.89714,-0.7544 0.22429,-0.25147 0.52332,-0.52333 0.72042,-0.80879 0.27865,-0.32623 0.46217,-0.65924 0.72044,-1.00586 0.24465,-0.4078 0.44175,-0.80198 0.65924,-1.24377 0.13588,-0.26504 0.3602,-0.59809 0.45536,-0.88352 0.15624,-0.30584 0.21748,-0.61848 0.3806,-0.89035 0.0613,-0.95829 -0.0407,-1.89619 -0.21069,-2.78653 -0.1223,-0.40099 -0.22428,-0.86994 -0.38739,-1.24374 -0.11553,-0.33984 -0.34663,-0.7612 -0.55731,-1.09423 -0.35342,-0.46896 -0.5913,-0.97188 -1.05345,-1.35929 -0.31944,-0.22429 -1.09423,-0.42817 -0.48934,-0.74081 0.53012,-0.28545 1.20298,-0.21068 1.76707,-0.31942 0.1903,0.0816 0.55051,-0.0475 0.78838,0.0748 0.59129,0 1.7263,0.0139 1.65833,0.84276 -0.0748,0.80197 -0.12231,1.65153 -0.27185,2.42632 -0.0543,0.67286 -0.10196,1.40008 -0.0952,2.00494 -0.0204,0.65247 0.0139,1.53601 -0.0884,2.21566 0.007,1.03305 -0.2039,2.01174 -0.0204,3.02441 -0.0816,0.86994 -0.007,1.86902 0.0613,2.72538 0.0272,0.59808 0.10876,1.40685 0.14267,2.07971 0,0.64565 0.0816,1.40006 0.13589,1.97095 0,0.61168 0.0613,1.47484 0.1223,1.9302 0.0272,0.7476 0.0748,1.49521 0.1971,2.19526 0.10876,0.89031 0.19031,1.71949 0.29225,2.62341 0.13588,0.82237 0.25827,1.59717 0.33304,2.42633 0.0816,0.7544 0.27185,1.55638 0.3534,2.35156 0.11553,0.55052 0.2039,1.05346 0.27866,1.62437 0.0952,0.39418 0.23107,0.83594 0.36701,1.20975 0.12911,0.33982 0.23786,0.72723 0.27865,1.11461 0.22428,0.42819 0.19709,0.84955 -0.25828,0.16999 -0.33981,-0.5777 -0.69322,-0.82916 -1.16897,-1.37288 -0.27185,-0.34661 -0.70683,-0.59128 -0.99228,-0.91751 -0.48934,-0.67965 -1.29813,-0.80879 -1.73988,-1.55638 -0.48256,-0.42138 -0.93791,-0.89034 -1.52921,-1.18259 -0.47576,-0.33982 -0.93112,-0.84955 -1.44084,-1.03986 -0.32623,-0.19709 -0.69324,-0.5845 -1.07384,-0.63887 -0.61848,-0.43497 -1.41365,-0.367 -2.1137,-0.25147 -0.3738,0.12232 -0.78838,0.15625 -1.10781,0.4078 -0.56412,0.31943 -1.14861,0.74081 -1.61077,1.27772 -0.36701,0.3738 -0.70002,0.7544 -0.97868,1.17578 -0.24468,0.28545 -0.44178,0.58451 -0.63887,0.88354 -0.12232,0.30584 -0.35341,0.58449 -0.42139,0.90393 -0.21748,0.32622 -0.22427,0.74081 -0.38738,1.06705 -0.25148,0.67283 -0.24469,1.39327 -0.31264,2.14767 -0.0407,0.67965 -0.30584,1.25734 -0.27866,1.95737 -0.0272,0.5573 0.0204,1.22336 -0.1971,1.74669 0.1971,0.59128 -0.25825,1.36607 0,2.05251 -0.0272,0.73402 0.0272,1.46124 0.33303,2.07292 0.17671,0.65246 0.30584,1.31172 0.38741,2.01174 -0.0204,0.71364 -0.72044,-0.19709 -1.14861,-0.0884 -0.42816,-0.12232 -1.05345,-0.21749 -1.49523,0.0816 -0.24464,0.16998 -0.50971,0.33983 -0.74759,0.55052 -0.38738,0.28546 -0.7816,0.5913 -0.94471,1.01947 -0.20388,0.34661 -0.72041,0.0204 -1.08743,0.0475 -0.51652,0.15624 -0.97189,0.35343 -1.5088,0.21748 -0.50973,0.0748 -0.99907,0.16999 -1.46803,0.36702 -0.31263,0.14946 -0.60488,0.27185 -0.96509,0.33981 -0.27866,0.2107 -0.76121,0.2311 -1.00588,0.54372 -0.36021,0.2311 -0.67963,0.55052 -0.97869,0.82918 -0.39419,0.52332 -0.52333,1.17577 -0.42137,1.8962 0.11553,0.57091 0.14946,0.83597 0.21069,1.36609 0.13588,0.5641 0.23787,1.12141 0.35342,1.66513 0.14946,0.32622 0.31943,0.65245 0.50971,0.99227 0.25828,0.42138 0.44859,0.79518 0.70005,1.18937 0.29225,0.39421 0.5777,0.81557 0.80877,1.27094 0.25827,0.67284 0.768,1.21656 1.29813,1.74669 0.36021,0.45536 0.9311,1.02625 1.40686,1.53599 0.14945,0.5913 1.85542,1.28452 1.01266,1.86222 -0.44856,0.0407 -0.79518,0.33984 -1.19617,0.42138 -0.31264,0.1835 -0.64566,0.27185 -0.92431,0.52333 -0.36701,0.23108 -0.74082,0.31943 -1.08063,0.61848 -0.29225,0.16302 -0.44858,0.59808 -0.78159,0.72041 -0.31945,0.16303 -0.61848,0.42138 -0.91753,0.57771 -0.32624,0.14946 -0.63206,0.30584 -0.97869,0.46896 -0.36021,0.19029 -0.67964,0.46895 -1.03985,0.65245 -0.40779,0.29904 -0.86315,0.53692 -1.18939,0.93791 -0.51652,0.27866 -0.9107,0.734 -1.33889,1.10102 -0.24466,0.23787 -0.3806,0.59809 -0.60487,0.89713 -0.31264,0.21749 -0.44858,0.60487 -0.50295,0.96509 0.0139,0.47575 0.14267,0.89033 0.35342,1.28454 0.0748,0.30584 0.21069,0.61167 0.28545,0.9379 0.23788,0.53013 0.50973,1.03985 0.84276,1.58356 0.65925,0.73403 1.3321,1.22337 2.16807,1.66515 0.30583,0.16999 0.59127,0.3806 0.9447,0.53691 0.36701,0.22429 0.78838,0.34661 1.16898,0.63206 0.38741,0.22429 0.92432,0.29225 1.40688,0.31942 0.3602,0.0272 0.74759,0.24469 1.135,0.27187 0.47574,0.12909 1.08062,0.16999 1.5292,0.20389 0.7612,-0.10875 1.46122,0.0139 2.19525,0.0204 0.42817,0.0272 1.17578,0.26507 0.9379,0.82918 -0.0407,0.36699 -0.35342,0.59128 -0.45537,0.94469 -0.21067,0.38059 -0.58449,0.63206 -1.08742,0.39418 -0.52332,-0.0613 -0.90392,0.2039 -1.33211,0.47576 -0.33982,0.40099 -0.91751,0.65926 -1.03307,1.21656 -0.25824,0.25147 -0.23107,0.7612 -0.42816,1.04665 -0.15624,0.3942 -0.19029,0.84276 0.0952,1.22336 0.51652,0.43498 0.85636,1.09423 0.51652,1.7195 -0.16302,0.52332 -0.1971,1.17579 -0.3806,1.73989 -0.33982,0.52333 -0.11553,1.33209 -0.27185,1.94379 -0.0543,0.42137 -0.0475,0.88353 0.13588,1.29131 0.21068,0.34662 0.33982,0.84957 0.73401,1.12821 0.3874,0.44856 0.86316,0.70005 1.3525,0.9651 0.45537,0.29904 0.97868,0.5777 1.48842,0.70003 0.74759,0.0952 1.56317,0.0748 2.30399,-0.0204 0.74081,-0.0952 1.47482,-0.0748 2.18165,-0.24466 0.50973,-0.14267 0.93112,-0.36701 1.44085,-0.44856 0.59129,-0.21749 1.23016,-0.40779 1.84183,-0.5641 0.31942,-0.12232 0.61168,-0.26508 0.91751,-0.40099 0.28547,-0.17671 0.63209,-0.31265 0.90395,-0.48256 0.39418,-0.1971 0.78838,-0.48935 1.21654,-0.64566 0.34663,-0.25827 0.80198,-0.52332 1.28454,-0.32623 0.30584,0.42138 -0.0407,1.06704 0.23108,1.50202 0.0748,0.54371 0.12232,1.04665 0.33982,1.54959 -0.28545,0.67285 0.14946,1.19618 0.1971,1.80105 -0.13589,0.46216 0.0613,0.84956 0.1835,1.29132 0.1291,0.53013 0.31264,0.9855 0.35342,1.5428 0.0952,0.48253 0.18349,0.92431 0.35341,1.36608 0.10196,0.31263 0.35341,0.63207 0.60488,0.91752 0.14946,0.36701 0.46895,0.72042 0.70683,1.06704 0.59129,0.50293 1.03985,1.27773 1.83504,1.33889 0.37381,0.12232 0.72721,0.31945 1.14179,0.33303 0.55733,-0.0407 0.9923,0.17671 1.43406,0.0681 0.31264,0.068 0.70683,-0.10196 1.06025,-0.21068 0.81557,-0.28545 1.45445,-0.82916 2.08651,-1.42046 0.16998,-0.21749 0.33981,-0.54372 0.62526,-0.76121 0.46895,-0.51652 1.03986,-0.99227 1.44764,-1.52239 0.19031,-0.31944 0.4078,-0.70004 0.5845,-1.05346 0.1835,-0.27864 0.46217,-0.54372 0.59809,-0.84275 0.1767,-0.27185 0.33981,-0.5641 0.55052,-0.78159 0.25824,-0.28545 0.33981,-0.73402 0.7408,-0.77479 0.56411,0.10196 0.81558,0.7612 1.18937,1.16899 0.14946,0.46216 0.53012,0.75441 0.91753,1.01946 0.50294,0.40778 0.70683,0.9651 0.84275,1.5156 0.16303,0.3874 0.21068,0.82237 0,1.17578 -0.27866,0.39421 -0.55051,0.83597 -0.40099,1.35929 0.0884,0.36701 0.19031,0.74761 0.50293,1.01947 0.28547,0.28545 0.5913,0.5573 0.97868,0.74761 0.50974,0.23788 1.07385,0.23107 1.56319,0.0748 0.45537,-0.0204 0.88354,-0.36021 1.37288,-0.2107 0.54371,0 0.93112,0.2107 1.40688,0.44858 0.5573,0.34661 0.99227,0.91751 1.56318,1.20976 0.1767,0.27866 0.44176,0.3602 0.77479,0.52333 0.29903,0.24467 0.78837,0.25827 1.11461,0.44177 0.48934,-0.0139 1.05345,0.22427 1.46802,0.13589 0.55733,-0.0613 1.12822,-0.0613 1.65155,-0.26506 0.46895,0.0139 0.74761,-0.44177 1.18938,-0.45537 0.36021,-0.22428 0.83595,-0.46216 1.05344,-0.88352 0.23788,-0.1971 0.44177,-0.44178 0.65926,-0.68644 0.27185,-0.32623 0.60488,-0.71364 0.72041,-1.11463 0.22429,-0.32622 0.31945,-0.71363 0.50974,-1.06023 0.14946,-0.68646 0.27185,-1.40688 0.26507,-2.16808 0.0204,-0.95149 0.21069,-1.82824 0.20388,-2.79333 -0.0884,-0.42818 -0.0139,-0.85635 -0.0339,-1.28453 -0.0748,-0.46215 -0.25147,-1.06024 -0.30583,-1.58356 -0.007,-0.61848 -0.2243,-1.20978 -0.1903,-1.89622 0.0543,-0.7816 -0.31945,-1.44763 -0.31264,-2.22243 -0.15624,-0.40779 -0.12231,-0.9719 -0.27866,-1.42724 -0.22428,-0.48935 0.10875,-0.85636 0.59808,-0.93793 0.64568,-0.14267 1.29814,0.25147 1.86903,0.11553 0.74761,-0.0475 1.42725,0.23786 2.14769,0.14268 0.52331,0.068 0.97187,0.0139 1.52239,0 0.58448,0.068 1.24374,0.007 1.7399,-0.14268 0.55049,-0.0748 1.10779,-0.0272 1.59714,-0.29225 0.46216,-0.23787 0.768,-0.68643 1.25735,-0.93112 0.30584,-0.29904 0.59808,-0.61848 0.82237,-0.95151 0.22427,-0.3806 0.38739,-0.91071 0.45537,-1.35928 -0.0884,-0.49613 -0.0339,-0.91751 -0.10876,-1.54278 -0.16303,-0.49615 -0.0816,-0.84957 -0.16303,-1.27774 -0.0952,-0.46895 -0.19708,-0.99908 -0.38739,-1.40685 -0.0884,-0.33984 -0.31943,-0.62529 -0.45537,-0.93793 -0.28545,-0.51652 -0.49613,-0.99906 -0.77479,-1.5088 -0.35343,-0.28546 -0.72723,-0.7748 -1.00588,-1.08064 -0.16303,-0.22428 -0.3466,-0.40097 -0.57769,-0.58448 -0.23788,-0.33303 -0.63886,-0.65926 -0.7748,-1.01947 -0.29903,-0.35342 -0.67285,-0.7544 -0.86314,-1.06704 -0.29906,-0.15624 -0.68644,-0.5641 -0.95829,-0.89714 -0.36021,-0.21068 -0.0475,-0.93109 0.39419,-0.89033 0.38739,-0.19029 0.84274,-0.48254 1.26413,-0.20389 0.30583,0.20389 0.5777,0.50294 1.01947,0.59129 0.40778,-0.0407 0.9447,0.32624 1.28453,0.19029 0.40779,-0.0204 0.78159,-0.1291 1.16219,-0.21749 0.23788,0.0748 0.64565,-0.1291 0.88353,-0.3534 0.27865,-0.21748 0.43497,-0.5573 0.52332,-0.89034 0.0884,-0.51652 0.50973,-0.91751 0.3806,-1.50881 0.0748,-0.65924 0.70004,-0.97869 1.11463,-1.45442 0.42138,-0.41459 0.84275,-0.82919 1.16897,-1.30492 0.26508,-0.23788 0.401,-0.59809 0.65247,-0.84957 0.24467,-0.29904 0.29905,-0.65246 0.46216,-1.01267 0.22428,-0.80196 0.16999,-1.78746 -0.0204,-2.59623 -0.14267,-0.5777 -0.43498,-1.08064 -0.73402,-1.57677 -0.1767,-0.23788 -0.31943,-0.4078 -0.55051,-0.55731 -0.34662,-0.33302 -0.768,-0.67964 -1.18258,-0.9447 -0.29905,-0.31944 -0.82918,-0.55052 -1.22337,-0.70004 -0.37379,-0.10195 -0.73401,-0.35341 -1.12821,-0.46215 -0.36021,-0.10876 -0.76799,-0.20389 -1.04665,-0.46217 -0.42138,-0.0748 -0.58449,-0.31263 -0.91072,-0.45536 -0.40778,-0.16999 -0.74081,-0.32622 -1.12821,-0.53011 -0.46216,-0.33983 -1.04664,-0.12231 -1.54959,-0.30585 -0.48253,-0.0952 -0.99908,-0.0139 -1.42044,-0.0613 -0.44178,0.0407 -1.29133,0.12909 -1.31852,-0.55051 0.0884,-0.44855 0.25146,-0.83596 0.40779,-1.27774 0.22429,-0.25827 0.29904,-0.64565 0.51652,-0.92432 0.10875,-0.43496 0.59808,-0.5301 0.80879,-0.91072 0.24466,-0.31942 0.3738,-0.7544 0.72722,-0.97869 0.42137,-0.36699 0.0613,-1.08062 0.41458,-1.45442 0.10876,-0.40099 0.32622,-0.74761 0.38739,-1.19617 0.14267,-0.49615 0.28546,-0.99229 0.36701,-1.52241 0.16302,-0.46216 0.21068,-0.96509 0.36701,-1.43404 0.1903,-0.44857 0.1767,-0.99909 0.35341,-1.44086 0.12231,-0.49613 -0.12232,-0.90392 -0.27186,-1.29811 -0.23788,-0.3806 -0.367,-0.89034 -0.72722,-1.10101 -0.32623,-0.33984 -0.7544,-0.46218 -1.14181,-0.67966 -0.32622,-0.16303 -0.76118,-0.23108 -1.09421,-0.38739 -0.43497,-0.0816 -0.92431,-0.16302 -1.3525,-0.25826 -0.5777,0.0543 -1.135,0.0952 -1.71269,0.26504 -0.61848,0.0613 -1.29133,0.14267 -1.77387,0.18351 -0.51655,0.12911 -1.00589,0.14946 -1.52241,0.33982 -0.40779,0.11553 -0.82916,0.3942 -1.31172,0.38741 -0.33301,0.12909 -0.61847,0.27185 -0.97868,0.33981 -0.33302,0.2039 -0.66605,0.31945 -1.05346,0.45536 -0.38738,0.12232 -0.66604,0.36702 -1.05344,0.44857 -0.40098,0.0748 -0.83594,0.33303 -1.29812,0.31944 -0.51652,-0.62528 -0.43497,-1.86902 -0.10196,-2.52829 0.23108,-0.41458 0.81558,-0.5573 0.81558,-1.1146 0.11553,-0.55733 0.3602,-1.11463 0.19031,-1.7331 -0.11553,-0.31263 -0.26507,-0.66605 -0.38741,-1.03306 -0.1835,-0.48935 -0.64564,-0.59809 -1.06704,-0.7544 -0.52332,0.0952 -0.88352,-0.30584 -0.9447,-0.7612 -0.14267,-0.25147 -0.25827,-0.63207 -0.4078,-0.93112 -0.19028,-0.29223 -0.1767,-0.66604 -0.36699,-0.96509 -0.13589,-0.35342 -0.29905,-0.70682 -0.49615,-0.99229 -0.27865,-0.53691 -0.75439,-1.06704 -1.25735,-1.52239 -0.44856,-0.27866 -0.9107,-0.5709 -1.33208,-0.7544 -0.53013,-0.2039 -1.12822,-0.29225 -1.76029,-0.18351 -0.41457,0.0884 -0.82237,0.10196 -1.17578,0.37382 -0.52332,0.26504 -0.90392,0.67963 -1.3661,1.03304 -0.29903,0.24467 -0.65245,0.44177 -0.95148,0.65926 -0.3738,0.20389 -0.54372,0.63887 -0.89714,0.90391 -0.26506,0.45537 -0.67285,0.91074 -1.08062,1.25735 -0.15625,0.23788 -0.41459,0.46216 -0.51655,0.768 -0.41458,0.38739 -0.84955,0.75441 -1.1146,1.25734 -0.1971,0.31265 -0.31264,0.72042 -0.55052,1.03987 -0.13589,0.51652 -0.68644,0.333 -1.05343,0.21068 -0.59811,-0.2039 -0.87675,-0.65247 -0.86316,-1.30492 -0.1903,-0.40778 -0.21749,-0.89712 -0.35341,-1.3321 -0.12231,-0.49614 -0.22428,-1.00587 -0.31264,-1.50202 -0.10196,-0.57089 -0.25146,-1.14858 -0.3806,-1.71949 -0.068,-0.61168 -0.22429,-1.18257 -0.29225,-1.79426 -0.11553,-0.46216 -0.16302,-0.93792 -0.30583,-1.37288 -0.0475,-0.70683 -0.19031,-1.40686 -0.28545,-2.08651 -0.16999,-0.69322 -0.14267,-1.47481 -0.26507,-2.20204 -0.0816,-0.768 -0.17671,-1.55638 -0.23108,-2.35158 -0.007,-0.97869 -0.0816,-1.95058 -0.1903,-2.91567 0.0204,-0.74082 -0.0272,-1.59716 -0.0543,-2.36516 -0.12232,-0.59808 -0.0272,-1.33889 -0.0681,-1.82823 0.007,-0.35342 0.0681,-0.5641 -0.007,-0.85636 0.13587,-0.9583 0.0475,-2.1069 0.0748,-3.13995 -0.0139,-0.93792 0.10876,-1.88942 0.15625,-2.78654 -0.0272,-0.65926 0.1903,-1.44084 0.15624,-2.16807 0.16303,-0.69323 0.11553,-1.48842 0.32624,-2.16126 -0.007,-0.67965 0.90392,-0.86314 1.44763,-0.76801 1.08743,0.0407 0.68644,1.20978 0.63206,1.88262 -0.1835,0.62527 -0.10875,1.29132 -0.0272,1.89622 0.0884,0.57088 0.16302,1.23693 0.28544,1.76027 0.12232,0.3806 0.17673,0.67286 0.32623,1.04665 0.0952,0.27866 0.22429,0.56411 0.36702,0.84955 0.23107,0.44178 0.39418,0.88353 0.68644,1.3389 0.1835,0.33982 0.31943,0.63887 0.54371,0.9379 0.16303,0.35342 0.48256,0.75441 0.64568,1.12141 0.1835,0.27866 0.3602,0.54372 0.48934,0.84957 0.25825,0.33982 0.44175,0.69323 0.59128,0.99907 0.33303,0.46896 0.57091,0.91753 0.91751,1.38648 0.27866,0.53013 0.63887,1.03305 0.9719,1.49521 0.38061,0.44857 0.60487,0.91752 0.9651,1.3525 0.48255,0.43497 0.69323,1.01267 1.10781,1.46802 0.31264,0.53013 0.67964,1.05346 1.1418,1.5428 0.73402,0.84955 1.5564,1.71949 2.40595,2.43992 0.62527,0.44177 1.20296,1.01266 1.83502,1.43404 0.4078,0.27187 0.91754,0.5777 1.38649,0.74082 0.3874,0.21749 0.92432,0.29224 1.37967,0.52332 0.31265,-0.0543 0.65247,0.23787 0.99228,0.21748 0.63887,0.0816 1.1418,0.27186 1.80106,0.29225 0.72722,0.0407 1.39327,-0.007 2.05252,-0.19709 0.44857,-0.0407 0.83596,-0.1291 1.25054,-0.32623 0.42138,-0.1767 0.89034,-0.23788 1.30493,-0.3602 0.46895,-0.16999 1.00586,-0.10196 1.42726,-0.45537 0.367,-0.25827 0.16302,-0.72723 -0.007,-1.01947 -0.24468,-0.44176 -0.46217,-0.90393 -0.77478,-1.32531 -0.0748,-0.31943 -0.28548,-0.60487 -0.38063,-0.95149 -0.12231,-0.29905 -0.25824,-0.64568 -0.3466,-0.91752 -0.16303,-0.38739 -0.25827,-0.78839 -0.43497,-1.1486 -0.0952,-0.36021 -0.26507,-0.61848 -0.36023,-0.93791 -0.16981,-0.50973 -0.32622,-0.9719 -0.49613,-1.46124 -0.15624,-0.35341 -0.22429,-0.65245 -0.35342,-1.01267 -0.16999,-0.40778 -0.29225,-0.90392 -0.48935,-1.27772 -0.12231,-0.48255 -0.30584,-0.91753 -0.40099,-1.44085 -0.16303,-0.21749 -0.16303,-0.64565 -0.31262,-0.86314 -0.10196,-0.43498 -0.23788,-0.89714 -0.39421,-1.26414 -0.0952,-0.43499 -0.21749,-0.93111 -0.44856,-1.29813 -0.0884,-0.51652 -0.3602,-1.01947 -0.50293,-1.502 -0.16998,-0.42817 -0.33982,-0.85636 -0.51654,-1.28453 -0.0952,-0.31942 -0.27864,-0.66605 -0.40098,-0.97868 -0.1971,-0.42817 -0.42138,-0.85636 -0.61847,-1.32531 -0.16999,-0.36021 -0.36021,-0.66605 -0.50974,-1.08064 -0.24468,-0.27185 -0.35342,-0.59808 -0.5641,-0.9243 -0.28545,-0.54373 -0.65246,-1.10783 -1.08063,-1.58359 -0.27866,-0.54372 -0.7748,-1.03306 -1.08743,-1.57677 -0.48256,-0.61848 -0.89033,-1.23016 -1.536,-1.67872 -0.51652,-0.48934 -1.06704,-0.73402 -1.61076,-1.1554 -0.47574,-0.31263 -1.02626,-0.53011 -1.52241,-0.80197 -0.31942,-0.0884 -0.71361,-0.31264 -1.05344,-0.40099 -0.65925,-0.2107 -1.3321,-0.52333 -2.05251,-0.57769 -0.53693,-0.12911 -1.25055,-0.17672 -1.84864,-0.12232 -0.53014,0.0407 -1.01948,0.16999 -1.52921,0.26507 -0.3942,0.23108 -0.94471,0.38739 -1.3321,0.7476 -0.4078,0.30583 -0.67965,0.67966 -0.82918,1.14861 -0.1767,0.29903 -0.42137,1.3185 0.25827,1.20297 0.40099,-0.2039 0.36021,-0.63887 0.48256,-0.99229 0.0748,-0.37381 0.31263,-0.71362 0.65924,-0.98548 0.41458,-0.32623 0.88353,-0.46895 1.35251,-0.53012 0.70682,-0.16303 1.46122,0.0543 2.13407,0.0816 0.3806,0.0748 0.89712,0.17671 1.3389,0.1971 0.50293,0.16302 1.06024,0.2039 1.56319,0.44175 0.5573,0.19031 0.95829,0.38741 1.48842,0.66607 0.53691,0.26505 0.97187,0.60488 1.4952,0.90392 0.87675,0.73401 1.61076,1.59716 2.34478,2.42633 0.25146,0.53691 0.74081,1.01266 1.06023,1.54279 0.27866,0.43498 0.53013,0.78839 0.74761,1.19617 0.18352,0.29904 0.42139,0.67286 0.58451,0.99908 0.23107,0.401 0.40777,0.85635 0.62526,1.25734 0.15625,0.33303 0.36701,0.7408 0.44856,1.06025 0.1835,0.46214 0.44178,0.89712 0.57091,1.38646 0.1835,0.32623 0.17671,0.72722 0.40099,1.03307 0.007,0.28546 0.25827,0.64566 0.29903,0.91072 0.17673,0.45536 0.26507,0.86994 0.44178,1.3457 0.10196,0.42817 0.27866,0.84955 0.3602,1.23696 0.12232,0.39418 0.25828,0.66605 0.32624,1.09421 0.16999,0.23787 0.15624,0.57091 0.32623,0.83596 0.0613,0.31943 0.14267,0.67965 0.32623,0.9651 0.0139,0.36021 0.23787,0.59809 0.25146,0.94471 0.14946,0.29903 0.2039,0.5641 0.33982,0.86994 0.17672,0.57089 0.40099,1.15539 0.5845,1.75348 0.12231,0.34663 0.23787,0.7612 0.36701,1.04665 0.11553,0.46897 0.30584,0.89035 0.47576,1.32532 0.27185,0.65925 0.50973,1.21655 0.88353,1.80785 0.16998,0.43497 0.25826,0.89712 -0.14267,1.23015 -0.4078,0.26506 -0.80878,0.31943 -1.22337,0.52333 -0.62527,0.10876 -1.18937,0.1903 -1.80105,0.28544 -0.64567,0.0475 -1.31171,-0.0613 -1.94378,-0.10196 -0.57769,-0.0407 -1.19617,-0.16302 -1.78067,-0.27864 -0.43497,-0.17672 -0.85634,-0.13589 -1.30492,-0.29905 -0.44856,-0.0204 -0.74759,-0.31264 -1.14858,-0.43497 -0.47576,-0.30584 -1.01947,-0.66605 -1.47484,-0.94471 -0.7612,-0.59128 -1.40007,-1.22335 -2.06612,-1.88261 -0.44856,-0.46215 -1.01267,-1.03984 -1.45444,-1.63114 -0.3534,-0.40099 -0.57089,-0.77479 -0.92431,-1.23016 -0.34661,-0.45536 -0.61848,-0.97188 -1.03985,-1.42046 -0.34662,-0.48934 -0.70004,-0.9583 -1.06025,-1.45442 -0.27186,-0.48256 -0.67963,-0.9583 -0.94471,-1.45445 -0.25825,-0.42817 -0.55731,-0.87675 -0.83596,-1.27774 -0.20388,-0.32622 -0.26505,-0.61846 -0.52333,-0.89031 -0.14945,-0.35343 -0.42137,-0.67965 -0.57769,-1.01268 -0.21749,-0.31944 -0.44856,-0.71362 -0.62527,-1.04666 -0.2107,-0.36701 -0.3942,-0.69324 -0.61847,-1.04665 -0.16999,-0.44856 -0.51654,-0.82916 -0.61848,-1.29132 -0.0952,-0.32623 -0.21749,-0.61848 -0.30584,-0.95829 -0.24468,-0.62527 -0.27186,-1.3321 -0.32622,-2.01855 0.007,-0.78839 0.0816,-1.60395 0.26504,-2.31078 0.16999,-0.52333 -0.0407,-1.01947 -0.19029,-1.50202 -0.1835,-0.42819 -0.49614,-0.89033 -0.99229,-0.90392 -0.48934,-0.0139 -1.22335,-0.27186 -0.29223,-0.37382 0.50293,-0.007 0.90392,0.2039 1.34569,0.31264 0.38739,0.0884 0.79517,0.29226 1.12821,0.46217 0.70002,0.16998 1.12821,0.85634 0.89033,1.61754 -0.25146,0.80198 -0.0475,1.76028 -0.0543,2.63023 0.12232,0.57769 0.12232,1.3321 0.31264,1.92339 0.12231,0.3874 0.1767,0.86995 0.30584,1.24374 0.0748,0.36023 0.25825,0.73403 0.36699,1.06706 0.0681,0.36699 0.55733,1.01945 0.84277,0.48934 -0.0884,-0.27185 -0.21749,-0.55052 -0.33982,-0.82918 -0.1835,-0.47574 -0.19031,-1.01945 -0.36021,-1.54957 -0.0545,-0.69325 -0.28546,-1.33891 -0.28546,-2.06613 -0.0952,-0.47575 -0.0748,-1.28451 -0.0543,-1.91659 0.13589,-0.28546 -0.0272,-1.11462 0.5573,-0.9719 0.73402,0.14946 1.23696,1.169 1.86902,1.63795 0.4078,0.48934 0.93112,1.00586 0.72723,1.74668 -0.16999,0.71363 -0.10876,1.51561 -0.0339,2.23603 0.0613,0.74761 0.16999,1.48842 0.29904,2.19526 0.0952,0.50292 0.16303,1.04664 0.33984,1.502 0.0475,0.28545 0.31262,0.91751 0.70683,0.70003 0.3602,-0.3738 -0.0272,-0.94469 -0.0748,-1.35929 -0.0613,-0.48254 -0.25147,-0.91071 -0.29906,-1.41365 -0.13589,-0.79519 -0.16981,-1.67872 -0.1291,-2.52148 -0.10876,-0.52334 0.50973,-0.75441 0.74761,-0.367 0.3806,0.45536 0.66605,1.01266 1.08743,1.45443 0.21749,0.43498 0.59809,0.87674 0.82238,1.3253 0.3738,0.4146 0.62526,0.87674 0.93791,1.3525 0.31942,0.43498 0.39418,1.00586 0.31942,1.58356 -0.15624,0.65246 -0.23108,1.42046 -0.0613,2.10011 0.0339,0.55051 0.16999,1.11461 0.29906,1.63794 0.0748,0.49614 0.21068,0.89714 0.31264,1.35928 0.1291,0.36702 0.20388,0.82916 0.62526,0.92432 0.52332,-0.26506 0.0816,-0.92432 0.0475,-1.35929 -0.13589,-0.52332 -0.21749,-0.98548 -0.33304,-1.50201 -0.0816,-0.67964 -0.29225,-1.55638 0.0475,-2.20884 0.59129,-0.12232 0.70003,0.51652 0.94471,0.84956 0.40778,0.46895 0.64566,1.01266 1.15539,1.40007 0.35342,-0.12911 -0.1767,-0.55731 -0.1835,-0.84277 -0.34662,-0.57769 -0.63887,-1.16898 -1.06024,-1.75348 -0.17672,-0.36701 -0.48256,-0.734 -0.59809,-1.08743 -0.19709,-0.40778 -0.57769,-0.70003 -0.73402,-1.10102 -0.31942,-0.47576 -0.5573,-0.90393 -0.89033,-1.33889 -0.35341,-0.48935 -0.69323,-1.00589 -0.98548,-1.46126 -0.40779,-0.52331 -0.67966,-1.07382 -1.12141,-1.57677 -0.48934,-0.60487 -0.86994,-1.26412 -1.42727,-1.80784 -0.5641,-0.91073 0.66607,-0.53691 1.06704,-0.46895 0.43498,0.21068 0.83597,0.33303 1.32531,0.50292 0.38741,0.0816 0.78159,0.36702 1.21657,0.38061 0.47576,0.12232 0.94471,0.40779 1.3457,0.52332 0.63887,0.1291 0.41457,-0.5573 0.0139,-0.72722 -0.31264,-0.21748 -0.76801,-0.27186 -1.12821,-0.48935 -0.29904,-0.0952 -0.7748,-0.24466 -1.11461,-0.39418 -0.33303,-0.14267 -0.7612,-0.25827 -1.12821,-0.35341 -0.63887,-0.27185 -1.3321,-0.53693 -2.04573,-0.64568 -1.03306,0.34663 -1.59037,-0.66603 -2.2836,-1.25054 -0.6049,-0.48253 -1.20298,-0.99907 -1.88261,-1.36607 -0.36702,-0.0884 -0.69324,-0.46216 -1.07385,-0.56411 -0.42817,-0.10875 -0.84955,-0.5641 -1.33889,-0.55052 -0.51654,-0.1767 -1.08063,-0.0139 -1.59037,0 -0.61847,0.18352 -1.10782,-0.35339 -0.86316,-0.96509 0.0681,-0.83595 0.15625,-1.67191 0.1971,-2.51468 0.14267,-0.59809 0.1291,-1.25054 0.33303,-1.80105 0.0339,-0.53692 0.21069,-0.99908 0.33981,-1.48842 0.0816,-0.45536 0.27867,-0.80879 0.35344,-1.23696 0.14944,-0.34661 0.1835,-0.70002 0.367,-0.99908 0.12232,-0.41457 0.29904,-0.7544 0.50294,-1.1214 0.1971,-0.25827 0.28545,-0.6049 0.49613,-0.86314 0.16303,-0.33303 0.3874,-0.6117 0.48934,-0.9719 0.17672,-0.25828 0.27185,-0.59129 0.3806,-0.91751 0.16303,-0.20391 0.35342,-0.74762 0.70683,-0.45537 0.29905,0.22428 0.29225,0.78159 0.48256,1.09424 0.16999,0.46895 0.29224,0.82235 0.72722,1.16897 0.36021,0.23788 0.7612,-0.0748 1.02625,-0.32623 0.17671,-0.3806 0.31264,-0.734 0.38741,-1.11461 0.13589,-0.47575 -0.21749,-1.65834 0.44856,-1.67192 0.42817,0.16303 0.53013,0.73401 0.72722,1.06704 0.2039,0.3602 0.28544,0.84275 0.48935,1.26413 0.13588,0.3806 0.29903,0.76801 0.53012,1.169 0.10196,0.30583 0.36021,0.65924 0.53691,0.96508 0.29904,0.67965 1.32531,0.59808 1.7263,0.15624 0.46896,-0.23108 0.80197,-0.67964 1.11461,-1.04665 0.29225,-0.34662 0.51653,-0.65925 0.7612,-0.97868 0.14946,-0.34663 0.73402,-0.401 0.59809,-0.82917 -0.27861,-0.42138 -0.84952,-0.0407 -1.12137,0.27866 -0.40779,0.33982 -0.61169,0.81558 -0.9787,1.20296 -0.29903,0.29906 -0.43497,0.68644 -0.81556,0.90393 -0.47574,0.21748 -0.99228,-0.35341 -1.14181,-0.80197 -0.24467,-0.26507 -0.36699,-0.74761 0.13588,-0.84957 0.24468,-0.27864 0.90393,-0.21749 0.89715,-0.67284 -0.28545,-0.44177 -0.90393,-0.11553 -1.23016,0.0748 -0.34662,0.35342 -0.47575,0.13589 -0.59809,-0.24466 -0.14945,-0.33983 -0.26507,-0.70682 -0.3806,-1.02627 -0.17672,-0.39419 -0.29905,-0.80876 -0.5913,-1.12141 -0.20388,-0.61167 -1.06704,-0.76799 -1.48842,-0.27864 -0.31264,0.33301 -0.48255,0.734 -0.50293,1.20296 -0.0545,0.40779 0.16998,1.18936 -0.26508,1.44085 -0.57769,-0.21749 -0.43496,-0.9923 -0.60487,-1.42727 -0.10875,-0.45536 -0.0952,-1.06704 -0.57091,-1.23694 -0.22427,-0.22428 -0.57088,0.18349 -0.76798,0.38739 -0.24468,0.38741 -0.49615,0.72722 -0.72044,1.10782 -0.22427,0.3806 -0.30584,0.7544 -0.55049,1.12821 -0.0952,0.74082 -0.70683,1.1622 -0.90393,1.84864 -0.2311,0.22426 -0.30585,0.68643 -0.46897,0.9379 -0.20389,0.44856 -0.43497,0.7544 -0.45535,1.28453 -0.22429,0.31264 -0.33303,0.70682 -0.3942,1.10782 -0.31943,0.40779 -0.31263,0.95151 -0.38739,1.49522 -0.14946,0.38738 -0.23788,0.84275 -0.3806,1.21655 -0.1291,0.66606 -0.10196,1.42726 -0.27866,2.07292 0,0.97188 -0.0748,1.95057 -0.1971,2.88169 0.0543,1.18259 -0.26506,2.2768 -0.25146,3.4458 -0.15624,0.65926 -0.21749,1.3457 -0.33303,2.01175 0.14946,0.61846 0.0139,1.39326 -0.0613,2.11368 -0.13589,0.98548 0.0204,2.03894 -0.13589,3.00403 0.0748,0.41459 0.007,0.72721 0.0681,1.03985 -0.0681,0.44177 -0.0204,0.78159 -0.0339,1.20297 0.0543,0.47576 0.0748,1.1622 0.10196,1.70591 0.0613,0.68644 0.0816,1.46804 0,2.07971 0.0748,0.72041 0.19031,1.40007 0.22428,2.15447 0.0475,0.95829 0.0272,1.93699 0.2039,2.8681 0.16303,0.76799 0.0748,1.58356 0.18351,2.34476 0.10196,0.57091 0.15624,1.18939 0.29222,1.74669 0.0407,0.7884 0.18352,1.5156 0.33304,2.26321 0.14946,0.7884 0.21749,1.59037 0.3874,2.35157 0.11553,0.54371 0.28545,1.08064 0.33983,1.64475 0.23107,0.46215 0.1835,1.16219 0.30583,1.64474 0.32623,0.7476 0.0407,0.95148 -0.3874,0.23107 -0.13589,-0.3738 -0.26506,-0.87673 -0.367,-1.22335 -0.17672,-0.48256 -0.27186,-1.01947 -0.41458,-1.48164 -0.0952,-0.3602 -0.1291,-0.72042 -0.25827,-1.06703 -0.0952,-0.53012 -0.19709,-1.06025 -0.30584,-1.59037 -0.11553,-0.5641 -0.21748,-1.12821 -0.30583,-1.70591 -0.12231,-0.76798 -0.27186,-1.55638 -0.33304,-2.35836 -0.0816,-0.68644 -0.19708,-1.3593 -0.27865,-2.03893 -0.10196,-0.63206 -0.10876,-1.22336 -0.1971,-1.86222 -0.0475,-0.82237 -0.23788,-1.62435 -0.2039,-2.49431 -0.15624,-0.60487 -0.0884,-1.31169 -0.14266,-1.98454 -0.0204,-0.59131 -0.10196,-1.42046 -0.0475,-1.9302 -0.12232,-0.59129 -0.0475,-1.33889 -0.1291,-1.93018 0,-0.52332 -0.068,-0.87675 -0.0407,-1.26415 0.068,-0.63207 -0.10196,-0.97188 0,-1.62434 0.0272,-0.78838 -0.0543,-1.54958 0.0475,-2.36516 0.0543,-0.86994 0.16998,-1.69912 0.1835,-2.58266 0.0952,-0.82915 0.12231,-1.67192 0.25146,-2.47389 0.12232,-0.70683 0.16999,-1.45444 0.33302,-2.14087 0.0543,-0.82238 0.1835,-1.63115 0.33984,-2.40595 0.0475,-0.67965 0.27864,-1.20977 0.31262,-1.88262 0.15624,-0.52333 0.2039,-1.10102 0.33303,-1.64473 0.14268,-0.5573 0.18351,-1.15539 0.37379,-1.67193 0.0475,-0.43497 0.20391,-0.84274 0.33984,-1.23015 0.10876,-0.47576 0.23786,-0.9379 0.31263,-1.45445 0.12231,-0.33302 0.16303,-0.72041 0.32623,-1.02625 0.0613,-0.3806 0.19709,-0.72723 0.34661,-1.06023 0.1291,-0.36702 0.36021,-0.69325 0.44856,-1.07385 0.20391,-0.23107 0.29906,-0.60488 0.46898,-0.85636 0.14946,-0.38739 0.38738,-0.67284 0.54371,-1.04664 0.26505,-0.35342 0.42137,-0.96509 0.98548,-0.9583 0.23107,-0.17671 0.7612,-0.36701 0.55052,-0.72722 -0.27867,-0.54371 -1.23696,-0.14267 -1.71272,-0.0884 -0.5301,0.16998 -0.94471,0.61168 -1.03305,1.12141 -0.17671,0.29225 -0.25148,0.68644 -0.36022,1.04665 -0.0816,0.72041 -0.87673,0.27866 -1.03984,-0.1971 -0.14946,-0.30584 -0.36023,-0.73402 -0.55052,-1.05345 -0.1767,-0.3874 -0.31942,-0.80198 -0.48934,-1.16898 -0.18351,-0.44177 -0.3806,-0.81557 -0.65926,-1.16899 -0.28545,-0.12232 -0.768,-0.0204 -0.91071,0.33303 -0.16999,0.33301 -0.26507,0.9379 -0.83597,0.77479 -0.45536,-0.33982 -0.768,-0.81558 -1.06025,-1.23696 -0.0339,-0.19029 -0.40099,-0.32623 -0.61848,-0.28545 z m -7.0683,17.79307 c 0.42819,0.0139 0.93113,-0.0613 1.31853,0.0613 0.72722,-0.0272 1.25733,0.38738 1.8894,0.64566 0.44858,0.28544 1.01268,-0.31264 1.32531,0.13588 -0.27864,0.31264 -0.81558,0.27867 -1.1622,0.54371 -0.38739,0.0681 -0.60488,0.31944 -0.95149,0.47574 -0.62529,0.33304 -1.21656,0.7884 -1.77387,1.18259 -0.33303,0.26506 -0.72043,0.57089 -1.11463,0.5573 -0.62526,-0.0748 -1.18257,-0.21068 -1.79426,-0.29903 -0.48253,-0.15624 -1.01944,-0.23109 -1.54957,-0.25827 -0.44856,-0.0204 -1.02628,-0.0139 -1.23016,0.42817 0.22427,0.59808 0.91071,0.4078 1.42726,0.55052 0.42816,0.0139 0.80198,0.0952 1.23014,0.16998 0.43498,0.0748 1.03307,0.29904 0.7612,0.86994 -0.14267,0.29225 -0.38739,0.50974 -0.57769,0.74762 -0.31944,0.45534 -0.62528,0.97189 -1.08743,1.33889 -0.66605,0.16303 -1.40687,0 -2.06612,-0.0952 -0.72722,-0.0952 -1.5224,-0.10876 -2.18166,0.13589 -0.27865,0.14267 -0.84956,0.3602 -0.63887,0.68644 0.52335,0.41458 1.24376,-0.14268 1.87582,0.1291 0.61168,0.0475 1.19617,0.0272 1.75348,0.23788 0.50294,0.0204 0.38061,0.82236 0.14267,1.1214 -0.21749,0.43498 -0.46214,0.91751 -0.64566,1.3593 -0.1767,0.32622 -0.55051,0.67284 -0.97868,0.46895 -0.53013,-0.0475 -1.00588,-0.10876 -1.54957,-0.0543 -0.46218,0.20389 -1.10104,0.33303 -1.46805,0.768 -0.32624,0.14266 -0.48255,0.50971 -0.70684,0.72042 -0.3602,0.29903 -0.0952,0.97868 0.4078,0.62526 0.36021,-0.36699 0.57089,-0.90393 1.08743,-1.09421 0.57089,-0.16999 1.22335,0.0475 1.83505,0.11553 0.5641,0.15624 0.3806,1.04664 0.19029,1.41365 -0.0475,0.3738 -0.23108,0.65925 -0.36021,1.02626 -0.14946,0.34661 -0.25148,0.70682 -0.38741,1.05345 -0.14946,0.26505 -0.21749,0.60487 -0.42817,0.85635 -0.15624,0.49613 -0.45537,0.83595 -0.71363,1.29132 -0.13588,0.22428 -0.53011,0.74761 -0.12231,0.9243 0.62528,-0.0139 0.9447,-0.70682 1.25735,-1.12819 0.14945,-0.27185 0.29224,-0.5845 0.46895,-0.84276 0.50973,-0.5573 0.64566,0.5641 0.5573,0.92431 -0.0884,0.46895 0.0407,0.86995 0,1.5156 -0.0272,0.37382 0.23109,1.18259 0.67966,0.74761 0.3602,-0.31942 0.10875,-0.70683 0.16301,-1.1418 -0.0477,-0.9651 -0.0339,-1.90979 0.0611,-2.88169 0.12911,-0.85636 0.17671,-1.76707 0.0748,-2.65062 -0.0272,-0.57769 0.16999,-1.01944 0.35341,-1.52239 0.16999,-0.30584 0.25828,-0.65925 0.42139,-0.93111 0.14945,-0.80879 0.84955,0 0.70683,0.35341 0.007,0.87674 0.0611,1.58357 0.14267,2.42633 0.22429,0.59808 0.1767,1.29813 0.3806,1.9098 0.13589,0.50973 0,1.17578 0.0748,1.63795 0.0611,0.48254 0.77479,0.39419 0.80876,-0.068 0.0816,-0.67965 -0.1291,-1.37967 -0.23107,-2.06611 -0.0748,-0.62528 -0.22428,-1.18939 -0.31263,-1.82145 -0.10876,-0.81558 -0.0952,-1.7263 -0.27866,-2.52827 0.0613,-0.54372 -0.31263,-0.82237 -0.33982,-1.33211 -0.0816,-0.3738 0.19031,-0.7476 0.33982,-1.10782 0.35341,-0.58448 0.64566,-1.07382 0.9787,-1.63793 0.18348,-0.30585 0.43495,-0.61167 0.67282,-0.91073 0.21749,-0.36021 0.54372,-0.63887 0.80879,-0.97869 0.51652,-0.46216 1.06024,-0.89033 1.59037,-1.3253 0.38739,-0.22429 0.80198,-0.51653 1.18936,-0.78838 0.57091,-0.47576 1.24377,-0.7816 1.94379,-1.06025 0.80198,-0.068 0.65246,-0.0816 0.63887,0.51653 0.3806,0.46895 0.89034,0.88354 1.15539,1.30492 0.28545,0.35341 0.52332,0.7272 0.68644,1.12819 0.2039,0.41458 0.27186,0.91753 0.36701,1.40008 0.14945,0.9379 0.0952,1.99134 -0.10876,2.86809 -0.0613,0.41459 -0.27865,0.72043 -0.42139,1.10782 -0.16998,0.28545 -0.3806,0.55051 -0.48254,0.91072 -0.16999,0.27185 -0.34662,0.55052 -0.49615,0.84957 -0.18349,0.22426 -0.30583,0.50293 -0.56409,0.70683 -0.33982,0.48934 -0.88355,0.85634 -1.29132,1.25054 -0.67965,0.52332 -1.29813,1.09422 -2.03214,1.59037 -0.57091,0.44175 -1.10101,0.86313 -1.69232,1.27772 -0.78838,0.48255 -1.45442,1.08743 -2.22923,1.59716 -0.44856,0.46215 -0.9107,0.91751 -1.3185,1.40685 -0.33982,0.33303 -0.59129,0.70005 -0.91073,1.03986 -0.36699,0.47576 -0.69322,0.93112 -1.14859,1.33891 -0.3806,0.367 -0.72722,0.72041 -1.00588,1.14179 -0.21069,0.29906 -0.42137,0.61169 -0.63205,0.91073 -0.21748,0.40099 -0.50973,0.71362 -0.74083,1.10782 -0.21067,0.29904 -0.36699,0.66605 -0.58448,0.96508 -0.1835,0.401 -0.40099,0.7884 -0.5845,1.19617 -0.16302,0.27187 -0.29904,0.56412 -0.46217,0.83597 -0.10195,0.25146 -0.38738,0.69325 -0.68643,0.5777 -0.37379,0.0272 -0.43497,-0.40097 -0.5777,-0.67963 -0.0611,-0.53013 -0.25146,-0.99908 -0.29225,-1.5156 -0.14945,-0.67966 -0.22427,-1.28455 -0.30584,-1.95738 -0.13587,-0.89034 -0.1698,-1.80106 -0.24465,-2.6846 -0.0139,-0.82237 -0.20391,-1.73988 0,-2.53506 -0.11553,-0.68646 0.0952,-1.57678 0.0681,-2.34478 0.0748,-0.79519 0.15623,-1.5496 0.20389,-2.35157 0.11553,-0.86315 0.21068,-1.7331 0.31264,-2.57585 0.11553,-0.53693 0.22427,-1.03986 0.31942,-1.57677 0.11553,-0.53013 0.23108,-1.08064 0.32623,-1.62436 0.14268,-0.42136 0.16999,-0.92431 0.36021,-1.3389 0.11553,-0.3602 0.23788,-0.70002 0.41459,-1.03985 0.24467,-0.50295 0.57769,-0.98548 0.82237,-1.43404 0.24466,-0.5573 0.74082,-1.01267 1.20977,-1.46125 0.39418,-0.42817 0.82915,-0.82916 1.23695,-1.21655 0.5505,-0.54372 1.20295,-1.02627 1.903,-1.32531 0.27865,-0.2107 0.65246,-0.30584 0.9311,-0.48255 0.51655,-0.0748 0.80198,-0.14946 1.25735,-0.1291 0.65245,-0.0475 1.24374,-0.19029 1.86902,-0.31943 0.1767,0.0339 0.33302,-0.0339 0.46215,-0.068 z m 2.75937,3.28947 c -0.66605,0.36701 -0.14268,1.3321 -0.21749,1.9098 0.0543,0.72042 0.23107,1.37288 0.31264,2.05253 0.2039,0.70683 0.15624,1.45442 0.23788,2.20204 0.0139,0.35342 0.50973,0.3602 0.69322,0.0407 0.29225,-0.40099 0.0407,-1.00589 -0.007,-1.48163 -0.10876,-0.71363 -0.31942,-1.44763 -0.42137,-2.19525 -0.16999,-0.68644 -0.1291,-1.46124 -0.28544,-2.17486 -0.068,-0.11553 -0.15624,-0.35342 -0.31265,-0.35342 z m -3.16036,3.92836 c -0.46214,0.3602 0.11553,1.36607 0.0613,1.95737 0.16999,0.61845 0.16303,1.3117 0.36702,1.92337 -0.0407,0.49615 0.28545,0.86994 0.25827,1.37968 0.23107,0.59808 0.26505,1.28452 0.27186,1.97777 0.1835,0.92431 1.19617,0.0204 0.76119,-0.63207 -0.0816,-0.55731 -0.21749,-1.12141 -0.3806,-1.61075 -0.1291,-0.49615 -0.21068,-1.03306 -0.35342,-1.56997 -0.12231,-0.48256 -0.19709,-0.92432 -0.29223,-1.40007 -0.0816,-0.48935 -0.16999,-0.99228 -0.39421,-1.42046 -0.0613,-0.17671 -0.0952,-0.51652 -0.29903,-0.60487 z m 2.39235,20.83787 c 0.54373,0.0543 1.08064,0.1767 1.58358,0.36701 0.41458,0.16999 0.90392,0.3806 1.24376,0.80197 0.53011,0.52332 1.18937,0.89713 1.73308,1.31852 0.42138,0.44856 0.90393,0.79518 1.31171,1.22334 0.3942,0.68644 1.16218,1.08743 1.71951,1.59717 0.57089,0.51653 1.18937,1.06705 1.52241,1.73989 0.66603,0.52332 1.28451,1.11461 1.79425,1.80106 0.19029,0.31944 0.43497,0.64566 0.72722,0.82917 0.45534,0.3806 0.82917,0.734 1.15539,1.21657 0.33302,0.43496 -0.10196,0.9107 -0.33982,1.26412 -0.1835,0.26506 -0.4078,0.48254 -0.5777,0.73401 -0.14946,0.46216 -0.20389,0.97868 -0.33983,1.45444 -0.0748,0.44178 -0.17669,0.82916 -0.41457,1.20976 -0.10876,0.35343 -0.31943,0.70004 -0.36702,1.08064 -0.16303,0.40101 -0.33981,0.84956 -0.44856,1.30492 -0.14267,0.42817 -0.27866,0.90393 -0.38741,1.3593 -0.14267,0.41457 -0.27185,0.81556 -0.38738,1.25732 -0.20389,0.26507 -0.28546,0.5913 -0.40099,0.90394 -0.16303,0.28545 -0.32623,0.59809 -0.42138,0.93111 -0.0139,0.61848 -0.63887,0.78159 -1.1486,0.51653 -0.42818,-0.14945 -0.97868,-0.13588 -1.38647,-0.39421 -0.35341,-0.29222 -0.84275,-0.5301 -1.31173,-0.57088 -0.44856,-0.14267 -1.01266,-0.12232 -1.39325,-0.54372 -0.30585,-0.24468 -0.73401,-0.33982 -1.06705,-0.50293 -0.44178,-0.10875 -0.9583,-0.19031 -1.35929,-0.30584 -0.49613,-0.0545 -1.07383,-0.22428 -1.502,-0.40099 -0.401,-0.2107 -0.80199,-0.5845 -1.29812,-0.52333 -0.43497,-0.23788 -0.90393,-0.2107 -1.33892,-0.42138 -0.44856,-0.11553 -1.23015,-0.61167 -1.27772,-1.19617 -0.16303,-0.46217 -0.21068,-0.97869 -0.3602,-1.45445 -0.10876,-0.46895 -0.18352,-1.00586 -0.35342,-1.44764 -0.0139,-0.47574 -0.27187,-0.86994 -0.40101,-1.3321 0.007,-0.3806 -0.17669,-1.1282 -0.11551,-1.58356 -0.0272,-0.89033 0.13587,-1.74669 0.25146,-2.58266 0.0139,-0.69323 0.14267,-1.37288 0.20389,-2.09329 0.25827,-0.5845 0.0611,-1.3661 0.27864,-1.97777 0.1291,-0.44177 0.31945,-0.92432 0.36702,-1.42724 0.2107,-0.26508 0.22428,-0.63887 0.42138,-0.91753 0.1291,-0.28545 0.3806,-0.50974 0.56411,-0.74082 0.15625,-0.27186 0.30583,-0.54371 0.54371,-0.76798 0.14267,-0.31945 0.42138,-0.44178 0.63887,-0.74762 0.42137,-0.36021 0.86315,-0.65926 1.35929,-0.80878 0.367,-0.14267 0.57089,-0.12231 0.97869,-0.16999 z m 22.1632,3.25549 c 0.31943,0.12231 0.69323,0.0139 0.91751,0.10196 0.44178,0.068 0.72723,0.22428 1.08064,0.34661 0.38739,0.21749 0.74761,0.67964 0.98548,0.98549 0.34662,0.48255 0.74761,0.99228 0.97868,1.5088 0.29226,0.31944 0.16999,0.79519 0.40779,1.16219 0.17672,0.44856 -0.0407,0.94471 -0.59129,0.84955 -0.3806,0.0681 -0.88353,0.44179 -0.82916,0.91753 -0.0884,0.65247 -0.47576,1.25056 -0.27185,1.96416 0.1223,0.45537 0.21068,1.01267 0.65924,1.29134 0.51654,0.67284 1.169,0.98548 2.01175,0.96509 0.57091,0.57769 0.30585,1.58356 0.30585,2.33117 -0.19031,0.43498 -0.70683,0.56411 -1.04667,0.83597 -0.40778,0.17671 -0.82235,0.50973 -1.22335,0.82237 -0.29904,0.29226 -0.80198,0.29226 -1.15538,0.48934 -0.57091,0.31265 -1.12143,0.64568 -1.57,1.13502 -0.48253,0.27864 -0.9447,0.57089 -1.37287,0.84955 -0.30584,0.25825 -0.70003,0.45537 -1.09423,0.42817 -0.50974,-0.3534 -0.5505,-0.96509 -0.86315,-1.42046 -0.42817,-0.65245 -0.77478,-1.34568 -1.22335,-2.01853 -0.17672,-0.3874 -0.51653,-0.67285 -0.70003,-1.04665 -0.16999,-0.29225 -0.36022,-0.67965 -0.59129,-0.97868 -0.15625,-0.55732 -0.5641,-1.06705 -0.91073,-1.50882 -0.20389,-0.23788 -0.57091,-0.53693 -0.72722,-0.84955 -0.22429,-0.34662 -0.89712,-0.87675 -0.67285,-1.39327 0.0884,-0.34662 0.43497,-0.50973 0.48935,-0.88354 0.0748,-0.46896 0.60488,-0.70684 0.68644,-1.16899 0.19711,-0.21749 0.36022,-0.57091 0.65926,-0.72722 0.10196,-0.50293 0.57089,-0.81557 0.81556,-1.23696 0.41459,-0.45536 0.67286,-0.97868 1.169,-1.36607 0.26506,-0.42138 0.70003,-0.67965 1.03304,-1.03986 0.31265,-0.26506 0.63887,-0.46217 0.99908,-0.64566 0.33304,-0.1835 0.64568,-0.40778 0.9651,-0.63887 0.23788,0 0.45537,-0.16998 0.67965,-0.0613 z m -12.25398,3.14676 c -0.0272,-0.0204 0.0204,-0.10196 0,0 z m 18.296,4.61477 c 0.43498,1.03986 -0.89033,0.0543 0,0 z m -13.8919,1.76028 c 0.31262,0.42139 0.5573,0.92432 0.97868,1.27773 0.27864,0.31943 0.33302,0.76119 0.61848,1.10103 0.48254,0.48254 0.84275,1.08743 1.34568,1.58356 0.18351,0.43497 0.40099,0.80198 0.60489,1.20976 0.30584,0.42819 0.49614,0.85636 0.65246,1.31172 0.21748,0.29905 0.47576,0.69324 0.53691,1.11462 0.25148,0.43498 0.12231,1.01946 -0.3806,1.23695 -0.33302,0.21747 -0.59809,0.58449 -0.9379,0.81556 -0.50294,0.46895 -1.06704,0.82239 -1.56319,1.27095 -0.42817,0.39418 -0.87673,0.70683 -1.34568,1.03986 -0.19711,0.34661 -0.61169,0.46214 -0.9651,0.58449 -0.52332,0.0816 -0.9719,-0.25827 -1.40686,-0.36022 -0.34662,-0.18349 -0.74083,-0.34661 -1.10103,-0.49613 -0.29903,-0.0816 -0.7544,-0.25147 -1.03985,-0.45537 -0.42138,-0.0139 -0.93112,-0.57769 -0.63206,-1.03986 0.0952,-0.41458 0.25825,-0.90393 0.45534,-1.29812 0.24468,-0.29904 0.32623,-0.65245 0.46217,-0.97868 -0.0339,-0.55731 0.31942,-0.89713 0.42138,-1.40686 0.29226,-0.33303 0.1767,-0.88354 0.367,-1.25735 0.15624,-0.35342 0.28546,-0.7544 0.40779,-1.11461 0.0816,-0.32624 0.15625,-0.81558 0.46895,-0.97189 0.14268,-0.33303 0.31943,-0.5777 0.42138,-0.91073 0.0952,-0.3602 0.16999,-0.7544 0.44856,-1.05345 0.21749,-0.3466 0.38061,-0.73401 0.42818,-1.16218 0.14945,-0.25826 0.52334,-0.29904 0.75442,-0.0407 z m 24.94293,0.7544 c 0.46895,-0.0272 0.9311,0.0339 1.27092,0.19031 0.3942,0.13589 0.80879,0.10875 1.1418,0.30584 0.43497,0.10875 0.83596,0.33301 1.12141,0.80198 0.14946,0.42137 0.42138,0.72041 0.45536,1.15539 0.068,0.52333 -0.0407,1.07385 -0.1971,1.5156 -0.14945,0.37381 -0.333,0.70683 -0.36699,1.12821 -0.0884,0.45537 -0.2107,0.88354 -0.31264,1.3457 -0.23109,0.29225 -0.1767,0.72722 -0.37381,1.00587 -0.10196,0.43497 -0.30584,0.75441 -0.32623,1.22337 -0.0613,0.3534 -0.23108,0.67963 -0.48935,0.96508 -0.32623,0.23787 -0.52331,0.58449 -0.71361,0.92431 -0.1971,0.4078 -0.36021,0.88356 -0.69324,1.24376 -0.14946,0.3534 -0.25146,0.62527 -0.41459,0.98547 -0.21067,0.25149 -0.26505,0.57771 -0.46216,0.84277 -0.0816,0.51652 -0.71362,0.36021 -1.1078,0.36701 -0.36023,0 -0.67965,0.0339 -1.00589,0.0748 -0.68643,0.0339 -1.15539,0.19031 -1.82144,0.0613 -0.55731,0.14268 -1.12142,-0.24466 -1.55639,-0.12231 -0.53011,-0.0613 -1.10781,-0.20388 -1.7059,-0.15625 -0.41459,-0.15624 -0.73401,0.0139 -1.03985,-0.0884 -0.59809,0.068 -1.56999,0.23788 -2.05933,-0.13589 -0.26506,-0.57769 0.0272,-1.24374 0.0407,-1.83504 0.0613,-0.51652 0,-1.04665 0.0272,-1.48161 -0.1291,-1.07385 0.22429,-2.14089 0.0339,-3.22151 -0.0681,-0.80879 0.22428,-1.49523 0.31943,-2.24963 0.0613,-0.67965 -0.33303,-1.50881 0.13589,-2.07292 0.33981,-0.21068 0.81557,-0.0748 1.16898,-0.30583 0.45536,-0.13589 0.86994,-0.39419 1.31172,-0.50294 0.3806,-0.16303 0.79518,-0.23788 1.16219,-0.50292 0.38739,-0.0407 0.64565,-0.29906 1.03984,-0.33984 0.45537,-0.0748 0.83597,-0.38739 1.31172,-0.50294 0.44177,-0.13589 0.97189,-0.20389 1.36608,-0.25146 0.52334,-0.0748 1.13501,-0.10196 1.69231,-0.2039 0.4078,-0.0952 0.74762,-0.007 1.04665,-0.16303 z m -11.54037,3.75163 c 0.58451,0.35343 0.22429,1.18259 0.12232,1.69911 -0.1971,0.84276 -0.25825,1.74669 -0.24467,2.65742 0.0204,0.99907 0.0475,1.85541 0,2.8409 0.0884,0.82238 0.034,1.65155 -0.13589,2.41954 -0.0204,0.48255 -0.5913,0.73401 -1.04664,0.63207 -0.36022,0.0339 -0.60489,-0.0475 -0.89713,0 -0.63887,0.0681 -1.32531,0.18351 -1.7127,-0.46216 -0.23788,-0.27865 -0.29225,-0.58451 -0.48935,-0.88354 -0.31944,-0.51654 -0.48934,-1.01267 -0.80878,-1.50881 -0.27186,-0.46895 -0.5709,-0.90393 -0.7816,-1.40007 -0.14945,-0.24466 -0.33303,-0.61846 -0.49614,-0.80877 -0.18349,-0.27186 -0.42817,-0.72723 -0.29223,-1.00587 0.0475,-0.48255 0.60487,-0.40099 0.84955,-0.69323 0.41458,-0.26507 0.7544,-0.70005 1.23694,-0.80879 0.27865,-0.26506 0.58449,-0.50973 0.85635,-0.78158 0.38741,-0.15625 0.77479,-0.48256 1.20977,-0.50974 0.44177,-0.26506 0.86315,-0.52331 1.25735,-0.86315 0.29224,-0.19029 0.57769,-0.36021 0.85635,-0.46216 0.12909,-0.0748 0.37379,-0.13588 0.51652,-0.0613 z m -34.61426,1.41366 c 0.55052,-0.12231 0.99908,0.68644 0.76801,1.11463 -0.14268,0.42817 -0.74762,0.28544 -1.07384,0.16302 -0.42818,-0.19709 -0.42818,-0.85635 -0.12231,-1.10104 0.13587,-0.0748 0.30583,-0.19028 0.42816,-0.17669 z m -3.67006,0.93112 c 0.66604,0.0407 1.06703,0.76799 1.61075,1.04664 0.31943,0.16303 0.65246,0.4078 1.01945,0.36702 0.28546,-0.0139 0.66607,0.0613 0.9651,0 0.35342,-0.0681 0.63206,-0.37381 0.90392,-0.59809 0.29226,-0.1835 0.5845,-0.53692 0.92432,-0.57091 0.41458,0.19031 0.40099,0.74081 0.64568,1.03307 0.11553,0.40099 0.25146,0.73402 0.30583,1.17578 0.16303,0.32622 0.1903,0.70683 0.36701,1.08743 0.27864,0.46216 0.3942,1.01947 0.55051,1.58357 0.15623,0.36701 0.367,0.79518 0.40779,1.21656 0.13588,0.35341 0.24466,0.69325 0.33301,1.06704 0.0681,0.42817 0.30585,0.77479 0.38741,1.21657 0.14945,0.29903 0.28544,0.66605 0.44178,1.03986 0.15623,0.40098 0.29903,0.83595 0.32622,1.30492 -0.36701,0.35341 -0.84277,0.46895 -1.29814,0.57089 -0.31261,0.12909 -0.64564,0.30583 -1.03305,0.36021 -0.33981,0.1971 -0.67963,0.35342 -1.04664,0.40779 -0.36021,0.13589 -0.79519,0.23108 -1.1826,0.42818 -0.49612,0.15623 -0.90391,0.19708 -1.37286,0.40099 -0.46217,0.0543 -0.82917,0.34661 -1.29812,0.42138 -0.6117,0.10196 -1.10782,-0.36701 -1.5564,-0.73403 -0.56408,-0.50293 -1.10102,-1.25054 -1.76026,-1.81464 -0.42138,-0.24467 -0.68646,-0.85635 -1.08064,-1.21657 -0.23109,-0.38739 -0.52333,-0.70683 -0.77479,-1.03985 -0.28545,-0.46216 -0.53013,-0.99228 -0.96511,-1.37967 -0.1835,-0.38741 -0.40777,-0.82237 -0.67284,-1.21657 -0.16982,-0.31942 -0.42137,-0.63887 -0.44176,-1.01267 -0.19031,-0.37379 -0.30584,-0.79518 -0.30584,-1.21657 -0.25148,-0.48934 -0.22429,-1.18257 -0.10876,-1.74669 0.0611,-0.39418 0.19708,-0.79517 0.55049,-1.07382 0.33303,-0.36021 0.82238,-0.47575 1.25054,-0.60488 0.4078,-0.16303 0.89715,-0.15625 1.31173,-0.33982 0.41457,-0.20391 0.70002,-0.0339 1.09423,-0.12232 0.48934,0.1971 1.01946,-0.11553 1.50201,-0.0407 z m 7.45568,1.01947 c 0.36701,-0.0272 0.68644,0.22427 1.07383,0.1903 0.41459,0.24467 0.83597,0.3806 1.29134,0.60488 0.28545,-0.0407 0.74081,0.1291 0.99908,0.24467 0.65924,0.10195 1.30491,0.32623 1.88261,0.65926 0.28544,0.0952 0.67963,0.16303 0.97869,0.36701 0.3738,0.13588 0.87672,0.21068 1.23695,0.33982 0.30584,0.23107 0.69323,0.31942 1.03984,0.46895 0.25827,0.0543 0.59809,0.1835 0.86995,0.27185 0.43497,0.0816 0.82238,0.22429 1.23695,0.41459 0.65925,0.20389 0.43498,0.91751 0.27187,1.39327 -0.10876,0.34661 -0.18352,0.71363 -0.32624,1.04665 -0.0681,0.38739 -0.32623,0.67964 -0.36701,1.09422 -0.19029,0.3942 -0.15624,0.85636 -0.42817,1.21657 -0.40099,0.30584 -0.96509,0.22428 -1.42727,0.3806 -0.44175,0.0952 -0.89712,0.23788 -1.34568,0.30584 -0.5641,0.15624 -1.13501,0.23107 -1.76027,0.30584 -0.44178,0.1835 -0.97869,0.21748 -1.46124,0.33303 -0.40098,0.0816 -1.06705,0.0884 -1.09422,-0.4078 -0.2107,-0.36699 -0.24469,-0.83597 -0.39419,-1.17578 -0.27186,-0.59128 -0.46217,-1.25733 -0.72044,-1.84863 -0.0543,-0.35341 -0.28545,-0.72722 -0.39419,-1.08063 -0.0816,-0.48256 -0.34662,-0.79517 -0.39418,-1.27093 -0.14268,-0.25147 -0.19032,-0.5777 -0.29906,-0.85636 -0.10876,-0.39418 -0.23107,-0.7544 -0.31942,-1.17578 -0.0748,-0.43497 -0.2243,-0.86995 -0.31943,-1.29811 -0.0952,-0.12232 -0.0139,-0.53694 0.16998,-0.52333 z m 23.13508,1.73989 c 0.30584,0.3466 0.46215,0.67963 0.65925,1.08743 0.21749,0.31942 0.33303,0.7272 0.61169,1.01267 0.18349,0.36021 0.33982,0.63885 0.5505,0.97188 0.2107,0.44177 0.3942,0.90393 0.63887,1.35928 0.26505,1.1622 -1.23015,0.38061 -1.77387,0.64566 -0.48254,-0.0272 -0.97188,-0.0339 -1.44764,0.007 -0.53013,-0.068 -1.22336,0.0952 -1.68552,-0.19029 -0.47576,-0.14267 -0.89033,-0.50292 -1.31852,-0.65245 -0.33301,-0.14946 -0.61846,-0.27186 -0.90392,-0.5845 -0.21748,-0.47575 0.36701,-0.54371 0.63207,-0.80877 0.33303,-0.4078 0.69323,-0.70683 1.07384,-1.07385 0.42138,-0.21068 0.80198,-0.50973 1.12822,-0.88352 0.46895,-0.2107 0.76119,-0.71364 1.19616,-0.99908 0.22429,-0.0204 0.48935,-0.1767 0.63887,0.10876 z m -10.56167,2.69818 c 0.28546,0.007 0.65926,0.0407 0.96509,0.0952 0.38741,0.1767 0.83597,0.27187 1.17578,0.48255 0.36023,0.19709 0.81558,0.1291 1.10104,0.47576 0.14945,0.59127 -0.50974,0.73399 -0.80198,1.07383 -0.33982,0.33302 -0.52332,0.7612 -0.9583,1.00586 -0.35342,0.27867 -0.86315,0.25147 -1.27093,0.37382 -0.34662,0.21069 -0.84956,0.10195 -1.26413,0.18349 -0.48256,-0.14268 -0.30587,-0.7544 -0.16303,-1.09422 0.0952,-0.41457 0.27864,-0.83597 0.3738,-1.23696 0.19708,-0.33981 0.12909,-0.77479 0.38739,-1.08743 0.068,-0.1835 0.30584,-0.25146 0.45535,-0.27185 z m 5.14491,1.78746 c 0.68644,0.10196 0.63207,1.12822 -0.0139,0.9651 -0.48256,0.11552 -1.169,0.31943 -1.67873,0.12909 -0.23107,-0.40778 0.33303,-0.59808 0.5913,-0.83595 0.31263,-0.26508 0.62527,-0.39419 1.09422,-0.25827 z m 15.57743,1.42725 c 0.38061,-0.0952 0.89714,0.14946 1.23695,0.0475 0.37381,0.0475 0.768,-0.0407 1.17579,0.0884 0.50293,0.0339 1.01267,-0.0952 1.5224,0.10875 0.62528,0.14946 1.44085,0.25827 2.13408,0.0884 0.48256,-0.0475 0.80879,-0.16999 1.25735,-0.0272 0.41458,0.21749 0.10875,0.80198 -0.11553,1.03305 -0.25827,0.25147 -0.39421,0.46897 -0.58449,0.7816 -0.11553,0.29225 -0.26508,0.57091 -0.49616,0.84276 -0.29224,0.26506 -0.65245,0.5777 -0.82915,0.9515 -0.15625,0.23787 -0.36702,0.46895 -0.53013,0.72041 -0.25827,0.2039 -0.33983,0.46898 -0.5777,0.71363 -0.31265,0.31944 -0.42816,0.67966 -0.72042,1.00589 -0.2107,0.32623 -0.48256,0.5709 -0.65926,0.88353 -0.23787,0.31264 -0.50974,0.60488 -0.78159,0.90392 -0.72722,0.23788 -1.04665,-0.43496 -1.55638,-0.72041 -0.27186,-0.31945 -0.5709,-0.55732 -1.03307,-0.81558 -0.19708,-0.1835 -0.57088,-0.27865 -0.86994,-0.42138 -0.30584,-0.46895 -1.15539,-0.49614 -1.22335,-1.169 0,-0.68644 0.25826,-1.3185 0.32623,-1.99135 0.10876,-0.66604 0.23788,-1.3117 0.33982,-1.95738 0.0339,-0.38738 0.16999,-0.99226 0.70003,-0.93109 0.39418,-0.0681 0.86316,-0.14946 1.28452,-0.13589 z m -8.79459,0.19709 c 0.57769,0.10876 1.10782,0.11553 1.67192,0.16999 0.52333,0.0613 0.63207,0.65926 0.94471,0.99908 0.21749,0.31945 0.36021,0.7408 0.5777,1.00589 0.32623,0.50973 0.0139,1.13499 -0.5777,0.68642 -0.35341,-0.32622 -0.80876,-0.44177 -1.20977,-0.80876 -0.48255,-0.19031 -0.95829,-0.48256 -1.31171,-0.93792 -0.29225,-0.32623 -0.72722,-0.401 -0.73401,-0.9311 0.12232,-0.2107 0.42817,-0.21749 0.63886,-0.18352 z m -4.03028,0.0475 c 0.68644,-0.20389 1.03985,0.57769 1.64473,0.64565 0.52333,0.12911 0.86314,0.65927 1.30492,0.72042 0.34662,0.25827 0.67964,0.61848 1.01947,0.83597 0.5505,0.25827 1.07384,0.74761 1.62434,1.07383 0.38741,0.35343 0.80199,0.54372 1.22337,0.86315 0.53011,0.33983 1.02626,0.71364 1.64474,1.01268 0.45535,0.25826 0.32622,0.92432 0.19028,1.3253 -0.0339,0.64566 -0.0139,1.32529 -0.21749,1.9166 -0.034,0.64565 -0.29903,1.17578 -0.333,1.82143 -0.10876,0.48935 -0.33304,1.02628 -0.31945,1.56319 0,0.82238 -0.14267,1.65153 -0.35341,2.39915 -0.0475,0.53011 -0.29224,0.97868 -0.33981,1.5088 -0.0816,0.40099 -0.31945,0.72722 -0.58451,1.01947 -0.43496,0.33981 -0.80876,0.68644 -1.20975,1.06704 -0.46217,0.31944 -0.90393,0.78839 -1.33892,1.18259 -0.1767,0.20389 -0.48253,0.43496 -0.71362,0.67963 -0.37379,0.25827 -0.76119,0.61848 -1.23695,0.64566 -0.36021,0.14946 -0.78838,0.13589 -1.17577,0.27866 -0.43498,0.0613 -0.95831,0.14944 -1.31173,0.14944 -0.54371,0.0407 -1.04665,0.12232 -1.58356,0.21071 -0.54371,-0.14268 -1.25054,-0.12232 -1.82145,-0.27186 -0.40778,-0.31264 -0.80199,-0.53693 -1.23016,-0.71363 -0.43496,-0.0816 -0.63887,-0.42816 -1.04665,-0.60489 -0.52331,-0.0748 -0.91752,-0.61846 -1.41366,-0.82916 -0.43496,-0.16999 -0.66603,-0.40099 -1.02626,-0.64566 -0.38059,-0.1767 -0.80197,-0.26507 -1.16899,-0.5913 -0.40779,-0.26506 -0.77478,-0.49613 -1.15539,-0.7408 -0.34661,-0.23109 -0.80878,-0.30584 -1.07383,-0.71362 -0.25828,-0.31264 -0.3806,-0.68644 -0.46896,-1.06025 0.13589,-0.59129 0.14268,-1.27095 0.33301,-1.86222 0.0748,-0.50974 0.38741,-0.91073 0.38741,-1.46803 0.2107,-0.48935 0.19031,-1.07385 0.33303,-1.58358 0.10196,-0.60488 0.29226,-1.14859 0.27865,-1.82144 0.25826,-0.63887 0.10876,-1.47483 0.32622,-2.10009 0.10876,-0.41459 0.19031,-0.87675 0.37381,-1.24377 0.29226,-0.40777 0.76121,-0.54371 1.10784,-0.92432 0.39418,-0.29224 0.65924,-0.7136 1.10101,-0.97868 0.5845,-0.46214 1.06704,-1.07383 1.65833,-1.52918 0.27865,-0.34663 0.63206,-0.59809 1.08064,-0.57091 0.48254,0.0139 0.99227,-0.16999 1.5224,-0.21749 0.49612,-0.0139 0.99228,-0.14946 1.46802,-0.27864 0.56412,0.0475 1.21657,-0.14946 1.7399,-0.0545 0.23107,-0.10196 0.52332,-0.0952 0.7612,-0.11553 z m -1.26415,5.22645 c -0.51652,0.0613 -1.04665,0.10195 -1.56317,0.2039 -0.36701,0.17669 -0.76121,0.45536 -1.11463,0.64567 -0.3534,0.23785 -0.82915,0.27185 -1.22335,0.46215 -0.33303,0.27865 -0.57769,0.63887 -0.87674,0.9379 -0.10875,0.42139 -0.1903,0.84277 -0.46215,1.17579 -0.25149,0.34661 -0.36021,0.78838 -0.48256,1.20978 -0.16999,0.41457 -0.10875,0.77478 -0.0613,1.17578 0.13589,0.64565 0.4078,1.3049 0.86315,1.85541 0.29224,0.55052 0.84276,0.91753 1.25056,1.37968 0.42136,0.32623 0.85633,0.7816 1.31169,0.97868 0.44857,0.2311 1.03306,0.33984 1.52922,0.2243 0.42816,-0.1291 0.99907,-0.0748 1.36607,-0.33304 0.50295,-0.29903 0.99229,-0.57089 1.43406,-0.91751 0.45537,-0.29905 0.86315,-0.67966 1.25733,-1.06025 0.14267,-0.36021 0.46217,-0.70003 0.70004,-1.02626 0.10876,-0.72722 0.31944,-1.46123 0.29226,-2.18166 -0.25827,-0.53691 0.0139,-1.16217 -0.35343,-1.59715 -0.2039,-0.35342 -0.37379,-0.50973 -0.61167,-0.84276 -0.19031,-0.33982 -0.41459,-0.71364 -0.7544,-0.94471 -0.32623,-0.23107 -0.7884,-0.43498 -1.01269,-0.72723 -0.1767,-0.14267 -0.43497,-0.42816 -0.7408,-0.5301 -0.21749,-0.19712 -0.51652,-0.0407 -0.74762,-0.0884 z m 1.25056,5.09733 c 0.46895,-0.007 1.04665,0.28545 1.135,0.80879 0.0339,0.48934 0.0339,1.05343 -0.35342,1.37966 -0.15624,0.46217 -0.67964,0.70683 -1.14181,0.50295 -0.57088,-0.068 -0.92432,-0.72044 -1.06023,-1.23016 -0.33304,-0.50973 0.23787,-0.99229 0.64565,-1.26415 0.28547,0.0139 0.49615,-0.28544 0.77481,-0.19709 z m 8.40719,-10.23543 c 0.49613,0.007 1.64474,-0.23788 1.3389,0.73401 -0.1835,0.51653 -0.0139,1.23696 -0.29906,1.70591 0.0407,0.71363 -0.68644,0.80198 -0.82916,0.10875 -0.12231,-0.26505 -0.33303,-0.53013 -0.45535,-0.77479 -0.22428,-0.40099 -0.43498,-0.768 -0.54372,-1.23696 -0.2039,-0.40099 0.51654,-0.5573 0.78839,-0.53691 z m 14.09581,0.19029 c 0.61848,0.15624 1.23695,0 1.84864,0.10196 0.57088,0.10875 1.32531,0.0272 1.93698,0.19711 0.44856,0.0613 0.89033,0.32623 1.25734,0.64565 0.30585,0.0339 0.67964,0.35341 1.03984,0.47576 0.38061,0.14946 0.71364,0.33302 1.08743,0.42817 0.44179,0.14267 0.80199,0.28545 1.22338,0.49615 0.47574,0.27864 0.95829,0.53691 1.40685,0.89033 0.31264,0.36021 0.82916,0.49613 0.9651,0.9583 0.49613,0.42817 0.54371,1.1078 0.64566,1.64473 -0.0952,0.72042 0.007,1.54958 -0.29905,2.20204 -0.1835,0.41458 -0.46216,0.70004 -0.69323,1.05345 -0.16303,0.19709 -0.42138,0.46217 -0.54371,0.72042 -0.42139,0.33303 -0.63887,0.84957 -1.12821,1.09422 -0.66605,0.14946 -0.78839,-0.57769 -1.40008,-0.70682 -0.70683,-0.14267 -1.40686,-0.0543 -2.00494,0.34662 -0.29225,0.10875 -0.5777,0.31942 -0.84276,0.52333 -0.65926,0.367 -1.1554,1.05344 -1.10782,1.84862 -0.13588,0.4078 -0.53012,0.74762 -0.95829,0.86315 -0.31945,0.16999 -0.63209,0.3874 -0.99229,0.45535 -0.5777,0.38741 -1.19618,-0.31261 -1.59717,-0.72721 -0.38058,-0.31943 -0.53011,-0.53011 -0.89032,-0.7544 -0.33983,-0.43497 -0.81557,-0.61168 -1.23017,-0.89033 -0.40778,-0.24467 -0.7272,-0.39419 -1.09422,-0.7816 -0.28543,-0.19029 -0.5641,-0.27186 -0.81556,-0.50293 -0.55052,-0.16303 -0.89034,-0.74081 -1.42726,-0.99228 -0.23109,-0.33981 -0.84276,-0.55051 -1.16218,-1.06025 -0.31264,-0.40778 0.16303,-0.78837 0.3806,-1.06704 0.1835,-0.19029 0.31942,-0.50293 0.57769,-0.65924 0.17671,-0.24468 0.36702,-0.54372 0.63206,-0.77481 0.0952,-0.33301 0.4078,-0.49613 0.55052,-0.81558 0.23108,-0.21747 0.35341,-0.49612 0.58448,-0.73399 0.19712,-0.2243 0.36702,-0.52333 0.5845,-0.68644 0.15625,-0.34663 0.46217,-0.6049 0.65246,-0.93112 0.23788,-0.29904 0.47576,-0.66605 0.72042,-0.9311 0.16999,-0.31264 0.39421,-0.50974 0.57771,-0.82238 0.32623,-0.27186 0.35341,-0.70683 0.66605,-0.94471 0.23788,-0.16303 0.5573,-0.19709 0.84955,-0.16303 z m -31.65102,0.9719 c 0.36021,-0.10196 1.1554,0.068 0.65926,0.59809 -0.35342,0.31263 -0.80199,0.53012 -1.11463,0.92432 -0.69322,0.34662 -0.44175,-0.80879 -0.24466,-1.12142 0.12231,-0.27865 0.41458,-0.44177 0.70003,-0.40099 z m -2.63701,0.44856 c 0.60487,-0.14945 0.82916,0.53691 0.53691,0.9583 -0.1971,0.43497 -0.14946,0.99227 -0.32622,1.42046 -0.0543,0.53692 -0.56411,0.90392 -0.89034,1.3457 -0.60488,0.40778 -0.91071,1.06704 -1.55639,1.44083 -0.31263,0.31943 -0.5641,0.6049 -0.87675,0.93112 -0.48934,0.28545 -0.83594,-0.36701 -0.88352,-0.78159 -0.0613,-0.49614 -0.31263,-0.90393 -0.34662,-1.45445 -0.11553,-0.31942 -0.19029,-0.63206 -0.33302,-0.94469 -0.13589,-0.25828 -0.32622,-0.55051 -0.41458,-0.79519 -0.26508,-0.44177 -0.0407,-1.11461 0.47574,-1.16219 0.5913,-0.21069 1.20297,-0.36701 1.89622,-0.32623 0.42136,-0.15624 0.9107,-0.39419 1.43404,-0.3738 0.42817,-0.0407 0.80197,-0.0407 1.20296,-0.23788 l 0.034,-0.0407 z m -6.55177,1.5224 c 0.37382,0.12911 0.43497,0.67966 0.59129,1.00589 0.16303,0.3466 0.30584,0.64566 0.44176,0.97188 0.22429,0.3738 0.13589,0.98549 0.33984,1.37969 0.0543,0.5437 0.30584,0.93109 0.44175,1.44763 0.16999,0.48934 0.11553,1.05345 -0.13587,1.48161 -0.24467,0.23109 -0.46896,0.48935 -0.68644,0.70683 -0.21069,0.21071 -0.43498,0.4078 -0.59809,0.69325 -0.1767,0.25147 -0.4078,0.47575 -0.74761,0.42138 -0.48935,-0.40099 -0.85636,-0.49615 -1.3185,-0.99229 -0.26506,-0.21749 -0.72723,-0.35341 -1.00589,-0.64565 -0.48255,-0.28545 -0.67963,-0.70004 -1.10102,-0.9583 -0.31943,-0.23108 -0.80198,-0.67285 -1.10102,-0.91073 -0.53012,-0.34662 -0.77479,-0.70682 -1.30491,-1.10782 -0.37381,-0.31943 -1.29811,-0.9447 -0.59128,-1.42044 0.42816,-0.11553 0.76798,-0.36702 1.23015,-0.36022 0.3738,-0.16302 0.7544,-0.28546 1.13499,-0.3942 0.46217,-0.0748 0.86315,-0.28544 1.29133,-0.3534 0.39419,-0.2243 0.74082,-0.3942 1.18259,-0.47576 0.44856,-0.17671 0.85633,-0.34663 1.33889,-0.40099 0.0884,-0.16303 0.44856,-0.16999 0.59809,-0.0884 z m -8.67225,2.99044 c 0.7544,0.29225 1.18937,1.18258 1.8962,1.44085 0.30584,0.3466 0.67965,0.63207 0.97869,0.84275 0.768,0.67966 1.57677,1.28453 2.29041,1.95058 0.48253,0.47575 0.99907,0.86994 1.56316,1.19617 0.43499,0.11552 1.18258,0.57091 0.84957,1.13501 -0.14945,0.44176 -0.54371,0.72042 -0.81557,1.09422 -0.37381,0.47576 -0.5913,1.01268 -1.07385,1.40006 -0.24467,0.30584 -0.44855,0.63887 -0.72041,0.94472 -0.2039,0.28544 -0.45537,0.55051 -0.5845,0.90392 -0.22429,0.32622 -0.66605,0.60489 -0.81557,0.98549 -0.24469,0.29225 -0.36701,0.65246 -0.59808,0.91752 -0.16303,0.25146 -0.34663,0.58449 -0.53692,0.78159 -0.25148,0.42816 -0.85635,0.46895 -1.25734,0.30584 -0.85636,-0.12232 -1.66513,-0.23109 -2.56227,-0.1903 -0.59809,-0.2039 -1.24374,0.0407 -1.86222,-0.1291 -0.29903,-0.10196 -0.68644,-0.1903 -1.03986,-0.21748 -0.53012,-0.0613 -1.03307,-0.28547 -1.59037,-0.36702 -0.27865,-0.14267 -0.57089,-0.27185 -0.81556,-0.39419 -0.36022,-0.17672 -0.7748,-0.3806 -1.135,-0.58449 -0.4214,-0.31942 -1.09424,-0.53691 -1.41367,-0.94471 -0.48934,-0.17671 -0.70004,-0.70002 -0.99229,-1.06704 -0.33301,-0.62528 -0.5573,-1.33889 -0.73401,-2.07292 -0.14267,-0.49613 0.007,-1.00587 0.30585,-1.37287 0.17669,-0.29905 0.38739,-0.5777 0.5641,-0.89035 0.43497,-0.48253 0.95829,-0.86994 1.46123,-1.25732 0.31264,-0.10876 0.61169,-0.27867 0.85636,-0.46898 0.30583,-0.29903 0.68642,-0.42816 1.00587,-0.67283 0.49613,-0.19708 0.98547,-0.53692 1.48162,-0.75441 0.25828,-0.1835 0.61848,-0.29225 0.86994,-0.5641 0.29904,-0.16303 0.58451,-0.29905 0.87676,-0.48255 0.46214,-0.22428 0.83594,-0.44856 1.34567,-0.54371 0.48256,-0.1291 0.86316,-0.32623 1.23696,-0.65926 0.25827,-0.23788 0.62527,-0.28545 0.9651,-0.26506 z m 14.78225,0.50293 c 0.36701,0.35343 -0.0613,0.88355 -0.0204,1.45444 -0.13588,0.54372 0.0139,1.25055 -0.33981,1.71272 -0.27866,0.50971 -0.19031,1.18257 -0.33303,1.73988 -0.0952,0.33302 -0.15624,1.23015 -0.65926,0.76798 -0.14946,-0.30583 -0.27186,-0.69323 -0.42817,-0.99226 -0.24467,-0.27186 -0.32623,-0.62529 -0.50294,-0.91073 -0.1291,-0.39419 -0.31264,-0.70683 -0.35342,-1.14181 0.0272,-0.65924 0.7748,-0.95829 1.06704,-1.46803 0.44177,-0.30584 0.82237,-0.65246 1.13501,-1.07384 0.10196,-0.0952 0.32623,-0.23786 0.43498,-0.0884 z m 23.57684,0.28547 c 0.76121,0.11553 1.13502,1.01266 1.75347,1.37965 0.53694,0.2243 0.63209,0.89034 0.29906,1.25055 -0.27866,0.35342 -0.45537,0.59809 -0.78159,0.91754 -0.44857,0.22426 -0.7816,-0.36702 -0.82238,-0.72043 -0.13589,-0.30585 -0.22427,-0.66606 -0.3806,-0.91073 -0.14267,-0.34662 -0.28545,-0.63206 -0.33302,-1.02627 -0.30583,-0.29223 -0.46895,-1.20976 0.26506,-0.89031 z m -1.43406,1.12819 c 0.26508,0.27866 0.33304,0.70683 0.51655,0.97868 0.0952,0.35342 0.28545,0.61848 0.40099,0.9855 0.0613,0.40777 0.19709,0.79518 0.35341,1.17578 0.14945,0.40099 -0.0272,0.88354 -0.35341,1.20297 -0.36702,0.35341 -0.78159,0.76799 -1.15541,1.14181 -0.27865,0.23788 -0.61168,0.78837 -0.99906,0.50292 -0.10196,-0.76119 0.10875,-1.58357 0.18349,-2.36517 0.1291,-0.5573 0.20389,-1.14858 0.33303,-1.6923 0.2107,-0.61848 0.20389,-1.28451 0.32623,-1.92338 0.12232,-0.10876 0.1971,-0.26506 0.39418,-0.007 z m 5.11773,1.71271 c 0.47576,0.31943 0.87675,0.54371 1.3457,0.9651 0.46215,0.19029 0.90393,0.48934 1.28453,0.79518 0.41458,0.29225 0.81557,0.60487 1.30491,0.88353 0.5845,0.1971 1.01268,0.97188 1.54959,1.1554 0.49614,0.29224 0.70003,0.7408 1.18258,1.18257 0.3602,0.35341 -0.0204,0.76801 -0.38739,0.7748 -0.37381,0.16303 -0.80198,0.25827 -1.18259,0.39419 -0.3806,-0.0204 -0.72042,0.27865 -1.14179,0.28546 -0.31945,0.16303 -0.70005,0.29225 -1.06026,0.44176 -0.40777,0.0952 -0.90392,0.2039 -1.25733,0.33983 -0.48256,0.0475 -0.88355,0.21069 -1.34569,0.33302 -0.35344,0.1291 -0.86996,0.21749 -1.11463,-0.14946 -0.21068,-0.24467 -0.20389,-0.61848 -0.37381,-0.90393 -0.12909,-0.46214 -0.27185,-0.84955 -0.37379,-1.30491 -0.23788,-0.53691 -0.3942,-1.1418 -0.61169,-1.71269 -0.0613,-0.28547 -0.35341,-0.67286 -0.19709,-0.92432 -0.15625,-0.23788 0.14267,-0.65246 0.31944,-0.90394 0.42136,-0.39419 0.80877,-0.86314 1.17578,-1.27092 0.1971,-0.33984 0.47575,-0.48256 0.88353,-0.3806 z m -30.917,0.53013 c 0.43498,0.0884 0.52333,0.64566 0.71364,0.97188 0.16303,0.31265 0.33301,0.67964 0.44175,0.95829 0.18352,0.4078 0.16303,0.84278 0.41459,1.25055 0.32623,0.35342 0.11553,0.96509 -0.43498,0.57091 -0.26504,-0.28546 -0.48253,-0.32623 -0.73401,-0.5913 -0.44177,-0.16999 -0.82915,-0.59129 -1.28451,-0.77479 -0.38061,-0.21068 -0.7884,-0.7612 -0.47576,-1.24374 0.19029,-0.33303 0.5845,-0.5641 0.81557,-0.87675 0.2039,-0.14945 0.22428,-0.3874 0.54371,-0.26505 z m -2.36517,2.79332 c 0.57091,0.10195 0.85636,0.55732 1.29814,0.7612 0.44855,0.29225 0.99907,0.65246 1.42725,0.82917 0.53013,0.46896 1.29133,0.69323 1.60395,1.39327 0.10876,0.68644 -0.18349,1.26414 -0.22427,1.93019 -0.0748,0.62527 -0.20391,1.27093 -0.27186,1.87582 -0.11553,0.44856 -0.10196,0.92431 -0.39419,1.31851 -0.5913,0.27866 -1.03306,-0.25147 -1.64476,-0.10196 -0.63884,0.12231 -1.24374,-0.0952 -1.91658,-0.0475 -0.3942,-0.10196 -0.70003,0.0272 -1.01947,-0.0952 -0.67963,0.0407 -1.3321,-0.068 -1.90979,-0.24467 -0.51654,-0.0545 -0.9719,-0.0952 -1.46125,-0.22428 -0.38059,-0.10196 -1.02625,-0.10876 -0.74759,-0.7544 0.22426,-0.21069 0.33301,-0.51653 0.5505,-0.70683 0.23788,-0.46217 0.5913,-0.84277 0.90392,-1.25054 0.21071,-0.27867 0.46217,-0.53693 0.5845,-0.87675 0.25827,-0.30583 0.49615,-0.67963 0.74081,-0.95151 0.14267,-0.26506 0.43497,-0.46895 0.54371,-0.78158 0.29225,-0.33303 0.46895,-0.72721 0.74762,-1.06704 0.35341,-0.33982 0.60488,-0.83595 1.09424,-1.01947 z m 48.17317,0.0204 c 0.50295,0.27864 0.11553,1.18937 -0.46216,1.00586 -0.50973,-0.16999 -0.33981,-1.10101 0.23788,-1.03305 l 0.19029,0.007 z m -18.25523,0.19707 c 0.17671,0.42139 0.34663,0.87675 0.48935,1.27094 0.14267,0.42139 0.23785,0.82238 0.35341,1.25735 0.16301,0.3874 0.23786,0.89034 0.42138,1.29811 0.367,0.81558 -0.5777,0.7612 -1.07385,0.79519 -0.42138,0.10195 -0.80876,0.2107 -1.22335,0.29905 -0.55052,0.13588 -1.08743,0.30583 -1.62435,0.39418 -0.51652,0.33303 -1.7399,0.29226 -1.25055,-0.69323 0.15624,-0.51652 0.10195,-1.15539 0.3874,-1.64474 0.3942,-0.3602 0.78838,-0.7612 1.23696,-1.06024 0.15624,-0.20389 0.38738,-0.45536 0.59809,-0.63887 0.3806,-0.48253 0.82916,-0.86313 1.26413,-1.29811 0.12232,0.0613 0.31264,-0.0884 0.42138,0.0204 z m 10.96944,2.79334 c 0.70004,-0.10196 1.05345,0.5913 1.56999,0.9583 0.1903,0.13588 0.41458,0.40779 0.57769,0.62528 0.3806,0.39419 0.67286,0.90393 1.11461,1.17578 0.30584,0.29906 0.51654,0.6049 0.73403,0.87675 0.22426,0.33301 0.45536,0.65924 0.7612,0.95149 0.12231,0.16999 0.29903,0.45537 0.44856,0.71364 0.31942,0.49613 0.66604,1.03983 1.00588,1.59035 0.16999,0.33304 0.3466,0.74762 0.367,1.169 0.0613,0.82917 0.21748,1.58356 0.31944,2.37874 0.0475,0.62529 -0.0681,1.19617 -0.48934,1.66513 -0.14267,0.34662 -0.63207,0.44858 -0.7816,0.7816 -0.29906,0.23108 -0.5913,0.44857 -0.9447,0.49614 -0.401,0.16998 -0.89714,0.13588 -1.23696,0.25146 -0.58448,0.0952 -1.15539,0.0543 -1.69911,0.0613 -0.50292,-0.10876 -0.95829,-0.068 -1.42724,0 -0.46217,0.0884 -0.89715,-0.16302 -1.37288,-0.0884 -0.42818,-0.0475 -0.9719,-0.0545 -1.49523,-0.14945 -0.62525,-0.29226 -1.59717,0.20389 -1.99135,-0.57091 -0.18351,-0.401 -0.32623,-0.74082 -0.3738,-1.20296 -0.17672,-0.43498 -0.31945,-0.89035 -0.4078,-1.3389 -0.16997,-0.47575 -0.34661,-0.95151 -0.44856,-1.49522 -0.12231,-0.42817 -0.30583,-0.83597 -0.40779,-1.24374 -0.0884,-0.36021 -0.23108,-0.72723 -0.38738,-1.05346 -0.19712,-0.33982 -0.27866,-0.71363 -0.401,-1.10782 -0.13588,-0.45536 -0.33983,-0.81558 -0.37381,-1.29132 -0.17671,-0.46216 -0.37379,-0.80877 -0.44176,-1.30492 -0.0339,-0.5505 0.59809,-0.61167 0.99227,-0.81558 0.46216,-0.1767 0.84276,-0.28544 1.29812,-0.39418 0.49614,-0.0272 0.98549,-0.3738 1.51561,-0.44178 0.49613,-0.007 0.89034,-0.28544 1.35249,-0.42817 0.36021,-0.16302 0.82916,-0.21068 1.23696,-0.33982 0.40777,-0.1835 0.95149,-0.25827 1.33209,-0.44177 z m -35.08321,1.02628 c 0.28545,0.3738 0.42819,0.89712 0.70004,1.24374 0.14268,0.31264 0.33302,0.61167 0.51652,0.95829 0.16303,0.33982 0.26506,0.70005 0.45537,0.9719 0.30584,0.32624 0.44856,1.00587 -0.1767,1.04665 -0.50974,-0.0884 -0.97869,-0.21069 -1.42046,-0.11553 -0.21069,-0.0748 -0.53013,0.0475 -0.79519,-0.11552 -0.5573,-0.0884 -0.14267,-1.09421 -0.14267,-1.51561 0.0884,-0.70682 0.15624,-1.44763 0.33302,-2.10009 0.068,-0.29905 0.14267,-0.59808 0.53013,-0.37381 z m 2.13407,0.95149 c 0.36023,0.16999 0.70005,0.31264 1.06026,0.51653 0.66604,0.13589 1.14859,0.74082 1.68551,1.18938 0.5777,0.10196 0.93111,0.46895 1.41366,0.71363 0.6049,0.0475 0.74082,0.97189 0.0204,0.82236 -0.45536,-0.0613 -0.97188,0.0816 -1.42046,0.0884 -0.3942,-0.10195 -0.70003,0.10196 -1.135,0.0204 -0.46895,0.0475 -0.63207,-0.34663 -0.76801,-0.70683 -0.24466,-0.43498 -0.44856,-0.9583 -0.70002,-1.44764 -0.10196,-0.38741 -0.49615,-0.65247 -0.40778,-1.13502 0.0407,-0.068 0.21068,-0.13589 0.25147,-0.0613 z m 16.59012,0.27186 c 0.23787,0.4078 0.0952,0.99907 -0.41458,1.04664 -0.3806,0.18351 -1.00589,-0.0204 -0.54371,-0.50971 0.25826,-0.25148 0.53013,-0.74083 0.95829,-0.53693 z m 7.2246,0.46895 c 0.28548,0.28546 0.27867,0.65246 0.4282,0.9719 0.16303,0.52333 0.25824,1.02625 0.53691,1.52919 0.10196,0.39421 0.16999,0.82918 0.3874,1.1554 0.15624,0.30584 0.26505,0.59129 0.367,0.91072 0.14946,0.43497 0.30585,0.76119 0.35342,1.23014 0.13589,0.29226 0.26506,0.63887 0.40099,0.9787 0.16999,0.3874 0.23107,0.91752 0.31264,1.34569 0.13588,0.4078 0.20388,0.74082 0.39419,1.12142 0.36021,0.93792 -0.71363,0.93792 -1.25054,0.59808 -0.42139,-0.19028 -0.82917,-0.31262 -1.25735,-0.49612 -0.53011,-0.16999 -1.10102,-0.19032 -1.63115,-0.37382 -0.32623,0.0681 -0.63887,-0.25147 -0.91072,-0.26505 -0.35341,-0.21749 -0.76119,-0.42817 -1.14181,-0.53692 -0.31262,-0.20389 -0.80196,-0.25148 -1.08741,-0.42138 -0.57091,-0.0884 -0.97868,-0.51654 -1.50881,-0.68644 -0.36702,-0.14267 -0.74082,-0.27185 -1.10782,-0.45537 -0.44856,-0.14945 -1.01947,-0.44177 -0.84956,-1.03986 0.13588,-0.33301 0.25147,-0.70683 0.43497,-1.01266 0.10196,-0.401 0.25828,-0.80199 0.34663,-1.20977 0.20388,-0.42819 0.31262,-0.91753 0.3806,-1.42724 0.0543,-0.36702 0.23788,-0.76801 0.65924,-0.84957 0.47576,-0.17671 0.98549,-0.14946 1.42725,-0.31263 0.33983,-0.14266 0.81557,-0.19708 1.14861,-0.34661 0.3806,-0.0816 0.78838,-0.16303 1.1486,-0.27867 0.5777,-0.10875 1.135,-0.0816 1.64473,-0.25146 0.13588,0 0.29904,-0.0272 0.37379,0.12232 z m -7.7819,1.80106 c 0.31942,0.33304 0.0407,0.84956 -0.11553,1.17578 0.0139,0.65926 -0.24466,1.1486 -0.29903,1.78068 -0.10876,0.44175 -0.42139,1.03983 -1.00589,0.72722 -0.3806,-0.16999 -0.89712,-0.26508 -1.09421,-0.50974 -0.25147,-0.0475 -0.57091,-0.2039 -0.82916,-0.34662 -0.36702,-0.21068 -0.82918,-0.29225 -1.14861,-0.61848 -0.11553,-0.44177 0.25826,-0.64565 0.53013,-0.91072 0.33301,-0.14268 0.49613,-0.44176 0.78159,-0.65925 0.35341,-0.31264 0.87673,-0.28546 1.27772,-0.42818 0.67965,0 1.25055,-0.27186 1.903,-0.21069 z m -29.85676,0.57769 c 0.40779,0.0884 0.84954,0.0884 1.25055,0.1971 0.40099,0.18351 0.89033,0.18351 1.3049,0.29905 0.71364,0.0407 1.32531,0.17671 2.01856,0.25825 0.54371,0.0613 1.11461,-0.007 1.67192,0.0613 0.44856,0.0952 1.07383,0.007 1.63115,0.13589 0.67963,-0.0339 1.55638,0.20389 1.22335,1.10103 0.0204,0.98548 -0.14945,1.87582 -0.23108,2.82733 -0.24468,0.63206 -0.0339,1.40685 -0.0545,2.00494 0.0272,0.51652 0.16999,1.02625 0.2243,1.48162 0,0.50293 -0.11553,0.89034 0.0339,1.44085 0.14944,0.3398 0.1223,0.56409 0.0613,0.84954 -0.0543,0.48254 -0.68644,0.44856 -0.94471,0.78159 -0.32624,0.1291 -0.72043,0.36021 -0.97869,0.50974 -0.44856,0.0884 -0.77479,0.51652 -1.21656,0.5641 -0.48935,0.25147 -0.93791,0.42818 -1.43406,0.62526 -0.44856,0.14946 -0.96508,0.33983 -1.42724,0.38061 -0.46895,0.19709 -0.89034,0.30583 -1.3389,0.46217 -0.57769,0.068 -1.18259,0.0884 -1.7059,0.23107 -0.7544,-0.0407 -1.54959,0.1835 -2.31759,0.0952 -0.41459,-0.0339 -0.82916,-0.14946 -1.15539,-0.40099 -0.3942,-0.1971 -0.95151,-0.48255 -1.23015,-0.82239 -0.26508,-0.26504 -0.48256,-0.62526 -0.5777,-1.00586 -0.19712,-0.73402 0.0139,-1.36608 -0.0272,-2.12729 0.0339,-0.61167 0.31264,-1.10782 0.35342,-1.68552 0.0339,-0.41457 0.11553,-0.80876 0.43498,-1.06703 0.42136,-0.16303 0.80196,-0.0204 1.18257,-0.25147 0.3942,-0.19709 0.82917,-0.15624 1.08743,-0.55051 0.26507,-0.25828 0.40099,-0.3942 0.5641,-0.70004 0.16999,-0.27185 0.27185,-0.61847 0.48934,-0.85635 0.12232,-0.48254 0.13589,-1.06703 -0.0543,-1.48162 -0.13589,-0.48256 -0.5641,-0.83597 -0.41457,-1.40007 0.0613,-0.42816 0.23107,-0.82236 0.43496,-1.20296 0.29903,-0.36701 0.63887,-0.84276 1.14181,-0.75442 z m 24.29048,0.3942 c 0.17669,0.53012 -0.53013,0.82918 -0.89035,0.46216 -0.14266,-0.5641 0.49615,-0.52332 0.89035,-0.46216 z m -3.88758,0.3874 c 0.42819,0.0339 0.75441,0.25147 1.12143,0.33982 0.40777,0.19031 1.21654,0.40099 1.00586,1.00588 -0.10876,0.33301 -0.55052,0.42136 -0.7884,0.70682 -0.24465,0.16303 -0.52332,0.40779 -0.74759,0.58448 -0.41458,0.36702 -1.03306,0.57091 -1.40007,1.04667 -0.41458,0.32624 -0.89033,0.61167 -1.30491,0.89712 -0.61169,0.1291 -0.74081,-0.23107 -0.90393,-0.63206 -0.21749,-0.42817 -0.61848,-0.82237 -0.80879,-1.27773 -0.28544,-0.49614 -0.38739,-0.99908 -0.7272,-1.46803 -0.37381,-0.9447 0.69322,-0.78159 1.25732,-0.82918 0.72043,0.0475 1.37288,-0.0613 2.01175,-0.23787 0.41459,-0.0139 0.85636,-0.18349 1.28453,-0.13588 z m -9.25674,0.13589 c 0.50973,0.0139 1.1486,0.0613 1.68552,0.0952 0.42817,0.14945 0.93111,0.007 1.38648,0.19029 0.30583,0.22428 0.40097,0.60488 0.58448,0.90393 0.21748,0.31263 0.33303,0.70682 0.53692,1.01947 0.0139,0.35342 0.21749,0.60488 0.38739,0.9243 0.13589,0.42819 0.42819,0.73403 0.70004,1.12142 0.27864,0.35342 0.66605,1.03305 0.2039,1.37289 -0.23787,0.23786 -0.54373,0.36021 -0.7952,0.51652 -0.5573,0.31264 -1.05344,0.66605 -1.56996,1.01947 -0.36702,0.11553 -0.79518,0.42817 -1.08744,0.61168 -0.31943,0.16303 -0.63886,0.30583 -0.91073,0.5573 -0.31942,0.16303 -0.7544,0.25827 -1.04664,0.49614 -0.29904,0.26506 -1.01266,0.38741 -0.97869,-0.1835 -0.19031,-0.69324 -0.16999,-1.41366 -0.19031,-2.16128 0.19712,-0.70682 -0.19029,-1.31169 0,-1.97776 0.0884,-0.58448 0.21751,-1.18257 0.28546,-1.73308 -0.14945,-0.70003 -0.23787,-1.45445 -0.0613,-2.16127 0.12232,-0.36022 0.44176,-0.66605 0.86995,-0.61168 z m 13.355,1.44764 c 0.42138,0.1291 0.74761,0.25146 1.12821,0.48934 0.33303,0.24466 0.68644,0.41458 1.05345,0.57769 0.36701,0.16303 0.80877,0.38741 1.21656,0.48935 0.36022,0.10196 0.7816,0.50973 0.46215,0.97189 0.0339,0.53012 -0.21068,0.91752 -0.34662,1.3321 -0.18349,0.29224 -0.22426,0.65924 -0.42817,0.93111 -0.12232,0.52331 -0.30584,1.03986 -0.3874,1.54959 -0.0952,0.3534 -0.25826,0.64566 -0.46215,0.9447 -0.1767,0.31263 -0.36021,0.62527 -0.38741,0.99907 -0.13588,0.35342 -0.1291,0.73402 -0.39418,1.05345 -0.33983,0.33983 -0.59129,0.70682 -0.61848,1.17578 0.0139,0.4146 -0.1903,0.74761 -0.48254,1.01269 -0.30584,0.22426 -0.2039,0.63885 -0.48935,0.86994 -0.57769,0.0884 -0.64566,-0.45537 -0.95829,-0.72044 -0.0613,-0.25825 -0.49615,-0.59128 -0.63887,-0.90393 -0.19031,-0.42816 -0.56411,-0.72041 -0.76801,-1.09421 -0.21068,-0.17672 -0.29903,-0.60488 -0.53012,-0.82237 -0.20388,-0.35342 -0.38739,-0.73402 -0.7272,-1.04665 -0.2243,-0.1835 -0.40099,-0.67284 -0.58451,-0.86994 -0.0952,-0.38741 -0.46216,-0.64568 -0.62527,-0.99908 -0.18352,-0.23788 -0.3806,-0.59808 -0.55051,-0.92432 -0.19031,-0.33303 -0.52332,-0.75441 -0.29224,-1.09424 0.29224,-0.48934 0.88353,-0.65923 1.27093,-1.06703 0.59129,-0.42139 1.23695,-0.77478 1.79426,-1.19618 0.53011,-0.42817 0.99908,-0.93111 1.56997,-1.31171 0.25828,-0.36021 0.74762,-0.49613 1.17579,-0.3466 z m -27.20615,2.51467 c 0.42819,0.46215 -0.70002,1.05346 -0.67963,0.34662 -0.0543,-0.35342 0.44856,-0.57769 0.67963,-0.34662 z m 32.53455,-0.007 c 0.61848,0.0339 1.18259,0.30584 1.66513,0.68644 0.29905,0.13588 0.73403,0.25827 1.06706,0.46895 0.28545,0.0475 0.70002,0.32623 1.01944,0.27866 0.31945,0.23107 0.76121,0.28545 1.08743,0.50293 0.41459,0.19709 0.84278,0.33302 1.20298,0.53691 0.43497,0.19031 0.89712,0.36022 1.32531,0.59809 0.38739,0.068 0.76799,0.28545 1.09422,0.30584 0.367,0.11553 0.70004,0.16303 1.03986,0.3602 0.48253,0.11553 0.91073,-0.0272 1.40007,0.2311 0.51652,0.35341 0.89033,0.82916 0.94471,1.40685 0.16999,0.38741 0.1767,0.9379 0.32622,1.3457 0.1291,0.59129 0.15624,1.23015 0.29904,1.79426 -0.0681,0.53013 0.25147,1.16898 0.0884,1.61756 0.14266,0.5709 0.0407,1.29811 0.25146,1.80105 0.0407,0.55051 0.16999,1.1214 0.0884,1.57677 -0.0407,0.49615 -0.18351,0.7884 -0.0681,1.18259 0.19028,0.7612 -0.16999,1.46803 -0.10876,2.24962 -0.068,0.60487 -0.19031,1.22335 -0.36701,1.76706 -0.12232,0.401 -0.13589,0.82917 -0.40779,1.15539 -0.25827,0.42818 -0.6049,0.85636 -1.02626,1.17578 -0.25827,0.28545 -0.63887,0.49615 -0.99909,0.65926 -0.40099,0.1971 -0.85634,0.33983 -1.35928,0.32623 -0.37381,0.12232 -0.9379,0.15625 -1.29813,0 -0.49613,-0.10875 -0.97869,-0.1767 -1.35929,-0.46216 -0.5505,-0.24467 -1.1146,-0.65247 -1.60395,-0.97869 -0.31944,-0.46215 -0.84955,-0.78838 -1.38648,-0.95149 -0.43497,-0.3806 -0.53691,-0.55731 -0.40099,-1.46803 0.17671,-0.70683 -0.0407,-1.44764 -0.18349,-2.13408 -0.23788,-0.32623 -0.43497,-0.47576 -0.85636,-0.64568 -0.39418,-0.14944 -0.80198,-0.42138 -1.25054,-0.37379 -0.48934,0 -0.85636,0.31943 -1.33889,0.29904 -0.47576,0.22428 -0.77482,-0.50974 -1.08743,-0.7748 -0.16303,-0.20389 -0.3942,-0.42138 -0.55052,-0.59127 -0.35341,-0.10196 -0.45537,-0.59131 -0.73401,-0.82239 -0.23109,-0.48934 -0.61169,-0.92431 -0.9651,-1.33208 -0.36021,-0.30587 -0.25827,-0.79521 -0.0475,-1.17581 0.1971,-0.3466 0.40099,-0.68644 0.61168,-1.05343 0.16999,-0.25827 0.33983,-0.52334 0.40099,-0.83597 0.21071,-0.21748 0.21071,-0.57769 0.40779,-0.82237 0.16303,-0.33303 0.25826,-0.66605 0.41459,-1.00586 0.0748,-0.37381 0.28545,-0.67966 0.3738,-1.04667 0.19709,-0.34661 0.29905,-0.79517 0.40779,-1.17578 0.16303,-0.31264 0.23788,-0.65924 0.39419,-0.97869 0.0952,-0.49613 0.31264,-0.9379 0.39419,-1.42724 0.0339,-0.43498 0.26507,-0.80198 0.3874,-1.17579 0.12231,-0.33981 0.14267,-0.72722 0.42139,-1.01267 0.12231,-0.0139 0.14266,-0.16302 0.28544,-0.0816 z m -12.41029,2.34475 c 0.49614,0.0681 0.64566,0.71362 0.9447,1.04666 0.2243,0.27865 0.51652,0.72721 0.61168,1.03305 0.14946,0.38741 0.5777,0.72042 0.7612,1.10783 0.14267,0.43497 0.53691,0.80198 0.78159,1.22335 0.28545,0.3874 0.33983,0.88354 0.73401,1.19617 0.33304,0.3942 0.55733,0.82918 0.7884,1.26415 0.1835,0.35341 0.55052,0.734 0.91751,0.9583 0.22429,0.44175 0.84957,0.90392 0.52334,1.48161 -0.17672,0.29906 -0.44857,0.52333 -0.52334,0.80877 -0.0884,0.44178 -0.54371,0.70683 -0.64566,1.11463 -0.14266,0.32623 -0.367,0.55052 -0.59128,0.82237 -0.24467,0.28545 -0.3602,0.65925 -0.68644,0.91751 -0.24467,0.1903 -0.29905,0.6049 -0.58449,0.83597 -0.26508,0.44856 -0.79518,0.70003 -1.03306,1.1622 -0.55052,0.33981 -0.88355,1.04665 -1.5428,1.25054 -0.34661,0.33981 -0.9447,0.39419 -1.43404,0.35341 -0.59809,0.0139 -1.21657,-0.0272 -1.7399,-0.30584 -0.32623,0.0613 -0.67963,-0.29225 -0.9379,-0.54371 -0.44858,-0.46896 -0.98549,-0.83597 -1.24375,-1.45445 -0.20389,-0.28545 -0.55051,-0.67964 -0.5709,-1.10782 0,-0.68644 -0.26507,-1.34569 -0.42819,-1.96415 -0.11552,-0.63208 -0.38058,-1.29814 -0.39418,-1.95739 -0.0952,-0.65245 -0.16999,-1.32531 -0.32624,-1.95737 -0.12231,-0.75441 -0.21748,-1.53599 -0.27864,-2.27682 0,-0.41458 -0.0748,-1.10102 0.44856,-1.30491 0.3806,-0.24467 0.92432,-0.44176 1.29811,-0.7476 0.36021,-0.20389 0.76801,-0.37381 1.11463,-0.65246 0.53013,-0.40099 1.27093,-0.63206 1.76028,-1.04666 0.32623,-0.21068 0.7544,-0.31942 1.03985,-0.61168 0.37381,-0.1835 0.65245,-0.50973 1.09422,-0.58449 0,-0.0952 0.0681,-0.10876 0.14268,-0.0613 z m 13.11034,16.00562 c 0.38059,0.10876 0.29224,0.70003 0.0543,0.90393 -0.36702,0.16999 -0.66605,0.0475 -0.78159,-0.30584 0.0272,-0.35342 0.20389,-0.82918 0.72722,-0.59809 z m -5.74299,-99.81929 c -0.34663,0.14945 -0.89034,0.0204 -1.23696,0.32622 -0.31944,0.10196 -0.43497,0.70683 -0.0139,0.66607 0.3806,0.0884 0.81557,-0.14268 1.21656,-0.14268 0.45535,0.10876 1.01946,0.1971 1.52241,0.1971 0.42136,0.12232 0.84274,0.19029 1.23693,0.30584 0.46217,0.1767 0.97869,0.28544 1.42725,0.51652 0.47576,0.33303 0.76122,-0.26506 0.37381,-0.50973 -0.40099,-0.21069 -0.82916,-0.46896 -1.28451,-0.65247 -0.43498,-0.16999 -1.00589,-0.35341 -1.49523,-0.50971 -0.61848,-0.0884 -1.10102,-0.27186 -1.7399,-0.19712 z m 6.59254,9.25676 c -0.68644,0.19709 -0.2107,0.86994 0.28544,0.94469 0.42817,0.15623 0.79519,0.26507 1.1622,0.51653 0.42817,-0.0407 0.84955,0.36021 1.29133,0.38741 0.32623,0.19029 0.7544,0.23785 1.15539,0.33302 0.58449,0.0339 1.19617,0.31263 1.77387,0.21747 0.48934,-0.29903 -0.25827,-0.69323 -0.5777,-0.80198 -0.42819,-0.16303 -0.89033,-0.31263 -1.3525,-0.43498 -0.42137,0.007 -0.88353,-0.17669 -1.3253,-0.27185 -0.50294,-0.068 -0.88354,-0.33981 -1.3457,-0.48934 -0.367,-0.1291 -0.70002,-0.367 -1.06703,-0.40097 z m 3.60211,6.076 c -0.63207,0.12231 -0.2039,0.5845 0.15623,0.76119 0.44177,0.32624 0.84957,0.51655 1.35249,0.67286 0.44858,0.1835 0.99228,0.29905 1.3593,0.52332 0.23108,0.18351 0.73402,0.0543 0.46895,-0.32622 -0.29905,-0.46216 -0.91752,-0.63208 -1.38648,-0.92432 -0.39418,-0.1291 -0.73402,-0.27186 -1.1214,-0.38739 -0.25146,-0.14267 -0.50973,-0.29224 -0.82916,-0.31944 z m 0,0"
   id="path4558" /></g></g></svg>